<svg width="256" height="256" viewBox="0 0 256 256" fill="none" xmlns="http://www.w3.org/2000/svg">
<g clip-path="url(#clip0_2_615)">
<path d="M46 44C32.6925 65.0814 29.5033 91.3208 36.8867 115" stroke="#91888C" stroke-width="2"/>
<path d="M37.803 115.023C11.3167 113.851 17.5561 158.643 46.6126 152.026C46.8332 151.977 47.0636 152.003 47.2666 152.101C47.4695 152.198 47.633 152.362 47.7306 152.564C60.1329 178.206 80.2556 191.268 107 198" stroke="#CBABA0" stroke-width="2"/>
<path d="M107 198L104 199" stroke="#BEA195" stroke-width="2"/>
<path d="M104 199L97 202" stroke="#C4A49B" stroke-width="2"/>
<path d="M97 202C82.4944 204.13 68.8276 208.797 56 216" stroke="#FFD28F" stroke-width="2"/>
<path d="M56.3933 216L51.4706 218.379C51.3544 218.435 51.253 218.518 51.1741 218.62C51.0953 218.722 51.0412 218.841 51.016 218.968C50.9909 219.094 50.9954 219.224 51.0292 219.349C51.0631 219.472 51.1252 219.588 51.211 219.683C93.6402 267.396 164.884 268.058 208.851 221.89C209.07 221.659 209.047 221.456 208.784 221.276C205.599 219.121 202.336 217.727 198.996 217.094" stroke="#E8EEEE" stroke-width="2"/>
<path d="M199 217C185.776 208.536 171.776 202.871 157 200" stroke="#FFD28F" stroke-width="2"/>
<path d="M157 200L148 197" stroke="#BEA195" stroke-width="2"/>
<path d="M148 197C175.04 191.569 197.394 176.766 208.644 151.274C208.774 150.986 208.996 150.87 209.312 150.928C239.78 156.907 243.497 112.767 218.577 114.026" stroke="#C4A49B" stroke-width="2"/>
<path d="M218.746 114C229.875 72.1985 211.845 31.5582 174 11" stroke="#91888C" stroke-width="2"/>
<path d="M174 11.2411C129.435 -11.8958 73.1919 1.48512 46 44" stroke="#978D91" stroke-width="2"/>
<path d="M173.738 11C173.247 11.6764 173.251 12.2305 173.747 12.662C173.837 12.7424 173.905 12.8427 173.949 12.9549C173.992 13.067 174.008 13.1879 173.996 13.3075C173.984 13.4272 173.943 13.5422 173.879 13.6433C173.814 13.7444 173.725 13.8286 173.622 13.8892C167.398 17.4838 161.051 20.2538 154.584 22.1994C141.827 26.0323 128.961 29.4433 115.986 32.4324C98.166 36.5295 84.2013 40.3754 66.5164 45.7577C61.7875 47.2007 56.4467 47.9479 50.4937 47.9995C47.6912 48.0284 46.1643 46.9075 46 44.0956" stroke="#29171F" stroke-width="2"/>
<path d="M218 114C216.519 118.016 215.369 121.697 214.549 125.048C213.245 130.371 212.625 130.317 212.686 124.883C212.706 123.082 212.477 120.735 212 117.844" stroke="#562F29" stroke-width="2"/>
<path d="M212 117.809C210.184 91.8377 200.98 69.1773 184.389 49.8284C179.753 44.4287 176.492 44.0199 169.599 44.0009C155.488 43.9629 141.495 45.0847 127.619 47.3662C105.305 51.0453 83.4694 55.5228 61.8437 62.2249C60.0144 62.7889 58.5612 64.085 57.4841 66.1131C47.8854 84.1944 43.0574 103.156 43 123" stroke="#512B23" stroke-width="2"/>
<path d="M43 123.462L42.8588 128.429C42.8351 129.168 42.7085 129.189 42.4788 128.496L38 115" stroke="#5E352E" stroke-width="2"/>
<path d="M212 119C209.711 113.483 207.507 108.019 205.39 102.606C198.639 85.3086 186.178 59.1634 166.396 54.8027C154.606 52.1998 141.807 51.41 128 52.4329" stroke="#844831" stroke-width="2"/>
<path d="M128 53C111.281 53.9403 94.9696 56.307 79.0665 60.1C69.4089 62.4027 64.3874 65.8759 59.761 74.252C53.5732 85.4489 49.8625 94.2855 46.7975 107.219C45.4803 112.79 44.2144 118.384 43 124" stroke="#8B4E36" stroke-width="2"/>
<path d="M103 157C103 157.388 103 157.722 103 158" stroke="#CBABA0" stroke-width="2"/>
<path d="M106 178C111.745 183.612 119.078 186.272 128 185.978" stroke="#B76051" stroke-width="2"/>
<path d="M128 199.976C120.862 200.138 113.861 199.48 107 198" stroke="#8B4E36" stroke-width="2"/>
<path d="M148 197C141.509 198.993 134.843 199.994 128 200" stroke="#844831" stroke-width="2"/>
<path d="M128 200V186" stroke="#91523C" stroke-width="2"/>
<path d="M128.011 186C134.191 185.405 139.639 183.4 144.354 179.989C144.537 179.855 144.688 179.687 144.798 179.494C144.909 179.301 144.976 179.089 144.994 178.87C145.013 178.651 144.985 178.432 144.908 178.226C144.833 178.02 144.712 177.83 144.555 177.672C134.586 167.629 116.007 164.91 106 177.079" stroke="#AF5A4C" stroke-width="2"/>
<path d="M106 178C102.125 173.299 100.124 167.375 100 160.228C99.9968 159.958 100.067 159.694 100.199 159.472C100.332 159.248 100.52 159.078 100.74 158.985C100.96 158.89 101.199 158.878 101.426 158.947C101.652 159.014 101.855 159.162 102.006 159.369C102.361 159.86 102.76 160.122 103.204 160.156C103.234 160.16 103.265 160.153 103.291 160.133C103.317 160.114 103.336 160.085 103.346 160.05C103.355 160.017 103.354 159.981 103.343 159.948C103.332 159.915 103.311 159.888 103.284 159.87L102.397 159.175C102.1 158.95 102.071 158.685 102.308 158.378C102.468 158.167 102.677 158.041 102.938 158" stroke="#91523C" stroke-width="2"/>
<path d="M103.257 158.205C108.992 165.393 122.574 166.253 130.507 165.949C137.21 165.683 143.849 163.71 150.423 160.028C150.612 159.921 150.768 159.753 150.87 159.548C150.973 159.341 151.015 159.106 150.995 158.873C150.975 158.64 150.891 158.419 150.755 158.238C150.619 158.057 150.438 157.925 150.233 157.859C149.548 157.643 148.604 157.633 147.399 157.828C132.555 160.286 117.756 160.011 103 157" stroke="#C4A49B" stroke-width="2"/>
<path d="M102.474 156.999C102.027 157.018 101.897 156.717 102.08 156.096C102.118 155.971 102.182 155.855 102.266 155.755C102.351 155.655 102.456 155.572 102.574 155.512C102.691 155.452 102.819 155.416 102.952 155.405C103.083 155.394 103.215 155.411 103.341 155.452L106.55 156.509C106.717 156.564 106.896 156.57 107.067 156.527C107.238 156.485 107.393 156.395 107.515 156.269C108.888 154.84 110.473 154.571 112.271 155.461C112.58 155.615 112.907 155.686 113.256 155.673C117.834 155.548 123.269 156.278 127.523 154.539C127.626 154.497 127.717 154.431 127.787 154.347C127.859 154.262 127.909 154.163 127.931 154.057C127.955 153.951 127.951 153.842 127.921 153.737C127.891 153.634 127.835 153.539 127.759 153.462C126.193 151.857 126.794 150.118 125.8 148.618C124.529 146.715 122.58 145.505 123.299 142.746C123.403 142.362 123.539 142.349 123.702 142.708C126.44 148.513 133.342 148.782 136.798 143.284C136.955 143.035 137.02 142.762 136.995 142.467C136.611 138.45 131.303 136.643 128.714 133.923C128.303 133.491 128.074 132.924 128.074 132.338L128.094 52" stroke="#91523C" stroke-width="2"/>
<path d="M157 200L156 203" stroke="#BF7525" stroke-width="2"/>
<path d="M156 202.651C154.384 203.182 154.745 200.742 152.616 200.397C152.286 200.352 152.103 200.499 152.065 200.84L151.875 202.483C151.83 202.851 151.643 203.107 151.314 203.251C136.772 209.696 120.69 210.208 107.08 200.87C106.122 200.207 105.095 199.584 104 199" stroke="#844831" stroke-width="2"/>
<path d="M156 203.33C150.072 217.332 134.584 222.014 119.936 219.236C109.668 217.292 102.023 211.547 97 202" stroke="#C4792B" stroke-width="2"/>
<path d="M199 217.101C158.767 249.852 95.7606 248.423 56 216" stroke="#E8C27F" stroke-width="2"/>
<path d="M166.898 80.3578C158.272 77.6788 155.837 90.8872 164.019 92.0256C171.456 93.0593 178.887 94.6882 186.31 96.9127C186.605 97.0011 186.914 97.0231 187.218 96.9753C187.521 96.9275 187.81 96.8122 188.066 96.6368C188.322 96.4613 188.538 96.2307 188.699 95.9596C188.861 95.6886 188.963 95.3843 189 95.0679C189 95.0188 187.735 92.7027 187.405 92.3886C181.478 86.769 174.643 82.7587 166.898 80.3578Z" stroke="#45261C" stroke-width="2"/>
<path d="M155 129C158.112 145.806 178.914 145.601 187 132.506" stroke="#C4A49B" stroke-width="2"/>
<path d="M186.86 132C188.015 130.535 189.105 128.951 190.131 127.244C190.775 126.18 190.813 125.262 190.929 124.041C190.948 123.87 191.029 123.712 191.155 123.598C191.281 123.485 191.445 123.424 191.612 123.426C192.144 123.439 192.667 123.436 193.179 123.416C193.577 123.397 193.795 123.189 193.833 122.791L193.997 121.043C194.007 120.946 193.993 120.847 193.957 120.756C193.92 120.665 193.864 120.584 193.789 120.521C193.716 120.457 193.628 120.413 193.533 120.393C193.439 120.371 193.341 120.373 193.247 120.399L190.958 121.024C190.586 121.121 190.39 120.975 190.371 120.584L190.333 119.744C190.321 119.484 190.24 119.246 190.092 119.032C184.61 110.799 173.453 102.87 163.643 107.245C155.593 110.838 152.573 119.832 154.621 128.318" stroke="#45261C" stroke-width="2"/>
<path d="M187.161 132C189.402 123.711 187.153 117.427 180.415 113.15C179.987 112.878 179.89 112.976 180.124 113.445L181.484 116.169" stroke="#807F7F" stroke-width="2"/>
<path d="M180.993 116.98C181.023 117.322 180.957 117.584 180.793 117.766C180.582 118.011 180.374 118.007 180.167 117.755C179.46 116.882 176.059 112.161 175.379 112.016C175.229 111.983 175.073 112.001 174.932 112.066C174.792 112.131 174.672 112.239 174.59 112.377C174.507 112.515 174.466 112.676 174.471 112.841C174.475 113.005 174.526 113.162 174.617 113.296C184.339 127.423 164.396 139.882 160.732 122.526C160.702 122.373 160.617 122.239 160.494 122.154C160.372 122.068 160.222 122.038 160.079 122.071L159 122.313" stroke="#371B11" stroke-width="2"/>
<path d="M158.399 122.918L158.994 118.5C159.013 118.389 158.987 118.278 158.921 118.185C158.857 118.094 158.759 118.031 158.646 118.009C158.533 117.987 158.416 118.006 158.316 118.066C158.217 118.124 158.144 118.218 158.112 118.325L155 129" stroke="#807F7F" stroke-width="2"/>
<path d="M181.109 117C183.081 123.912 181.78 129.549 177.203 133.91C174.804 136.195 170.537 137.652 167.615 136.709C160.922 134.538 158.129 129.714 159.235 122.237" stroke="#B69990" stroke-width="2"/>
<path d="M193.995 152.658C194.039 151.875 193.81 151.082 193.324 150.325C192.837 149.569 192.101 148.864 191.158 148.248C190.215 147.633 189.083 147.122 187.826 146.742C186.569 146.363 185.214 146.123 183.836 146.036C182.458 145.95 181.085 146.019 179.794 146.239C178.504 146.458 177.322 146.825 176.317 147.318C175.311 147.811 174.502 148.419 173.933 149.11C173.365 149.8 173.049 150.559 173.005 151.342C172.961 152.125 173.19 152.917 173.676 153.674C174.163 154.432 174.899 155.137 175.842 155.751C176.785 156.367 177.917 156.879 179.174 157.258C180.431 157.638 181.786 157.878 183.164 157.963C184.542 158.05 185.915 157.982 187.206 157.761C188.496 157.542 189.678 157.175 190.683 156.683C191.689 156.19 192.498 155.581 193.067 154.891C193.635 154.2 193.951 153.441 193.995 152.658Z" stroke="#A55044" stroke-width="2"/>
<path d="M66.9493 96.9941C67.937 97.0332 68.9993 96.8769 70.1361 96.5251C75.4227 94.8964 81.0073 93.6554 86.8903 92.802C89.928 92.3655 91.8941 91.8313 92.7887 91.1993C96.9442 88.2579 94.9967 78.7498 89.0055 80.1374C85.5857 80.929 63.6134 90.3493 66.2132 96.4664C66.2777 96.6191 66.3809 96.7498 66.5111 96.8427C66.6413 96.9367 66.7932 96.9893 66.9493 96.9941Z" stroke="#4D2D21" stroke-width="2"/>
<path d="M68 130.545C70.1452 135.464 73.5329 138.858 78.1632 140.726C88.6401 144.941 100.353 138.356 101 126" stroke="#CBABA0" stroke-width="2"/>
<path d="M100.799 126.825C103.786 100.678 72.6545 102.165 65.3941 120.965C65.268 121.294 65.0884 121.329 64.8552 121.07C64.1997 120.325 63.434 120.208 62.5579 120.719C62.2617 120.89 62.0883 121.145 62.038 121.486C61.6882 123.626 63.8246 125.14 65.5358 125.954C65.6754 126.022 65.7962 126.124 65.8871 126.251C65.9778 126.378 66.0359 126.527 66.0558 126.683C66.3709 129.177 67.351 130.615 68.9959 131" stroke="#4D2D21" stroke-width="2"/>
<path d="M101 126L97.8322 118.274C97.8084 118.213 97.7674 118.158 97.7117 118.112C97.6561 118.067 97.5886 118.035 97.5157 118.016C97.4416 117.998 97.3634 117.995 97.2866 118.007C97.2111 118.021 97.1409 118.048 97.08 118.088C96.7304 118.318 97.6415 121.995 97.6098 122.793" stroke="#807F7F" stroke-width="2"/>
<path d="M97 123.332C95.8241 123.519 95.13 123.985 94.9178 124.727C92.2353 134.072 79.9955 132.34 77.8946 123.725C76.4783 117.9 80.3801 114.988 84.1036 111.561C84.4724 111.224 84.4069 111.04 83.9066 111.008C81.5149 110.858 78.3542 112.797 76 113.48" stroke="#371B11" stroke-width="2"/>
<path d="M76 113C69.2257 116.934 66.7538 122.933 68.5839 131" stroke="#807F7F" stroke-width="2"/>
<path d="M96.9712 123.097C97.8591 138.838 77.9731 142.427 72.8795 127.541C71.1881 122.602 71.9363 117.755 75.1238 113" stroke="#B69990" stroke-width="2"/>
<path d="M28.1852 129.943C30.4613 126.025 35.1394 122.94 39.5754 124.785C39.9306 124.931 40.0629 124.806 39.9725 124.41L39.711 123.284C39.6594 123.076 39.5335 122.982 39.3332 123.003C34.5099 123.607 30.4807 124.597 28.0109 129.828C27.999 129.854 27.9967 129.887 28.0046 129.915C28.0125 129.945 28.03 129.97 28.0532 129.986C28.0763 130 28.1032 130.004 28.1279 129.996C28.1527 129.988 28.1734 129.969 28.1852 129.943Z" stroke="#8B4E36" stroke-width="2"/>
<path d="M79.9997 151.152C80.021 149.562 78.9351 148.02 76.981 146.867C75.0269 145.713 72.3648 145.042 69.5801 145.002C66.7954 144.961 64.1163 145.553 62.1322 146.65C60.148 147.746 59.0215 149.256 59.0003 150.846C58.979 152.437 60.0649 153.978 62.019 155.133C63.9731 156.286 66.6353 156.958 69.42 156.998C72.2046 157.039 74.8837 156.445 76.8678 155.349C78.852 154.253 79.9785 152.744 79.9997 151.152Z" stroke="#AD5749" stroke-width="2"/>
<path d="M166.604 112.444C166.409 112.072 166.147 111.757 165.836 111.516C165.525 111.277 165.168 111.115 164.788 111.043C164.407 110.971 164.011 110.99 163.621 111.096C163.229 111.204 162.852 111.398 162.511 111.667C162.169 111.938 161.869 112.279 161.628 112.671C161.386 113.063 161.209 113.498 161.106 113.951C161.002 114.405 160.974 114.869 161.024 115.316C161.075 115.762 161.201 116.185 161.397 116.556C161.592 116.928 161.853 117.243 162.165 117.484C162.476 117.723 162.832 117.885 163.213 117.957C163.593 118.029 163.989 118.01 164.379 117.904C164.771 117.796 165.148 117.602 165.489 117.333C165.832 117.062 166.131 116.721 166.372 116.329C166.614 115.939 166.791 115.502 166.894 115.049C166.998 114.595 167.026 114.131 166.976 113.684C166.926 113.238 166.799 112.815 166.604 112.444Z" stroke="#807F7F" stroke-width="2"/>
<path d="M94 115.5C94 115.04 93.9224 114.585 93.7717 114.16C93.6209 113.736 93.3999 113.35 93.1213 113.025C92.8428 112.7 92.512 112.442 92.1481 112.266C91.7841 112.091 91.394 112 91 112C90.606 112 90.216 112.091 89.852 112.266C89.488 112.442 89.1573 112.7 88.8787 113.025C88.6001 113.35 88.3791 113.736 88.2284 114.16C88.0777 114.585 88 115.04 88 115.5C88 116.428 88.3161 117.318 88.8787 117.975C89.4413 118.631 90.2044 119 91 119C91.7957 119 92.5587 118.631 93.1213 117.975C93.6839 117.318 94 116.428 94 115.5Z" stroke="#807F7F" stroke-width="2"/>
<path d="M173.738 11.2729C173.247 11.9443 173.251 12.4942 173.747 12.9226C173.837 13.0025 173.905 13.102 173.949 13.2134C173.992 13.3248 174.008 13.4447 173.996 13.5635C173.984 13.6822 173.943 13.7963 173.879 13.8967C173.814 13.997 173.725 14.0807 173.622 14.1408C167.398 17.7089 161.051 20.4586 154.584 22.3896C141.827 26.1944 128.961 29.5803 115.986 32.5472C98.166 36.6141 84.2013 40.4316 66.5164 45.7742C61.7875 47.2066 56.4467 47.9483 50.4937 47.9995C47.6912 48.0282 46.1643 46.9156 46 44.1244C73.1362 1.48932 129.264 -11.9295 173.738 11.2729Z" fill="#2F1C24"/>
<path d="M173.641 11C211.769 31.6917 229.934 72.5959 218.722 114.669C217.325 118.414 216.24 121.847 215.467 124.972C214.239 129.936 213.652 129.886 213.71 124.818C213.729 123.139 213.514 120.95 213.063 118.253C211.228 92.0704 201.931 69.2256 185.172 49.7191C180.488 44.2754 177.195 43.8633 170.232 43.8441C155.978 43.8058 141.843 44.9367 127.827 47.2368C105.287 50.9458 83.2297 55.4598 61.3847 62.2165C59.537 62.7851 58.0691 64.0917 56.981 66.1363C47.285 84.3649 42.408 103.482 42.3501 123.486L42.1956 128.431C42.1698 129.167 42.0314 129.188 41.7803 128.498L36.884 115.062C29.5058 91.3037 32.6927 64.9767 45.9909 43.8249C46.1551 46.6139 47.6809 47.7256 50.4816 47.6968C56.4305 47.6457 61.7678 46.9046 66.4935 45.4734C84.1664 40.1351 98.1208 36.3207 115.929 32.2571C128.896 29.2925 141.753 25.9094 154.501 22.1078C160.965 20.1782 167.306 17.4308 173.526 13.8656C173.629 13.8055 173.717 13.722 173.783 13.6217C173.848 13.5214 173.889 13.4074 173.901 13.2886C173.913 13.17 173.896 13.0501 173.854 12.9389C173.81 12.8277 173.74 12.7281 173.651 12.6484C173.156 12.2204 173.152 11.6709 173.641 11Z" fill="#23121A"/>
<path d="M212 117.809C209.692 112.41 207.472 107.061 205.336 101.762C198.529 84.8314 185.967 59.2399 166.024 54.9714C154.137 52.4237 141.234 51.6505 127.314 52.6519C110.73 53.5835 94.5498 55.9284 78.7752 59.6867C69.1956 61.9682 64.2146 65.4096 59.6256 73.7088C53.4878 84.8029 49.807 93.5584 46.7668 106.373C45.4603 111.893 44.2046 117.435 43 123C43.0574 103.156 47.8854 84.1944 57.4841 66.1131C58.5612 64.085 60.0144 62.7889 61.8437 62.2249C83.4694 55.5228 105.305 51.0453 127.619 47.3662C141.495 45.0847 155.488 43.9629 169.599 44.0009C176.492 44.0199 179.753 44.4287 184.389 49.8284C200.98 69.1773 210.184 91.8377 212 117.809Z" fill="#7E442B"/>
<path d="M213.065 118.089C213.513 120.785 213.728 122.972 213.709 124.652C213.651 129.716 214.234 129.768 215.458 124.805C216.227 121.682 217.307 118.249 218.697 114.506C243.436 113.251 239.745 157.244 209.499 151.285C209.185 151.227 208.964 151.342 208.836 151.63C197.668 177.036 175.476 191.79 148.632 197.203C142.141 199.061 135.475 199.994 128.631 200V186.31C134.846 185.684 140.325 183.58 145.066 179.997C145.25 179.856 145.403 179.679 145.513 179.477C145.625 179.274 145.692 179.051 145.71 178.822C145.73 178.592 145.701 178.362 145.624 178.145C145.548 177.928 145.427 177.73 145.268 177.563C135.244 167.015 116.56 164.161 106.497 176.94C102.301 172.534 100.135 166.981 100 160.281C99.9965 160.028 100.072 159.78 100.215 159.572C100.359 159.363 100.564 159.203 100.801 159.115C101.039 159.027 101.299 159.015 101.544 159.079C101.789 159.144 102.009 159.282 102.172 159.476C102.557 159.936 102.989 160.181 103.47 160.214C103.502 160.217 103.536 160.21 103.563 160.192C103.592 160.174 103.613 160.146 103.623 160.115C103.633 160.083 103.632 160.049 103.62 160.018C103.608 159.987 103.585 159.962 103.556 159.945L102.595 159.294C102.274 159.083 102.243 158.834 102.499 158.547C102.672 158.349 102.899 158.23 103.181 158.192C108.977 164.764 122.701 165.55 130.717 165.272C137.489 165.029 144.198 163.225 150.843 159.859C151.034 159.761 151.191 159.608 151.293 159.42C151.396 159.232 151.441 159.016 151.419 158.803C151.399 158.59 151.315 158.387 151.178 158.222C151.041 158.057 150.857 157.936 150.65 157.876C149.958 157.678 149.003 157.669 147.786 157.847C132.787 160.095 117.832 159.843 102.922 157.09C102.486 157.11 102.358 156.809 102.537 156.19C102.575 156.065 102.637 155.95 102.719 155.85C102.802 155.75 102.904 155.668 103.018 155.608C103.133 155.548 103.258 155.512 103.387 155.501C103.517 155.492 103.645 155.507 103.768 155.548L106.901 156.602C107.063 156.657 107.238 156.663 107.405 156.621C107.572 156.578 107.724 156.488 107.843 156.362C109.182 154.938 110.73 154.67 112.485 155.558C112.786 155.711 113.106 155.781 113.446 155.768C117.915 155.644 123.22 156.372 127.372 154.638C127.472 154.596 127.561 154.53 127.631 154.446C127.7 154.362 127.748 154.263 127.771 154.158C127.794 154.052 127.79 153.943 127.762 153.84C127.732 153.736 127.678 153.643 127.603 153.565C126.075 151.965 126.661 150.231 125.69 148.736C124.451 146.84 122.548 145.632 123.249 142.883C123.351 142.5 123.484 142.487 123.643 142.845C126.315 148.631 133.053 148.899 136.426 143.419C136.58 143.17 136.643 142.899 136.618 142.605C136.243 138.601 131.063 136.8 128.535 134.088C128.134 133.657 127.911 133.093 127.911 132.508L127.93 52.427C141.924 51.418 154.895 52.1971 166.845 54.7646C186.894 59.0661 199.523 84.8559 206.366 101.918C208.513 107.258 210.745 112.648 213.065 118.089ZM167.364 80.2096C158.58 77.5942 156.1 90.4891 164.433 91.6004C172.006 92.6095 179.574 94.1999 187.134 96.3712C187.433 96.4586 187.749 96.479 188.058 96.4335C188.365 96.3868 188.661 96.2742 188.922 96.1018C189.182 95.9305 189.402 95.7054 189.567 95.4407C189.73 95.1761 189.835 94.8791 189.873 94.5701C189.873 94.5222 188.585 92.2614 188.249 91.9549C182.213 86.4686 175.251 82.5536 167.364 80.2096ZM155.648 127.833C158.781 145.144 179.724 144.933 187.864 131.444C189.018 130.007 190.107 128.452 191.132 126.779C191.776 125.734 191.815 124.834 191.93 123.636C191.949 123.469 192.03 123.313 192.156 123.202C192.282 123.09 192.444 123.029 192.612 123.033C193.145 123.046 193.666 123.042 194.179 123.023C194.577 123.004 194.794 122.799 194.832 122.41L194.996 120.695C195.005 120.599 194.991 120.502 194.955 120.414C194.919 120.324 194.861 120.245 194.788 120.183C194.714 120.12 194.626 120.077 194.532 120.056C194.437 120.035 194.34 120.038 194.246 120.063L191.959 120.676C191.588 120.772 191.392 120.628 191.372 120.245L191.334 119.421C191.321 119.166 191.242 118.933 191.094 118.722C185.615 110.646 174.467 102.867 164.663 107.158C156.619 110.684 153.601 119.507 155.648 127.833ZM194.88 152.025C194.926 151.258 194.691 150.484 194.186 149.744C193.682 149.002 192.92 148.313 191.943 147.711C190.965 147.109 189.793 146.608 188.492 146.237C187.19 145.866 185.786 145.631 184.358 145.547C182.93 145.462 181.508 145.529 180.172 145.745C178.835 145.959 177.612 146.319 176.57 146.8C175.527 147.283 174.689 147.878 174.1 148.553C173.512 149.229 173.186 149.971 173.14 150.738C173.095 151.503 173.33 152.279 173.835 153.019C174.338 153.759 175.101 154.449 176.078 155.051C177.056 155.652 178.228 156.153 179.529 156.524C180.83 156.895 182.235 157.13 183.662 157.215C185.09 157.299 186.513 157.232 187.849 157.016C189.185 156.802 190.409 156.443 191.451 155.961C192.492 155.478 193.332 154.883 193.921 154.208C194.508 153.533 194.835 152.79 194.88 152.025Z" fill="#894B37"/>
<path d="M128.291 52L128.272 132.297C128.272 132.883 128.495 133.45 128.897 133.882C131.43 136.6 136.619 138.406 136.995 142.422C137.02 142.716 136.956 142.988 136.802 143.238C133.423 148.733 126.673 148.464 123.997 142.662C123.837 142.303 123.704 142.316 123.602 142.7C122.899 145.457 124.806 146.668 126.048 148.57C127.02 150.068 126.433 151.807 127.964 153.411C128.038 153.488 128.092 153.583 128.122 153.686C128.151 153.79 128.155 153.9 128.132 154.005C128.109 154.111 128.061 154.211 127.991 154.295C127.921 154.379 127.834 154.445 127.732 154.487C123.573 156.226 118.258 155.496 113.781 155.62C113.441 155.634 113.121 155.563 112.819 155.409C111.06 154.519 109.51 154.788 108.168 156.216C108.049 156.342 107.897 156.432 107.73 156.474C107.563 156.517 107.387 156.511 107.225 156.456L104.086 155.399C103.963 155.359 103.834 155.342 103.706 155.353C103.576 155.363 103.451 155.399 103.335 155.459C103.221 155.52 103.118 155.602 103.035 155.702C102.953 155.803 102.891 155.918 102.854 156.043C102.674 156.664 102.802 156.965 103.239 156.946C103.148 157.375 103.235 157.743 103.499 158.051C103.216 158.089 102.988 158.208 102.815 158.406C102.559 158.694 102.59 158.944 102.911 159.155L103.874 159.809C103.903 159.824 103.926 159.851 103.938 159.882C103.95 159.913 103.951 159.947 103.942 159.978C103.931 160.01 103.91 160.037 103.881 160.055C103.854 160.074 103.82 160.081 103.788 160.078C103.306 160.045 102.873 159.799 102.488 159.338C102.324 159.143 102.104 159.004 101.858 158.939C101.613 158.876 101.353 158.888 101.115 158.977C100.876 159.064 100.672 159.224 100.527 159.434C100.384 159.643 100.308 159.891 100.312 160.145C100.447 166.863 102.616 172.431 106.82 176.85C112.61 183.459 120.001 186.59 128.994 186.244V199.971C121.74 200.164 114.629 199.385 107.658 197.637C80.709 190.903 60.4323 177.839 47.9351 152.191C47.8368 151.988 47.672 151.825 47.4675 151.728C47.263 151.63 47.0309 151.604 46.8086 151.653C17.5297 158.272 11.2426 113.469 37.9315 114.641L42.813 128.109C43.0633 128.8 43.2013 128.778 43.227 128.041L43.381 123.085C44.5942 117.462 45.8587 111.861 47.1745 106.284C50.2362 93.3348 53.943 84.4876 60.1242 73.2774C64.7456 64.8913 69.7619 61.4139 79.4092 59.1085C95.2956 55.311 111.59 52.9414 128.291 52ZM67.2201 96.1302C68.2406 96.1687 69.3382 96.015 70.5129 95.6691C75.9752 94.0681 81.7455 92.8481 87.8241 92.0091C90.9628 91.5801 92.9943 91.055 93.9186 90.4337C98.2129 87.5423 96.2006 78.1958 90.0096 79.5598C86.4761 80.3379 63.7732 89.598 66.4594 95.6115C66.5261 95.7616 66.6329 95.8901 66.7674 95.9813C66.9019 96.0738 67.0588 96.1254 67.2201 96.1302ZM68.8376 130.52C70.9429 135.106 74.2678 138.268 78.8122 140.011C89.095 143.939 100.591 137.801 101.226 126.284C104.269 99.7517 72.5636 101.26 65.1693 120.337C65.0409 120.67 64.8579 120.706 64.6205 120.443C63.9529 119.688 63.173 119.569 62.2809 120.088C61.9791 120.261 61.8027 120.52 61.7513 120.866C61.3951 123.037 63.571 124.574 65.3137 125.4C65.456 125.468 65.5788 125.572 65.6714 125.7C65.7639 125.83 65.8229 125.981 65.8432 126.139C66.1642 128.669 67.1623 130.13 68.8376 130.52ZM28.0147 129.041C30.2773 125.429 34.9276 122.585 39.3372 124.286C39.6902 124.42 39.8219 124.305 39.732 123.94L39.472 122.902C39.4206 122.71 39.2955 122.624 39.0965 122.643C34.3018 123.2 30.2965 124.113 27.8414 128.935C27.8294 128.959 27.8273 128.988 27.8351 129.015C27.8429 129.042 27.8603 129.066 27.8832 129.079C27.9062 129.093 27.9329 129.097 27.9576 129.09C27.9823 129.083 28.0027 129.065 28.0147 129.041ZM81.093 150.867C81.1142 149.356 80.0329 147.892 78.0871 146.797C76.1414 145.701 73.4906 145.065 70.7177 145.025C67.9449 144.987 65.2772 145.55 63.3016 146.591C61.3259 147.632 60.2041 149.065 60.183 150.576C60.1619 152.087 61.2431 153.55 63.1889 154.645C65.1346 155.742 67.7855 156.378 70.5583 156.416C73.3311 156.456 75.9988 155.893 77.9745 154.852C79.9501 153.811 81.0719 152.377 81.093 150.867Z" fill="#985841"/>
<path d="M66.2132 96.4664C63.6134 90.3493 85.5857 80.929 89.0055 80.1374C94.9967 78.7498 96.9442 88.2579 92.7887 91.1993C91.8941 91.8313 89.928 92.3655 86.8903 92.802C81.0073 93.6554 75.4227 94.8964 70.1361 96.5251C68.9993 96.8769 67.937 97.0332 66.9493 96.9941C66.7932 96.9893 66.6413 96.9367 66.5111 96.8427C66.3809 96.7498 66.2777 96.6191 66.2132 96.4664Z" fill="#010100"/>
<path d="M164.019 92.0256C155.837 90.8872 158.272 77.6788 166.898 80.3578C174.643 82.7587 181.478 86.769 187.405 92.3886C187.735 92.7027 189 95.0188 189 95.0679C188.963 95.3843 188.861 95.6886 188.699 95.9596C188.538 96.2307 188.322 96.4613 188.066 96.6368C187.81 96.8122 187.521 96.9275 187.218 96.9753C186.914 97.0231 186.605 97.0011 186.31 96.9127C178.887 94.6882 171.456 93.0593 164.019 92.0256Z" fill="#010100"/>
<path d="M186.86 132C189.08 124.064 186.854 118.049 180.186 113.954C179.762 113.694 179.666 113.788 179.897 114.237L181.244 116.844C181.276 117.19 181.205 117.453 181.032 117.635C180.808 117.883 180.587 117.879 180.368 117.625C179.618 116.746 176.012 111.991 175.29 111.844C175.131 111.813 174.966 111.831 174.816 111.896C174.667 111.96 174.54 112.07 174.453 112.209C174.366 112.348 174.322 112.511 174.327 112.676C174.333 112.84 174.387 113 174.482 113.133C184.793 127.361 163.643 139.91 159.757 122.43C159.725 122.276 159.635 122.142 159.505 122.056C159.375 121.97 159.217 121.939 159.065 121.971L157.92 122.215L158.497 117.782C158.515 117.671 158.49 117.557 158.428 117.465C158.364 117.374 158.269 117.31 158.16 117.288C158.051 117.266 157.937 117.286 157.841 117.346C157.744 117.404 157.673 117.497 157.641 117.606L154.621 128.318C152.573 119.832 155.593 110.838 163.643 107.245C173.453 102.87 184.61 110.799 190.092 119.032C190.24 119.246 190.321 119.484 190.333 119.744L190.371 120.584C190.39 120.975 190.586 121.121 190.958 121.024L193.247 120.399C193.341 120.373 193.439 120.371 193.533 120.393C193.628 120.413 193.716 120.457 193.789 120.521C193.864 120.584 193.92 120.665 193.957 120.756C193.993 120.847 194.007 120.946 193.997 121.043L193.833 122.791C193.795 123.189 193.577 123.397 193.179 123.416C192.667 123.436 192.144 123.439 191.612 123.426C191.445 123.424 191.281 123.485 191.155 123.598C191.029 123.712 190.948 123.87 190.929 124.041C190.813 125.262 190.775 126.18 190.131 127.244C189.105 128.951 188.015 130.535 186.86 132ZM166.686 112.658C166.459 112.301 166.156 111.998 165.794 111.766C165.432 111.535 165.018 111.38 164.577 111.312C164.136 111.242 163.675 111.26 163.221 111.362C162.768 111.466 162.33 111.653 161.933 111.913C161.535 112.173 161.187 112.5 160.908 112.877C160.628 113.254 160.422 113.673 160.302 114.11C160.182 114.546 160.149 114.992 160.207 115.422C160.265 115.853 160.411 116.258 160.639 116.616C160.866 116.974 161.169 117.277 161.531 117.508C161.892 117.739 162.306 117.894 162.747 117.963C163.188 118.033 163.65 118.016 164.103 117.912C164.558 117.81 164.995 117.623 165.392 117.363C165.789 117.103 166.138 116.775 166.418 116.399C166.698 116.021 166.903 115.603 167.024 115.166C167.144 114.729 167.176 114.282 167.117 113.852C167.06 113.423 166.913 113.017 166.686 112.658Z" fill="#010100"/>
<path d="M100.799 126.702L97.972 118.498C97.9507 118.434 97.9129 118.375 97.8633 118.327C97.8148 118.28 97.7546 118.244 97.6884 118.224C97.6222 118.205 97.5525 118.202 97.4851 118.216C97.4178 118.229 97.354 118.258 97.3008 118.301C96.9888 118.545 97.8018 122.449 97.7735 123.296C96.5882 123.484 95.8886 123.952 95.6747 124.698C92.9706 134.087 80.6335 132.346 78.5159 123.691C77.0883 117.84 81.0211 114.914 84.7742 111.471C85.146 111.132 85.0798 110.947 84.5757 110.916C82.165 110.765 78.9791 112.713 76.6062 113.399C69.6545 117.213 67.1177 123.03 68.9959 130.85C67.351 130.468 66.3709 129.038 66.0558 126.561C66.0359 126.405 65.9778 126.257 65.8871 126.131C65.7962 126.004 65.6754 125.903 65.5358 125.836C63.8246 125.027 61.6882 123.522 62.038 121.396C62.0883 121.057 62.2617 120.803 62.5579 120.634C63.434 120.126 64.1997 120.242 64.8552 120.982C65.0884 121.239 65.268 121.205 65.3941 120.878C72.6545 102.195 103.786 100.718 100.799 126.702ZM94.7668 115.394C94.7668 114.96 94.6807 114.528 94.5135 114.127C94.3463 113.725 94.1012 113.361 93.7921 113.052C93.4831 112.746 93.1163 112.501 92.7125 112.335C92.3089 112.168 91.8761 112.082 91.4391 112.082C91.0021 112.082 90.5694 112.168 90.1656 112.335C89.7619 112.501 89.395 112.746 89.0861 113.052C88.7771 113.361 88.5319 113.725 88.3646 114.127C88.1974 114.528 88.1114 114.96 88.1114 115.394C88.1114 116.272 88.462 117.115 89.0861 117.736C89.7101 118.357 90.5565 118.705 91.4391 118.705C92.3216 118.705 93.1681 118.357 93.7921 117.736C94.4162 117.115 94.7668 116.272 94.7668 115.394Z" fill="#010100"/>
<path d="M96.9712 123.381C97.8591 138.8 77.9731 142.317 72.8795 127.734C71.1881 122.896 71.9363 118.148 75.1238 113.49C77.573 112.804 80.8614 110.858 83.3497 111.008C83.8702 111.04 83.9385 111.225 83.5546 111.563C79.6807 115.004 75.6215 117.928 77.0949 123.776C79.2807 132.426 92.0147 134.165 94.8049 124.782C95.0269 124.037 95.749 123.569 96.9712 123.381Z" fill="#6D3521"/>
<path d="M165.489 117.332C166.927 116.197 167.426 114.008 166.603 112.444C165.781 110.88 163.948 110.532 162.51 111.669C161.073 112.804 160.574 114.992 161.396 116.556C162.219 118.12 164.051 118.468 165.489 117.332Z" fill="#FEFDFE"/>
<path d="M91 119C92.6569 119 94 117.433 94 115.5C94 113.567 92.6569 112 91 112C89.3432 112 88 113.567 88 115.5C88 117.433 89.3432 119 91 119Z" fill="#FEFDFE"/>
<path d="M181.109 116.912C183.081 123.855 181.78 129.516 177.203 133.896C174.804 136.191 170.537 137.655 167.615 136.708C160.922 134.527 158.129 129.681 159.235 122.172L160.309 121.933C160.451 121.9 160.6 121.93 160.721 122.015C160.843 122.099 160.928 122.23 160.958 122.382C164.602 139.5 184.437 127.212 174.768 113.278C174.678 113.147 174.627 112.991 174.622 112.83C174.618 112.667 174.659 112.508 174.741 112.372C174.822 112.236 174.942 112.129 175.081 112.065C175.221 112.001 175.376 111.983 175.526 112.016C176.202 112.159 179.585 116.815 180.288 117.676C180.492 117.925 180.7 117.928 180.911 117.687C181.073 117.507 181.139 117.249 181.109 116.912Z" fill="#6D3521"/>
<path d="M76.361 113C73.2158 117.843 72.4776 122.779 74.1465 127.81C79.1725 142.972 98.7951 139.316 97.919 123.284C97.9479 122.404 97.1198 118.347 97.4376 118.093C97.4917 118.048 97.5567 118.017 97.6253 118.004C97.6939 117.99 97.7649 117.993 97.8323 118.014C97.8997 118.033 97.9611 118.07 98.0104 118.12C98.061 118.169 98.0995 118.231 98.1212 118.298L101 126.823C100.365 138.543 88.8681 144.79 78.5851 140.792C74.0406 139.019 70.7156 135.8 68.6103 131.133C66.6975 123.006 69.281 116.963 76.361 113Z" fill="#FEFDFE"/>
<path d="M187.171 131.733C179.042 145.894 158.129 146.115 155 127.942L158.014 116.909C158.045 116.797 158.116 116.701 158.212 116.64C158.308 116.58 158.422 116.558 158.531 116.581C158.64 116.605 158.735 116.67 158.797 116.764C158.861 116.859 158.886 116.976 158.868 117.09L158.292 121.656C157.115 129.555 160.087 134.65 167.208 136.943C170.318 137.939 174.857 136.4 177.41 133.986C182.28 129.38 183.664 123.426 181.566 116.124L180.222 113.439C179.992 112.976 180.088 112.88 180.51 113.147C187.165 117.365 189.385 123.561 187.171 131.733Z" fill="#FEFDFE"/>
<path d="M39.5754 124.785C35.1394 122.94 30.4613 126.025 28.1852 129.943C28.1734 129.969 28.1527 129.988 28.1279 129.996C28.1032 130.004 28.0763 130 28.0532 129.986C28.03 129.97 28.0125 129.945 28.0046 129.915C27.9967 129.887 27.999 129.854 28.0109 129.828C30.4807 124.597 34.5099 123.607 39.3332 123.003C39.5335 122.982 39.6594 123.076 39.711 123.284L39.9725 124.41C40.0629 124.806 39.9306 124.931 39.5754 124.785Z" fill="#7E442B"/>
<path d="M69.4199 156.998C75.2188 157.083 79.9554 154.465 79.9997 151.152C80.0439 147.841 75.3789 145.087 69.5801 145.002C63.7812 144.917 59.0445 147.533 59.0003 150.846C58.9561 154.159 63.6211 156.913 69.4199 156.998Z" fill="#C15551"/>
<path d="M183.165 157.963C188.961 158.327 193.81 155.952 193.995 152.659C194.18 149.364 189.632 146.4 183.836 146.037C178.04 145.673 173.191 148.048 173.005 151.343C172.82 154.636 177.369 157.601 183.165 157.963Z" fill="#C15551"/>
<path d="M103.034 157C117.778 160.011 132.568 160.286 147.402 157.828C148.606 157.633 149.55 157.643 150.235 157.859C150.438 157.925 150.62 158.057 150.756 158.238C150.892 158.419 150.975 158.64 150.995 158.873C151.015 159.106 150.973 159.341 150.87 159.548C150.768 159.753 150.614 159.921 150.425 160.028C143.853 163.71 137.219 165.683 130.522 165.949C122.595 166.253 109.022 165.393 103.291 158.205C103.031 157.87 102.945 157.468 103.034 157Z" fill="#FEFDFE"/>
<path d="M128.011 185.976C119.084 186.303 111.748 183.334 106 177.067C116.007 164.916 134.586 167.631 144.555 177.659C144.712 177.818 144.833 178.007 144.908 178.213C144.985 178.419 145.013 178.637 144.994 178.856C144.976 179.075 144.909 179.286 144.798 179.479C144.688 179.671 144.537 179.84 144.354 179.973C139.639 183.38 134.191 185.381 128.011 185.976Z" fill="#D56860"/>
<path d="M147.993 197L157 200.746L156.255 202.451C154.631 203.002 154.994 200.471 152.855 200.113C152.523 200.066 152.339 200.219 152.301 200.573L152.11 202.277C152.064 202.659 151.877 202.924 151.546 203.074C136.933 209.76 120.772 210.29 107.095 200.603C106.132 199.917 105.101 199.27 104 198.664L106.951 197.5C113.866 199.358 120.921 200.185 128.117 199.981C134.917 199.974 141.542 198.98 147.993 197Z" fill="#7E442B"/>
<path d="M103.693 199C104.796 199.567 105.828 200.17 106.79 200.813C120.481 209.868 136.658 209.372 151.287 203.122C151.618 202.982 151.806 202.734 151.851 202.378L152.042 200.784C152.08 200.454 152.265 200.311 152.596 200.355C154.738 200.689 154.375 203.055 156 202.54C150.072 217.205 134.584 222.109 119.936 219.199C109.668 217.165 102.023 211.146 97 201.147L103.693 199Z" fill="#894B37"/>
<path d="M157.234 200C171.927 202.81 185.849 208.355 199 216.638C158.767 250.024 95.7606 248.567 56 215.516C68.823 207.64 82.4847 202.536 96.9851 200.207C102.05 210.525 109.76 216.733 120.115 218.834C134.885 221.837 150.504 216.776 156.482 201.644L157.234 200Z" fill="#FFA61F"/>
<path d="M56.3933 216C96.0433 248.202 158.875 249.621 198.996 217.094C202.336 217.727 205.599 219.121 208.784 221.276C209.047 221.456 209.07 221.659 208.851 221.89C164.884 268.058 93.6402 267.396 51.211 219.683C51.1252 219.588 51.0631 219.472 51.0292 219.349C50.9954 219.224 50.9909 219.094 51.016 218.968C51.0412 218.841 51.0953 218.722 51.1741 218.62C51.253 218.518 51.3544 218.435 51.4706 218.379L56.3933 216Z" fill="#D1DEDE"/>
</g>
<defs>
<clipPath id="clip0_2_615">
<rect width="256" height="256" fill="white"/>
</clipPath>
</defs>
</svg>
