<svg width="256" height="256" viewBox="0 0 256 256" fill="none" xmlns="http://www.w3.org/2000/svg">
<g clip-path="url(#clip0_2_615)">
<path d="M33 59C29.4268 68.9171 27.4677 79.3926 27.1227 90.4264C26.6915 104.149 27.3969 118.34 29.2389 133" stroke="#978D91" stroke-width="2"/>
<path d="M29 133V138" stroke="#D1B1A3" stroke-width="2"/>
<path d="M29 138C29.3903 142.076 30.3902 146.076 32 150" stroke="#F6D1BF" stroke-width="2"/>
<path d="M32 150C36.7207 174.368 45.5135 198.29 59 219" stroke="#978D91" stroke-width="2"/>
<path d="M59 219H60" stroke="#A0CAC5" stroke-width="2"/>
<path d="M59.1215 217.807L53.2444 221.312C52.9566 221.479 52.923 221.689 53.1434 221.943C92.502 267.472 164.534 267.239 203.847 221.923C204.085 221.652 204.045 221.426 203.727 221.247L196.298 217" stroke="#E8EEEE" stroke-width="2"/>
<path d="M197 217C200.842 211.06 204.175 205.061 207 199" stroke="#978D91" stroke-width="2"/>
<path d="M207 199C214.28 183.941 219.613 168.274 223 152" stroke="#91888C" stroke-width="2"/>
<path d="M223 152C223.438 150.822 223.917 149.688 224.437 148.6C227.286 142.613 227.76 136.414 225.859 130" stroke="#EDC8B7" stroke-width="2"/>
<path d="M225.631 130C231.092 93.7106 228.494 56.4693 203 28" stroke="#978D91" stroke-width="2"/>
<path d="M203 28.0098C185.771 8.89025 151.606 -9.68009 126.014 5.69604C125.887 5.77223 125.744 5.81616 125.598 5.82417C125.45 5.83207 125.304 5.80381 125.172 5.7418C109.683 -1.69915 93.9016 -0.701534 78.3762 6.62044C56.5308 16.917 40.6482 36.2836 33 59" stroke="#A69B9D" stroke-width="2"/>
<path d="M202.669 28C201.937 28.5796 201.88 29.1806 202.495 29.8029C206.561 33.9334 210.013 38.6556 212.853 43.9696C212.951 44.1546 213.001 44.3611 213 44.5706C212.998 44.7799 212.943 44.9854 212.841 45.1683C212.739 45.3512 212.593 45.5057 212.416 45.6177C212.24 45.7296 212.038 45.7954 211.829 45.8091C198.537 46.6236 184.321 45.1594 170.892 44.3449C164.639 43.9605 157.646 38.8173 151.805 37.0052C130.755 30.5015 110.464 32.6826 90.9307 43.5487C87.5757 45.4156 81.1491 51.9133 75.463 53.5057C61.6895 57.3433 47.5352 59.1705 33 58.9875" stroke="#3E2A30" stroke-width="2"/>
<path d="M226 129.42C223.195 123.777 219.001 121.352 213.421 122.147C209.213 122.753 207.774 127.483 206 132" stroke="#85574A" stroke-width="2"/>
<path d="M206 132C200.579 88.4675 176.815 45.6345 127.001 46.0024C81.1934 46.3427 58.6779 85.2207 51 124.532" stroke="#7B4E43" stroke-width="2"/>
<path d="M51 124.327L49.7728 131.778C49.7011 132.242 49.6027 132.249 49.4773 131.798C48.483 128.102 44.7834 120.313 40.43 121.049C34.1596 122.109 30.3497 126.093 29 133" stroke="#8F6152" stroke-width="2"/>
<path d="M223 152C217.392 156.077 211.095 157.092 204.106 155.045C203.519 154.866 203.098 155.056 202.844 155.615C197.162 168.075 188.893 178.347 178.036 186.43C168.251 193.715 156.06 197.974 144 201" stroke="#7F5245" stroke-width="2"/>
<path d="M144 201C138.969 201.596 133.635 201.929 128 202" stroke="#D18969" stroke-width="2"/>
<path d="M128 202C126.692 196.669 126.667 191.336 127.923 186" stroke="#E59C77" stroke-width="2"/>
<path d="M128 185.994C134.507 186.129 140.508 184.131 146 180" stroke="#D87D68" stroke-width="2"/>
<path d="M146 180C149.601 176.561 151.892 172.13 152.874 166.707C153.265 164.549 152.883 161.254 149.764 162.151" stroke="#C26B59" stroke-width="2"/>
<path d="M150 161.847C146.514 161.672 142.249 161.871 137.205 162.446C127.947 163.517 118.211 163.035 108 161" stroke="#EDC8B7" stroke-width="2"/>
<path d="M108 160.953C109.058 160.273 109.912 159.956 110.565 160.006C116.753 160.484 122.943 160.815 129.137 160.999C129.855 161.018 130.415 160.65 131.021 160.328C131.239 160.205 131.314 160.024 131.245 159.785L131.04 159.058C130.922 158.641 130.969 158.242 131.18 157.863C131.59 157.12 131.808 156.317 131.833 155.452C131.846 155.17 131.709 155.029 131.422 155.029C126.376 154.974 121.899 155.232 121.115 148.875C121.096 148.728 121.128 148.58 121.205 148.453C121.282 148.327 121.398 148.228 121.539 148.174C121.679 148.12 121.834 148.112 121.98 148.152C122.126 148.192 122.255 148.279 122.346 148.397C125.133 152.07 128.475 152.824 132.374 150.66C139.118 146.916 131.086 143.108 128.158 141.709C127.775 141.528 127.452 141.243 127.226 140.888C127 140.533 126.88 140.123 126.88 139.704L126.889 58" stroke="#E59C77" stroke-width="2"/>
<path d="M206 131.611C205.963 132.711 205.578 133.782 204.845 134.827C204.671 135.078 204.544 135.056 204.462 134.763C203.624 131.785 203.354 128.725 202.375 125.922C199.928 118.881 198.172 114.083 197.11 111.53C185.182 82.8098 159.948 57.1949 126 58.0194" stroke="#D18969" stroke-width="2"/>
<path d="M126 58C90.1478 60.5226 65.1171 92.5306 52.7715 123.589C52.6553 123.868 52.4472 124.006 52.1474 124H51" stroke="#DB9271" stroke-width="2"/>
<path d="M108 161L107 162" stroke="#F6D1BF" stroke-width="2"/>
<path d="M107.216 162.01C98.9094 161.559 109.094 177.033 111 179" stroke="#CB7461" stroke-width="2"/>
<path d="M111 179C115.558 183.422 121.224 185.755 128 186" stroke="#E28770" stroke-width="2"/>
<path d="M128 201.989C122.707 202.067 117.374 201.738 112 201" stroke="#DB9271" stroke-width="2"/>
<path d="M112 201C90.0159 196.357 70.8728 184.741 58.9608 165.32C57.528 162.98 55.7612 159.787 53.6604 155.742C53.5147 155.462 53.2932 155.364 52.9957 155.449C47.1125 157.131 39.8541 157.369 35 153" stroke="#895C4D" stroke-width="2"/>
<path d="M35 153L32 150" stroke="#8F6152" stroke-width="2"/>
<path d="M29 138C30.2827 136.331 30.3314 134.664 29.1461 133" stroke="#C98564" stroke-width="2"/>
<path d="M146 180C141.723 174.043 136.233 170.743 129.533 170.102C122.751 169.455 116.632 171.877 111.174 177.366C110.965 177.575 110.945 177.804 111.11 178.05C111.44 178.536 111.486 178.946 111.248 179.279" stroke="#BF5651" stroke-width="2"/>
<path d="M150 162.231C138.17 168.962 118.457 170.914 107 162" stroke="#D3A0A0" stroke-width="2"/>
<path d="M153 202.544C152.456 202.737 152.223 203.19 152.302 203.902C152.346 204.305 152.19 204.543 151.834 204.617L149.906 205.009C149.589 205.076 149.286 205.191 148.998 205.352C139.074 211.018 128.159 211.028 117.74 207.928C113.885 206.781 110.305 204.804 107 202" stroke="#D18969" stroke-width="2"/>
<path d="M207.422 198.941C206.224 197.427 206.326 195.987 207.727 194.617C207.939 194.41 208.084 194.145 208.144 193.857C208.895 190.021 211.193 186.991 212.184 183.718C214.084 177.452 216.511 171.008 217.994 164.648C218.229 163.654 218.726 162.431 219.486 160.981C220.128 159.749 220.632 157.507 220.996 154.256C221.021 154.018 220.925 153.946 220.709 154.04C217.701 155.378 215.462 157.458 213.991 160.277C204.299 178.868 195.673 193.942 179.031 207.195C178.308 207.771 177.966 208.706 178.003 210" stroke="#29171F" stroke-width="2"/>
<path d="M178 210C170.571 207.647 162.904 205.98 155 205" stroke="#325553" stroke-width="2"/>
<path d="M155 205L153 204" stroke="#7F5245" stroke-width="2"/>
<path d="M153 204L144 201" stroke="#75493E" stroke-width="2"/>
<path d="M34.2354 153C33.8176 153.715 33.9559 154.284 34.6502 154.709C38.3833 157.01 41.5819 162.221 43.5821 166.083C50.2463 178.954 58.5143 191.049 68.8931 201.195C71.8858 204.114 74.9214 207.049 78 210" stroke="#29171F" stroke-width="2"/>
<path d="M78 210L59 219" stroke="#385A58" stroke-width="2"/>
<path d="M112 201L107 202" stroke="#75493E" stroke-width="2"/>
<path d="M107 202L101 205" stroke="#7F5245" stroke-width="2"/>
<path d="M101 205C93.2648 206.036 85.5983 207.703 78 210" stroke="#325553" stroke-width="2"/>
<path d="M155 205.034C152.395 212.612 147.315 217.87 139.76 220.81C128.483 225.201 113.206 223.135 105.673 213.284C104.228 211.389 102.67 208.628 101 205" stroke="#8E957E" stroke-width="2"/>
<path d="M197 217C194.885 220.125 191.988 222.837 188.308 225.136C149.968 249.052 97.2065 247.986 61.508 219.017C60.9536 218.569 60.4509 218.073 60 217.528" stroke="#89BBB5" stroke-width="2"/>
<path d="M197 217L178 210" stroke="#385A58" stroke-width="2"/>
<path d="M58.0558 26.981C54.0559 33.5985 62.4004 35.2851 66.7723 34.9626C68.0058 34.8766 70.5062 34.4403 74.2733 33.6538C81.085 32.2437 122.817 19.3221 118.717 8.4835C118.603 8.18858 118.409 7.96438 118.137 7.81081C115.906 6.54504 113.65 5.94286 111.37 6.00426C95.6007 6.40979 80.8976 10.7231 67.2622 18.9442C64.1602 20.8152 59.6794 24.3083 58.0558 26.981Z" stroke="#5C4545" stroke-width="2"/>
<path d="M59.974 40.4378C59.8977 39.8636 59.6547 39.3225 59.2588 38.8454C58.863 38.3682 58.322 37.9643 57.6668 37.6569C57.0118 37.3494 56.2553 37.1444 55.4406 37.0535C54.6259 36.9627 53.769 36.9877 52.9188 37.1271C52.0686 37.2666 51.2418 37.5178 50.4855 37.8664C49.7293 38.2151 49.0584 38.6543 48.5112 39.1589C47.9641 39.6637 47.5513 40.2239 47.2964 40.8079C47.0416 41.3918 46.9497 41.9878 47.026 42.5621C47.1023 43.1363 47.3453 43.6775 47.7412 44.1547C48.1371 44.6319 48.678 45.0357 49.3332 45.3431C49.9883 45.6505 50.7448 45.8555 51.5595 45.9464C52.3742 46.0373 53.231 46.0124 54.0812 45.8729C54.9314 45.7334 55.7582 45.4823 56.5144 45.1335C57.2707 44.7849 57.9416 44.3458 58.4887 43.841C59.036 43.3364 59.4488 42.776 59.7036 42.1921C59.9585 41.6083 60.0503 41.0121 59.974 40.4378Z" stroke="#5C4545" stroke-width="2"/>
<path d="M163.971 93.3489C153.88 90.8132 153.898 102.902 161.06 103.72C168.432 104.562 175.81 105.649 183.196 106.983C183.575 107.055 183.813 106.901 183.91 106.519C185.393 100.611 168.104 94.3851 163.971 93.3489Z" stroke="#7F5245" stroke-width="2"/>
<path d="M152 136C156.604 151.321 173.902 151.47 182 139.302" stroke="#EDC8B7" stroke-width="2"/>
<path d="M182.344 139L184.835 133.842C184.993 133.515 185.255 133.384 185.623 133.447C186.191 133.547 186.589 133.395 186.819 132.991C186.905 132.843 186.953 132.675 186.957 132.504C186.963 132.333 186.925 132.163 186.846 132.009L185.959 130.281C185.699 129.772 185.859 129.471 186.439 129.377C190.081 128.772 189.7 126.017 186.176 126.763C185.464 126.915 184.926 126.682 184.563 126.061C179.418 117.14 163.818 111.517 155.845 120.693C152.18 124.91 151.135 129.971 152.711 135.877" stroke="#794D3B" stroke-width="2"/>
<path d="M182.16 139C184.732 129.602 181.396 123.384 172.151 120.344C171.903 120.002 171.61 119.915 171.275 120.083C170.891 120.281 170.909 120.427 171.331 120.524C173.593 121.033 175.161 122.293 176.037 124.302" stroke="#8A8383" stroke-width="2"/>
<path d="M177 124.509C176.131 125.362 175.46 125.35 174.987 124.472C174.894 124.285 174.73 124.138 174.527 124.061C174.325 123.983 174.098 123.98 173.894 124.053C173.689 124.126 173.521 124.27 173.424 124.454C173.327 124.639 173.309 124.85 173.372 125.048C177.632 140.396 156.564 142.434 157.44 129.39C157.448 129.244 157.41 129.098 157.33 128.973C157.251 128.848 157.133 128.748 156.992 128.686C156.661 128.534 156.331 128.521 156 128.649" stroke="#502A1F" stroke-width="2"/>
<path d="M156 128.198L155.895 126.458C155.889 126.352 155.852 126.252 155.788 126.172C155.724 126.092 155.638 126.035 155.542 126.012C155.445 125.989 155.344 125.999 155.252 126.042C155.16 126.084 155.084 126.158 155.033 126.25C153.292 129.566 152.281 132.817 152 136" stroke="#8A8383" stroke-width="2"/>
<path d="M155.999 128.287C153.237 134.76 156.335 142.956 163.652 143.874C175.487 145.36 180.619 133.398 176.705 124" stroke="#C4A49B" stroke-width="2"/>
<path d="M211.128 130.782C216.865 129.43 221.376 135.399 222.37 139.753C222.394 139.89 222.496 139.969 222.676 139.992C222.955 140.032 223.053 139.927 222.973 139.677C221.432 134.77 216.8 128.698 210.283 130.246C210.146 130.275 210.057 130.348 210.014 130.467C209.951 130.637 210.1 130.751 210.46 130.807C210.679 130.847 210.909 130.838 211.128 130.782Z" stroke="#D18969" stroke-width="2"/>
<path d="M192.998 156.03C192.966 155.179 192.583 154.349 191.875 153.585C191.166 152.822 190.144 152.142 188.867 151.584C187.591 151.025 186.084 150.599 184.434 150.331C182.784 150.062 181.022 149.956 179.249 150.017C175.67 150.142 172.263 150.944 169.779 152.248C167.294 153.552 165.936 155.251 166.002 156.969C166.036 157.822 166.417 158.652 167.126 159.415C167.835 160.178 168.857 160.858 170.133 161.416C171.41 161.975 172.916 162.4 174.567 162.67C176.216 162.938 177.978 163.045 179.751 162.983C183.33 162.859 186.738 162.057 189.221 160.752C191.706 159.449 193.064 157.75 192.998 156.03Z" stroke="#D87D68" stroke-width="2"/>
<path d="M98.7255 100.179C99.7702 96.7772 97.7879 92.2205 93.5467 93.1137C86.7157 94.5393 74.9913 98.7171 71.1784 105.087C71.055 105.295 70.9933 105.534 71.0006 105.775C71.0078 106.017 71.0836 106.252 71.2191 106.452C71.3546 106.651 71.5439 106.807 71.7647 106.901C71.9854 106.995 72.2281 107.022 72.4642 106.982C78.3041 105.917 84.3136 105.051 90.4928 104.383C94.6004 103.941 97.5557 104.031 98.7255 100.179Z" stroke="#8F6152" stroke-width="2"/>
<path d="M72 138.082C79.4167 151.324 98.1944 151.964 103 136" stroke="#F6D1BF" stroke-width="2"/>
<path d="M103.554 135.889C107.901 111.021 79.2677 111.231 69.0629 126.823C68.9895 126.935 68.8917 127.028 68.7763 127.098C68.6609 127.167 68.5312 127.211 68.3963 127.225L66.4624 127.435C66.3658 127.446 66.2744 127.484 66.1983 127.542C66.1223 127.602 66.0644 127.681 66.0313 127.77C65.9983 127.859 65.9912 127.955 66.0109 128.047C66.0306 128.14 66.0765 128.226 66.1432 128.294L68.462 130.643C68.7061 130.887 68.7906 131.176 68.7155 131.511C68.5653 132.242 68.1178 132.745 67.373 133.019C67.2989 133.045 67.2322 133.089 67.1787 133.146C67.1252 133.202 67.0862 133.27 67.0651 133.345C67.044 133.419 67.0413 133.497 67.0573 133.572C67.0733 133.647 67.1075 133.718 67.1571 133.778C67.7829 134.527 68.606 134.792 69.6262 134.573C69.7747 134.542 69.9299 134.559 70.0686 134.622C70.2074 134.684 70.3222 134.789 70.396 134.92L72.1234 138" stroke="#785340" stroke-width="2"/>
<path d="M103 136C102.599 132.894 101.545 129.965 99.8369 127.214C99.6529 126.923 99.4773 126.929 99.3113 127.233C99.0759 127.67 98.9744 128.172 99.0055 128.735" stroke="#807F7F" stroke-width="2"/>
<path d="M99 128.226H98.3856C98.0737 128.22 97.8812 128.377 97.8078 128.699C96.6798 133.718 95.4143 138.621 89.3158 137.936C84.0609 137.357 81.5664 132.27 82.0617 127" stroke="#45261C" stroke-width="2"/>
<path d="M82 127L83.344 124.727C83.4765 124.496 83.7035 124.344 84.0252 124.271C86.2397 123.77 88.5647 123.963 91 124.85" stroke="#200C07" stroke-width="2"/>
<path d="M91 124.519C98.5155 130.309 99.0357 117.001 92.193 120.641" stroke="#807F7F" stroke-width="2"/>
<path d="M91.6873 121C92.1042 120.468 92.1042 119.969 91.6873 119.502C91.4916 119.277 91.2326 119.148 90.9104 119.115C87.3417 118.742 84.0381 119.277 81 120.72" stroke="#200C07" stroke-width="2"/>
<path d="M81 121C73.8401 124.152 70.9522 129.819 72.3364 138" stroke="#807F7F" stroke-width="2"/>
<path d="M92 121C91.2911 121.975 90.9591 123.309 91.004 125" stroke="#9E8A86" stroke-width="2"/>
<path d="M82 127C81.7363 125.365 80.7363 124.032 79 123" stroke="#643123" stroke-width="2"/>
<path d="M79 123L81 121" stroke="#9E8A86" stroke-width="2"/>
<path d="M79.2997 123C76.2157 128.119 76.2335 133.3 79.3531 138.545C86.1674 149.992 102.927 141.845 98.1589 128.672" stroke="#C4A49B" stroke-width="2"/>
<path d="M47.8239 130.515C45.5717 129.815 43.1646 129.828 40.6024 130.555C38.5121 131.144 36.9917 131.898 36.0409 132.814C36.0273 132.825 36.0167 132.838 36.0096 132.851C36.0026 132.864 35.9993 132.879 36.0001 132.894C36.0007 132.909 36.0054 132.923 36.0136 132.936C36.022 132.949 36.0336 132.961 36.0483 132.971C36.0629 132.981 36.08 132.988 36.0987 132.994C36.1174 132.999 36.1374 133.001 36.1574 133C36.1774 133 36.197 132.996 36.2152 132.99C36.2334 132.984 36.2498 132.975 36.2635 132.964C39.0954 130.748 42.4836 129.994 46.4281 130.705C46.6172 130.739 46.8488 130.761 47.0819 130.768C47.315 130.775 47.5348 130.766 47.7019 130.744C47.8692 130.721 47.9731 130.685 47.9955 130.644C48.0178 130.602 47.957 130.557 47.8239 130.515Z" stroke="#DB9271" stroke-width="2"/>
<path d="M86.9989 156.325C87.0209 155.407 86.7064 154.489 86.0734 153.624C85.4405 152.76 84.5014 151.964 83.3098 151.286C82.1182 150.606 80.6976 150.055 79.1289 149.664C77.5603 149.273 75.8742 149.05 74.1672 149.007C72.4601 148.965 70.7654 149.103 69.18 149.416C67.5944 149.728 66.1491 150.207 64.9265 150.827C63.7039 151.446 62.728 152.193 62.0545 153.024C61.381 153.856 61.0231 154.757 61.0011 155.675C60.9791 156.593 61.2936 157.511 61.9266 158.376C62.5595 159.24 63.4986 160.036 64.6902 160.714C65.8816 161.394 67.3024 161.945 68.8711 162.336C70.4397 162.727 72.1258 162.95 73.8328 162.993C75.5399 163.035 77.2345 162.897 78.82 162.584C80.4054 162.272 81.8508 161.793 83.0734 161.173C84.2959 160.554 85.2719 159.807 85.9454 158.976C86.619 158.144 86.9769 157.243 86.9989 156.325Z" stroke="#E28770" stroke-width="2"/>
<path d="M163.552 121.235C163.326 120.916 163.024 120.647 162.663 120.44C162.302 120.235 161.887 120.098 161.445 120.037C161.002 119.976 160.54 119.991 160.083 120.083C159.628 120.175 159.186 120.342 158.785 120.574C158.384 120.806 158.032 121.098 157.748 121.434C157.465 121.771 157.254 122.143 157.131 122.533C157.006 122.922 156.97 123.32 157.025 123.703C157.08 124.086 157.224 124.447 157.45 124.765C157.674 125.084 157.976 125.353 158.337 125.559C158.699 125.764 159.113 125.901 159.555 125.964C159.998 126.025 160.46 126.009 160.917 125.916C161.374 125.824 161.815 125.657 162.215 125.426C162.616 125.194 162.969 124.901 163.252 124.566C163.536 124.23 163.747 123.856 163.87 123.467C163.994 123.077 164.03 122.681 163.975 122.298C163.92 121.915 163.776 121.554 163.552 121.235Z" stroke="#8A8383" stroke-width="2"/>
<path d="M202.669 28.0038C201.937 28.5834 201.88 29.1842 202.495 29.8065C206.561 33.9364 210.013 38.6581 212.853 43.9715C212.951 44.1564 213.001 44.3629 213 44.5723C212.998 44.7817 212.943 44.9871 212.841 45.17C212.739 45.3529 212.593 45.5074 212.416 45.6193C212.24 45.7312 212.038 45.797 211.829 45.8107C198.537 46.6251 184.321 45.1611 170.892 44.3467C164.639 43.9623 157.646 38.8197 151.805 37.0079C130.755 30.505 110.464 32.6858 90.9307 43.5506C87.5757 45.4173 81.1491 51.9141 75.463 53.5063C61.6895 57.3435 47.5352 59.1705 33 58.9875C40.6333 36.2759 56.4849 16.9134 78.2878 6.61904C93.7829 -0.701385 109.534 -1.69879 124.992 5.74059C125.125 5.80258 125.27 5.83083 125.417 5.82294C125.563 5.81493 125.706 5.77101 125.833 5.69483C151.375 -9.67804 185.473 8.88837 202.669 28.0038ZM57.8013 27.5005C53.7699 34.0706 62.1802 35.7452 66.5865 35.4249C67.8297 35.3395 70.3497 34.9064 74.1466 34.1255C81.012 32.7255 123.072 19.8964 118.94 9.13543C118.825 8.84261 118.629 8.62003 118.355 8.46744C116.106 7.21085 113.834 6.61297 111.536 6.67394C95.6416 7.07656 80.8231 11.359 67.0801 19.5213C63.9537 21.3788 59.4377 24.8469 57.8013 27.5005ZM60.5611 40.1256C60.4806 39.5799 60.2243 39.0658 59.8069 38.6124C59.3893 38.159 58.8189 37.7753 58.1279 37.4832C57.4369 37.1911 56.6391 36.9962 55.7799 36.9098C54.9207 36.8234 54.017 36.8472 53.1203 36.9798C52.2237 37.1123 51.3517 37.351 50.554 37.6822C49.7564 38.0135 49.0489 38.4308 48.4718 38.9104C47.8946 39.3899 47.4592 39.9224 47.1905 40.4771C46.9217 41.032 46.8248 41.5984 46.9054 42.144C46.9858 42.6897 47.2421 43.2039 47.6597 43.6573C48.0771 44.1107 48.6477 44.4944 49.3387 44.7866C50.0295 45.0787 50.8274 45.2735 51.6866 45.3598C52.5458 45.4462 53.4495 45.4224 54.3462 45.29C55.2429 45.1574 56.1149 44.9187 56.9125 44.5874C57.7101 44.2562 58.4177 43.8388 58.9948 43.3593C59.5718 42.8797 60.0072 42.3474 60.276 41.7925C60.5447 41.2377 60.6416 40.6712 60.5611 40.1256Z" fill="#4D383B"/>
<path d="M66.7723 34.9626C62.4004 35.2851 54.0559 33.5985 58.0558 26.981C59.6794 24.3083 64.1602 20.8152 67.2622 18.9442C80.8976 10.7231 95.6007 6.40979 111.37 6.00426C113.65 5.94286 115.906 6.54504 118.137 7.81081C118.409 7.96438 118.603 8.18858 118.717 8.4835C122.817 19.3221 81.085 32.2437 74.2733 33.6538C70.5062 34.4403 68.0058 34.8766 66.7723 34.9626Z" fill="#6A514E"/>
<path d="M202.965 28C228.495 56.3063 231.096 93.3342 225.628 129.416C222.788 123.846 218.544 121.453 212.895 122.238C208.635 122.835 207.179 127.504 205.383 131.961C200.015 88.4633 176.482 45.6639 127.153 46.0315C81.791 46.3715 59.4945 85.2191 51.8914 124.499L50.6364 131.392C50.5631 131.82 50.4625 131.827 50.3342 131.41C49.3174 127.991 45.5341 120.786 41.0821 121.466C34.6698 122.446 30.7736 126.131 29.3934 132.522C29.485 132.761 29.4271 132.92 29.2194 133C27.3935 118.362 26.6942 104.194 27.1216 90.4944C27.4636 79.4783 29.4057 69.0196 32.9476 59.1185C47.5127 59.3023 61.6961 57.4674 75.4978 53.6135C81.1956 52.0144 87.6354 45.4892 90.9972 43.6144C110.571 32.7024 130.903 30.5121 151.996 37.0433C157.85 38.863 164.857 44.028 171.123 44.414C184.58 45.2319 198.824 46.7024 212.144 45.8844C212.353 45.8706 212.556 45.8046 212.732 45.6922C212.91 45.5798 213.056 45.4246 213.158 45.2409C213.26 45.0572 213.315 44.8509 213.316 44.6406C213.318 44.4303 213.268 44.2229 213.17 44.0372C210.324 38.7007 206.865 33.9585 202.791 29.8105C202.175 29.1856 202.232 28.5821 202.965 28Z" fill="#2F1C24"/>
<path d="M54.0811 45.8718C57.6564 45.2854 60.2946 42.8526 59.9736 40.4381C59.6525 38.0236 56.4941 36.5416 52.9189 37.1282C49.3436 37.7147 46.7054 40.1474 47.0264 42.5619C47.3474 44.9763 50.5059 46.4583 54.0811 45.8718Z" fill="#6A514E"/>
<path d="M206 131.614C205.963 132.712 205.581 133.784 204.853 134.827C204.681 135.077 204.555 135.056 204.474 134.763C203.641 131.787 203.373 128.729 202.402 125.928C199.972 118.889 198.23 114.094 197.175 111.543C185.335 82.8378 160.284 57.237 126.585 58.0611C90.4531 60.5882 65.2272 92.6533 52.7853 123.767C52.6682 124.047 52.4584 124.184 52.1563 124.179H51C58.6779 85.0445 81.1934 46.3411 127.001 46.0023C176.815 45.6361 200.579 88.2767 206 131.614Z" fill="#C77F62"/>
<path d="M205.352 131.477C207.15 127.042 208.609 122.397 212.876 121.802C218.535 121.023 222.785 123.403 225.63 128.944C227.912 135.517 227.343 141.869 223.923 148.001C223.299 149.117 222.725 150.278 222.198 151.485C216.656 155.54 210.433 156.549 203.526 154.512C202.946 154.336 202.529 154.525 202.278 155.079C196.663 167.468 188.491 177.679 177.761 185.714C168.09 192.956 156.043 197.19 144.124 200.199C139.127 201.272 133.829 201.872 128.232 202C127.45 196.685 127.434 191.365 128.186 186.043C134.542 186.196 140.402 183.939 145.766 179.276C149.4 175.735 151.712 171.171 152.703 165.586C153.098 163.364 152.712 159.972 149.565 160.895C146.115 160.785 141.894 160.911 136.903 161.27C127.74 161.941 118.106 161.639 108 160.365C109.04 159.688 109.881 159.375 110.523 159.423C116.61 159.898 122.699 160.228 128.792 160.411C129.498 160.429 130.049 160.063 130.645 159.743C130.86 159.622 130.933 159.441 130.865 159.203L130.663 158.481C130.548 158.067 130.593 157.671 130.801 157.292C131.205 156.555 131.419 155.756 131.443 154.896C131.456 154.616 131.322 154.476 131.04 154.476C126.076 154.421 121.671 154.677 120.901 148.358C120.882 148.213 120.913 148.065 120.989 147.94C121.065 147.813 121.179 147.716 121.318 147.662C121.456 147.607 121.608 147.6 121.752 147.64C121.895 147.68 122.022 147.765 122.112 147.883C124.853 151.535 128.14 152.284 131.976 150.132C138.609 146.41 130.709 142.624 127.828 141.234C127.452 141.054 127.134 140.771 126.912 140.418C126.689 140.066 126.571 139.658 126.571 139.241L126.58 58.0193C160.007 57.1963 184.854 82.7646 196.598 111.432C197.645 113.981 199.373 118.77 201.783 125.798C202.746 128.597 203.012 131.651 203.838 134.623C203.918 134.916 204.043 134.937 204.214 134.687C204.937 133.644 205.315 132.575 205.352 131.477ZM164.016 93.1986C153.777 90.6472 153.795 102.809 161.062 103.632C168.543 104.48 176.03 105.574 183.523 106.915C183.909 106.988 184.151 106.833 184.248 106.449C185.753 100.505 168.21 94.241 164.016 93.1986ZM152.263 135.483C156.869 150.589 174.174 150.736 182.276 138.738L184.799 133.361C184.958 133.02 185.224 132.883 185.597 132.949C186.173 133.053 186.577 132.895 186.808 132.474C186.897 132.32 186.944 132.145 186.949 131.966C186.954 131.788 186.915 131.611 186.836 131.45L185.937 129.648C185.674 129.118 185.836 128.805 186.423 128.706C190.111 128.075 189.726 125.204 186.157 125.981C185.435 126.14 184.891 125.897 184.524 125.25C179.312 115.95 163.512 110.088 155.437 119.653C151.725 124.05 150.666 129.326 152.263 135.483ZM211.013 129.456C216.684 128.002 221.143 134.422 222.125 139.104C222.15 139.25 222.251 139.336 222.427 139.36C222.703 139.403 222.801 139.29 222.721 139.021C221.198 133.745 216.619 127.216 210.178 128.88C210.044 128.911 209.956 128.99 209.912 129.118C209.851 129.301 209.998 129.423 210.353 129.484C210.57 129.526 210.796 129.517 211.013 129.456ZM193.103 155.125C193.071 154.23 192.687 153.357 191.979 152.554C191.269 151.752 190.246 151.036 188.967 150.45C187.689 149.862 186.18 149.414 184.528 149.132C182.875 148.85 181.111 148.738 179.337 148.802C175.752 148.933 172.341 149.777 169.853 151.148C167.365 152.519 166.005 154.305 166.072 156.113C166.105 157.009 166.487 157.882 167.197 158.685C167.907 159.487 168.93 160.201 170.207 160.789C171.486 161.376 172.995 161.823 174.647 162.107C176.299 162.389 178.063 162.501 179.838 162.436C183.422 162.306 186.835 161.461 189.321 160.091C191.809 158.72 193.169 156.933 193.103 155.125Z" fill="#DB926F"/>
<path d="M126.987 58L126.978 139.221C126.978 139.637 127.096 140.045 127.32 140.398C127.543 140.75 127.862 141.034 128.24 141.214C131.134 142.604 139.068 146.39 132.405 150.112C128.553 152.263 125.251 151.513 122.499 147.862C122.408 147.745 122.281 147.659 122.137 147.619C121.992 147.579 121.84 147.587 121.701 147.641C121.562 147.694 121.447 147.793 121.371 147.918C121.295 148.044 121.264 148.192 121.282 148.338C122.057 154.657 126.48 154.401 131.465 154.455C131.748 154.455 131.884 154.595 131.871 154.876C131.847 155.736 131.631 156.534 131.226 157.272C131.017 157.649 130.971 158.046 131.088 158.461L131.29 159.183C131.358 159.421 131.285 159.6 131.069 159.723C130.47 160.043 129.917 160.408 129.208 160.39C123.089 160.207 116.973 159.878 110.86 159.403C110.215 159.353 109.371 159.668 108.326 160.344L107.598 160.61C99.3223 160.134 109.468 176.466 111.367 178.542C115.987 183.266 121.731 185.759 128.599 186.022C127.844 191.344 127.859 196.663 128.646 201.979C123.387 202.125 118.088 201.512 112.749 200.141C90.5032 195.495 71.1326 183.873 59.0789 164.441C57.629 162.1 55.8412 158.905 53.7156 154.858C53.5681 154.577 53.3438 154.479 53.0428 154.565C47.0897 156.248 39.7451 156.486 34.8333 152.115L31.6448 149.179C30.2256 145.393 29.3441 141.534 29 137.602C29.4853 135.737 29.5037 133.874 29.0553 132.015C30.4437 125.656 34.3633 121.989 40.8141 121.014C45.2927 120.338 49.0987 127.507 50.1216 130.909C50.2506 131.322 50.352 131.317 50.4257 130.89L51.6882 124.032H52.8401C53.1411 124.038 53.3499 123.901 53.4668 123.621C65.8614 92.5475 90.9917 60.5239 126.987 58ZM99.6356 100.147C100.714 96.6995 98.668 92.0811 94.2907 92.9864C87.241 94.4312 75.1412 98.6656 71.2063 105.121C71.079 105.332 71.0153 105.573 71.0228 105.819C71.0303 106.063 71.1085 106.302 71.2483 106.505C71.3882 106.707 71.5835 106.865 71.8114 106.96C72.0391 107.056 72.2898 107.083 72.5333 107.042C78.5601 105.963 84.7621 105.085 91.1391 104.408C95.3782 103.96 98.4284 104.052 99.6356 100.147ZM72.2937 137.255C79.6752 150.688 98.3639 151.337 103.147 135.143C107.413 110.261 79.3066 110.471 69.2895 126.071C69.2175 126.182 69.1214 126.276 69.0082 126.346C68.8951 126.415 68.7676 126.459 68.6352 126.474L66.7369 126.684C66.6421 126.695 66.5523 126.732 66.4777 126.791C66.403 126.85 66.3462 126.929 66.3138 127.018C66.2813 127.107 66.2744 127.203 66.2937 127.295C66.3132 127.388 66.3581 127.474 66.4235 127.544L68.6997 129.894C68.9393 130.137 69.0223 130.426 68.9485 130.762C68.8011 131.494 68.3619 131.997 67.6307 132.271C67.5579 132.297 67.4925 132.341 67.44 132.397C67.3875 132.454 67.3492 132.523 67.3285 132.596C67.3077 132.67 67.3051 132.749 67.3209 132.823C67.3365 132.899 67.3701 132.97 67.4188 133.03C68.0331 133.78 68.8411 134.045 69.8424 133.826C69.9883 133.794 70.1405 133.811 70.2767 133.874C70.413 133.937 70.5256 134.042 70.5981 134.173L72.2937 137.255ZM47.6058 129.272C45.5539 128.46 43.3605 128.476 41.026 129.318C39.1214 130 37.7362 130.872 36.8699 131.933C36.8575 131.945 36.8478 131.959 36.8415 131.975C36.835 131.991 36.8321 132.008 36.8327 132.024C36.8333 132.041 36.8375 132.059 36.845 132.073C36.8526 132.088 36.8633 132.103 36.8766 132.115C36.8899 132.125 36.9056 132.134 36.9227 132.14C36.9397 132.145 36.9579 132.149 36.9761 132.148C36.9943 132.147 37.0122 132.143 37.0288 132.136C37.0453 132.128 37.0602 132.119 37.0726 132.107C39.6529 129.539 42.7401 128.668 46.3341 129.491C46.5063 129.53 46.7173 129.555 46.9297 129.563C47.1423 129.572 47.3423 129.562 47.4947 129.536C47.647 129.51 47.7418 129.468 47.7621 129.42C47.7825 129.371 47.7271 129.319 47.6058 129.272ZM86.6751 155.465C86.6964 154.601 86.3915 153.736 85.7778 152.923C85.1641 152.109 84.2536 151.361 83.0985 150.721C81.9432 150.081 80.5659 149.563 79.045 149.195C77.524 148.827 75.8894 148.617 74.2343 148.577C72.5794 148.537 70.9363 148.667 69.399 148.961C67.8619 149.255 66.4606 149.706 65.2753 150.289C64.09 150.872 63.1438 151.575 62.4908 152.358C61.8377 153.141 61.4908 153.989 61.4695 154.853C61.4482 155.717 61.7531 156.582 62.3668 157.395C62.9804 158.209 63.8909 158.958 65.0461 159.597C66.2013 160.237 67.5788 160.755 69.0997 161.123C70.6205 161.491 72.2551 161.701 73.9102 161.741C75.5653 161.781 77.2082 161.651 78.7455 161.357C80.2826 161.063 81.6839 160.612 82.8692 160.029C84.0546 159.447 85.0007 158.743 85.6538 157.96C86.3068 157.177 86.6539 156.329 86.6751 155.465Z" fill="#EEA57F"/>
<path d="M161.06 103.72C153.898 102.902 153.88 90.8132 163.971 93.3489C168.104 94.3851 185.393 100.611 183.91 106.519C183.813 106.901 183.575 107.055 183.196 106.983C175.81 105.649 168.432 104.562 161.06 103.72Z" fill="#23121A"/>
<path d="M93.5467 93.1137C97.7879 92.2205 99.7702 96.7772 98.7255 100.179C97.5557 104.031 94.6004 103.941 90.4928 104.383C84.3136 105.051 78.3041 105.917 72.4642 106.982C72.2281 107.022 71.9854 106.995 71.7647 106.901C71.5439 106.807 71.3546 106.651 71.2191 106.452C71.0836 106.252 71.0078 106.017 71.0006 105.775C70.9933 105.534 71.055 105.295 71.1784 105.087C74.9913 98.7171 86.7157 94.5393 93.5467 93.1137Z" fill="#2F1C24"/>
<path d="M182.344 139C184.844 129.836 181.601 123.772 172.614 120.807C172.373 120.473 172.089 120.389 171.763 120.552C171.388 120.745 171.406 120.889 171.817 120.982C174.015 121.48 175.54 122.708 176.392 124.666C175.582 125.485 174.957 125.473 174.517 124.631C174.431 124.453 174.278 124.311 174.09 124.237C173.901 124.162 173.69 124.16 173.499 124.23C173.308 124.3 173.152 124.437 173.062 124.614C172.972 124.791 172.954 124.995 173.013 125.184C176.981 139.912 157.358 141.868 158.174 129.351C158.182 129.211 158.146 129.072 158.072 128.952C157.998 128.831 157.888 128.734 157.757 128.675C157.449 128.529 157.141 128.517 156.833 128.64L156.724 127.026C156.719 126.928 156.68 126.835 156.614 126.761C156.549 126.686 156.46 126.635 156.361 126.613C156.261 126.591 156.156 126.601 156.062 126.64C155.968 126.681 155.888 126.748 155.836 126.833C154.043 129.91 153.001 132.924 152.711 135.877C151.135 129.971 152.18 124.91 155.845 120.693C163.818 111.517 179.418 117.14 184.563 126.061C184.926 126.682 185.464 126.915 186.176 126.763C189.7 126.017 190.081 128.772 186.439 129.377C185.859 129.471 185.699 129.772 185.959 130.281L186.846 132.009C186.925 132.163 186.963 132.333 186.957 132.504C186.953 132.675 186.905 132.843 186.819 132.991C186.589 133.395 186.191 133.547 185.623 133.447C185.255 133.384 184.993 133.515 184.835 133.842L182.344 139ZM163.737 122.05C163.537 121.747 163.268 121.491 162.948 121.296C162.626 121.1 162.259 120.97 161.866 120.911C161.474 120.853 161.062 120.868 160.657 120.956C160.252 121.043 159.86 121.201 159.504 121.422C159.149 121.642 158.836 121.921 158.584 122.24C158.331 122.559 158.145 122.914 158.034 123.284C157.925 123.654 157.893 124.031 157.942 124.396C157.99 124.76 158.118 125.103 158.317 125.405C158.518 125.708 158.786 125.965 159.107 126.161C159.428 126.356 159.795 126.487 160.188 126.545C160.581 126.603 160.992 126.587 161.398 126.5C161.803 126.413 162.195 126.254 162.55 126.034C162.906 125.813 163.219 125.536 163.471 125.216C163.724 124.897 163.909 124.542 164.02 124.172C164.13 123.802 164.162 123.424 164.113 123.06C164.064 122.696 163.937 122.353 163.737 122.05Z" fill="#160807"/>
<path d="M103.554 135.744C103.16 132.781 102.125 129.986 100.447 127.361C100.266 127.083 100.094 127.089 99.9306 127.379C99.6994 127.796 99.5996 128.275 99.6302 128.812H99.0011C98.682 128.807 98.4848 128.955 98.4097 129.257C97.255 133.975 95.9597 138.584 89.7166 137.94C84.3372 137.395 81.7837 132.614 82.2906 127.66L83.6237 124.811C83.7552 124.521 83.9805 124.33 84.2997 124.24C86.4965 123.611 88.8028 123.853 91.2187 124.966C99.0856 130.709 99.6301 117.508 92.4673 121.119C92.8804 120.532 92.8804 119.982 92.4673 119.467C92.2733 119.22 92.0167 119.077 91.6975 119.041C88.1613 118.631 84.888 119.22 81.8776 120.81C73.8163 123.968 70.565 129.645 72.1234 137.84L70.396 134.782C70.3222 134.652 70.2074 134.547 70.0686 134.486C69.9299 134.424 69.7747 134.407 69.6262 134.437C68.606 134.655 67.7829 134.392 67.1571 133.648C67.1075 133.589 67.0733 133.519 67.0573 133.444C67.0413 133.369 67.044 133.292 67.0651 133.218C67.0862 133.145 67.1252 133.077 67.1787 133.021C67.2322 132.964 67.2989 132.921 67.373 132.895C68.1178 132.623 68.5653 132.124 68.7155 131.398C68.7906 131.066 68.7061 130.779 68.462 130.536L66.1432 128.204C66.0765 128.136 66.0306 128.051 66.0109 127.96C65.9912 127.868 65.9983 127.772 66.0313 127.684C66.0644 127.595 66.1223 127.517 66.1983 127.458C66.2744 127.4 66.3658 127.363 66.4624 127.352L68.3963 127.143C68.5312 127.129 68.6609 127.085 68.7763 127.017C68.8917 126.948 68.9895 126.855 69.0629 126.744C79.2677 111.266 107.901 111.057 103.554 135.744Z" fill="#010100"/>
<path d="M91.6914 121.016C90.8059 121.874 90.3913 123.047 90.4474 124.535C88.0408 123.517 85.7431 123.296 83.5546 123.871C83.2367 123.954 83.0123 124.128 82.8814 124.394L81.5532 127C81.3288 125.38 80.4777 124.057 79 123.033L81.1417 120.734C84.1408 119.28 87.4016 118.74 90.9243 119.116C91.2423 119.149 91.498 119.28 91.6914 119.506C92.1029 119.977 92.1029 120.48 91.6914 121.016Z" fill="#3E160E"/>
<path d="M182.169 139.39C174.025 151.434 156.63 151.287 152 136.122C152.295 133.031 153.356 129.877 155.182 126.658C155.235 126.568 155.316 126.497 155.411 126.456C155.508 126.415 155.614 126.404 155.716 126.426C155.817 126.449 155.907 126.503 155.974 126.581C156.041 126.659 156.08 126.756 156.086 126.86L156.197 128.549C153.54 134.828 156.519 142.778 163.557 143.668C174.938 145.109 179.872 133.506 176.109 124.39C175.242 122.34 173.689 121.055 171.452 120.535C171.033 120.436 171.015 120.287 171.396 120.085C171.728 119.913 172.018 120.002 172.263 120.351C181.413 123.454 184.714 129.8 182.169 139.39Z" fill="#FEFDFE"/>
<path d="M91.0048 124.519C90.951 122.879 91.3484 121.586 92.1967 120.641C99.0341 117.001 98.5144 130.309 91.0048 124.519Z" fill="#FEFDFE"/>
<path d="M162.215 125.425C163.9 124.451 164.498 122.575 163.55 121.234C162.604 119.895 160.47 119.6 158.785 120.575C157.101 121.549 156.503 123.425 157.449 124.764C158.396 126.105 160.53 126.4 162.215 125.425Z" fill="#FEFDFE"/>
<path d="M81.875 121L79.7799 123.512C76.6082 128.464 76.6265 133.476 79.8348 138.548C86.843 149.621 104.08 141.74 99.1757 128.999C99.1459 128.461 99.2431 127.983 99.4684 127.566C99.6274 127.276 99.7955 127.27 99.9716 127.548C101.607 130.172 102.616 132.965 103 135.927C98.2516 151.988 79.6975 151.344 72.3691 138.022C70.8503 129.831 74.019 124.156 81.875 121Z" fill="#FEFDFE"/>
<path d="M79.2997 123C80.7053 124.157 81.5148 125.65 81.7283 127.481C81.2479 132.6 83.6677 137.541 88.765 138.104C94.6808 138.77 95.9083 134.007 97.0025 129.132C97.0736 128.819 97.2604 128.666 97.5629 128.672H98.1589C102.927 141.845 86.1674 149.992 79.3531 138.545C76.2335 133.3 76.2157 128.119 79.2997 123Z" fill="#894B37"/>
<path d="M176.705 124.513C180.619 133.67 175.487 145.325 163.652 143.877C156.335 142.983 153.237 134.997 155.999 128.69C156.325 128.561 156.651 128.574 156.977 128.727C157.116 128.789 157.233 128.891 157.312 129.016C157.39 129.143 157.427 129.29 157.419 129.437C156.555 142.596 177.329 140.539 173.128 125.057C173.066 124.858 173.085 124.644 173.18 124.458C173.276 124.272 173.441 124.127 173.642 124.053C173.845 123.979 174.068 123.983 174.268 124.061C174.468 124.14 174.629 124.287 174.72 124.476C175.187 125.361 175.848 125.374 176.705 124.513Z" fill="#894B37"/>
<path d="M46.4281 130.705C42.4836 129.994 39.0954 130.748 36.2635 132.964C36.2498 132.975 36.2334 132.984 36.2152 132.99C36.197 132.996 36.1774 133 36.1574 133C36.1374 133.001 36.1174 132.999 36.0987 132.994C36.08 132.988 36.0629 132.981 36.0483 132.971C36.0336 132.961 36.022 132.949 36.0136 132.936C36.0054 132.923 36.0007 132.909 36.0001 132.894C35.9993 132.879 36.0026 132.864 36.0096 132.851C36.0167 132.838 36.0273 132.825 36.0409 132.814C36.9917 131.898 38.5121 131.144 40.6024 130.555C43.1646 129.828 45.5717 129.815 47.8239 130.515C47.957 130.557 48.0178 130.602 47.9955 130.644C47.9731 130.685 47.8692 130.721 47.7019 130.744C47.5348 130.766 47.315 130.775 47.0819 130.768C46.8488 130.761 46.6172 130.739 46.4281 130.705Z" fill="#C77F62"/>
<path d="M222.37 139.753C221.376 135.399 216.865 129.43 211.128 130.782C210.909 130.838 210.679 130.847 210.46 130.807C210.1 130.751 209.951 130.637 210.014 130.467C210.057 130.348 210.146 130.275 210.283 130.246C216.8 128.698 221.432 134.77 222.973 139.677C223.053 139.927 222.955 140.032 222.676 139.992C222.496 139.969 222.394 139.89 222.37 139.753Z" fill="#C77F62"/>
<path d="M29.3515 133C30.2517 134.664 30.2147 136.331 29.2405 138L29 133.426C29.4192 133.355 29.5365 133.213 29.3515 133Z" fill="#A46448"/>
<path d="M73.8328 162.992C81.0119 163.172 86.9065 160.186 86.9989 156.325C87.0912 152.463 81.3463 149.187 74.1672 149.008C66.9881 148.829 61.0934 151.814 61.0011 155.675C60.9088 159.538 66.6537 162.813 73.8328 162.992Z" fill="#D56860"/>
<path d="M179.751 162.983C187.205 162.723 193.136 159.611 192.998 156.03C192.859 152.45 186.705 149.758 179.249 150.017C171.795 150.277 165.864 153.389 166.002 156.97C166.141 160.55 172.296 163.242 179.751 162.983Z" fill="#D56860"/>
<path d="M32 150L35.1245 152.98C34.7151 153.698 34.8506 154.27 35.5308 154.697C39.1881 157.009 42.3216 162.244 44.2811 166.124C50.81 179.056 58.9101 191.207 69.0781 201.4C72.0099 204.333 74.9839 207.281 78 210.246L59.0636 219C45.5454 198.29 36.7318 174.368 32 150Z" fill="#2F1C24"/>
<path d="M223 152C219.757 168.297 214.651 183.986 207.681 199.066C206.481 197.569 206.583 196.145 207.987 194.791C208.2 194.585 208.345 194.323 208.405 194.039C209.157 190.246 211.46 187.251 212.453 184.014C214.356 177.819 216.789 171.448 218.274 165.16C218.51 164.177 219.008 162.968 219.769 161.534C220.413 160.315 220.918 158.099 221.282 154.884C221.308 154.649 221.212 154.578 220.995 154.671C217.981 155.994 215.737 158.05 214.263 160.838C204.552 179.219 195.908 194.123 179.234 207.227C178.51 207.795 178.166 208.72 178.203 210C170.85 207.415 163.263 205.586 155.438 204.51L152.709 203.833L144 201.403C156.06 198.352 168.251 194.058 178.036 186.713C188.893 178.563 197.162 168.208 202.844 155.645C203.098 155.081 203.519 154.89 204.106 155.07C211.095 157.134 217.392 156.111 223 152Z" fill="#23121A"/>
<path d="M34.2349 153C39.1372 157.417 46.4676 157.176 52.4091 155.476C52.7097 155.39 52.9334 155.489 53.0806 155.772C55.2022 159.862 56.9865 163.09 58.4335 165.455C70.4638 185.09 89.7969 196.833 112 201.527L106.334 203.486L100.604 204.622C92.9701 205.737 85.4036 207.53 77.9046 210C74.8326 207.049 71.8037 204.114 68.8175 201.195C58.4611 191.049 50.2111 178.954 43.5613 166.083C41.5654 162.221 38.3738 157.01 34.6488 154.709C33.956 154.284 33.818 153.715 34.2349 153Z" fill="#23121A"/>
<path d="M207.422 197.834C204.401 204.188 200.837 210.48 196.729 216.707C196.89 216.804 197.051 216.903 197.211 217L178.003 208.62C177.966 207.357 178.308 206.446 179.031 205.884C195.673 192.957 204.299 178.255 213.991 160.123C215.462 157.372 217.701 155.344 220.709 154.039C220.925 153.947 221.021 154.017 220.996 154.249C220.632 157.42 220.128 159.607 219.486 160.809C218.726 162.224 218.229 163.416 217.994 164.386C216.511 170.589 214.084 176.874 212.184 182.985C211.193 186.178 208.895 189.133 208.144 192.875C208.084 193.155 207.939 193.414 207.727 193.616C206.326 194.952 206.224 196.357 207.422 197.834Z" fill="#2F1C24"/>
<path d="M107.737 161C118.012 162.247 127.808 162.543 137.125 161.886C142.2 161.534 146.492 161.412 150 161.519C138.17 169.081 118.457 171.273 107 161.26L107.737 161Z" fill="#FEFDFE"/>
<path d="M107.207 162.01C118.533 171.883 138.022 169.721 149.718 162.266C152.881 161.375 153.269 164.648 152.872 166.792C151.876 172.181 149.552 176.583 145.899 180C141.601 174.312 136.085 171.163 129.352 170.551C122.539 169.933 116.39 172.245 110.906 177.485C110.696 177.686 110.675 177.903 110.841 178.138C111.173 178.604 111.219 178.994 110.979 179.312C109.079 177.309 98.9244 161.551 107.207 162.01Z" fill="#A84342"/>
<path d="M146 179.498C140.632 183.974 134.77 186.139 128.413 185.993C121.571 185.742 115.849 183.348 111.248 178.813C111.486 178.497 111.44 178.108 111.11 177.646C110.945 177.412 110.965 177.195 111.174 176.996C116.632 171.782 122.751 169.483 129.533 170.097C136.233 170.706 141.723 173.84 146 179.498Z" fill="#D56860"/>
<path d="M112.655 201C117.973 202.341 123.252 202.94 128.49 202.797C134.09 202.672 139.39 202.085 144.389 201.036L153 203.378C152.456 203.551 152.223 203.953 152.302 204.584C152.346 204.942 152.19 205.154 151.834 205.219L149.906 205.568C149.589 205.628 149.286 205.729 148.998 205.872C139.074 210.904 128.159 210.913 117.74 208.16C113.885 207.141 110.305 205.387 107 202.895L112.655 201Z" fill="#C77F62"/>
<path d="M106.675 202C109.954 204.644 113.507 206.507 117.333 207.588C127.672 210.511 138.503 210.501 148.35 205.159C148.636 205.008 148.937 204.9 149.252 204.837L151.165 204.467C151.517 204.397 151.672 204.173 151.63 203.793C151.551 203.122 151.781 202.695 152.322 202.512L155 203.205C152.395 211.554 147.315 217.348 139.76 220.587C128.483 225.426 113.206 223.149 105.673 212.294C104.228 210.207 102.67 207.164 101 203.167L106.675 202Z" fill="#DB926F"/>
<path d="M100.947 205C102.632 208.789 104.204 211.672 105.661 213.65C113.261 223.937 128.671 226.095 140.047 221.509C147.668 218.44 152.792 212.949 155.42 205.036C163.164 206.079 170.673 207.854 177.951 210.359L197 218.596C194.875 221.522 191.962 224.06 188.261 226.212C149.713 248.602 96.6652 247.604 60.7734 220.484C60.2159 220.065 59.7105 219.6 59.2572 219.09L59 218.713L78.2692 210.233C85.7614 207.829 93.3208 206.085 100.947 205Z" fill="#41978C"/>
<path d="M196.776 217.297C196.616 217.198 196.458 217.1 196.298 217L203.727 221.247C204.045 221.426 204.085 221.652 203.847 221.923C164.534 267.239 92.502 267.472 53.1434 221.943C52.923 221.689 52.9566 221.479 53.2444 221.312L59.1215 217.807C59.5745 218.333 60.0796 218.811 60.6368 219.244C96.5058 247.205 149.52 248.234 188.043 225.149C191.74 222.931 194.651 220.313 196.776 217.297Z" fill="#D1DEDE"/>
</g>
<defs>
<clipPath id="clip0_2_615">
<rect width="256" height="256" fill="white"/>
</clipPath>
</defs>
</svg>
