<svg width="256" height="256" viewBox="0 0 256 256" fill="none" xmlns="http://www.w3.org/2000/svg">
<g clip-path="url(#clip0_2_615)">
<path d="M34.3145 57C25.5481 61.648 25.8648 73.0609 35.5442 76.5379C35.8859 76.664 36.1001 76.8952 36.187 77.2315L38.0968 84.2216C38.19 84.5759 38.1093 84.8882 37.8546 85.1584C32.8053 90.518 30.0011 96.5444 36.5783 102.012C36.8578 102.241 36.8671 102.48 36.6062 102.733C29.2372 109.822 34.0536 114.272 41.8977 116.794C42.1959 116.89 42.3667 117.088 42.4101 117.388C42.82 120.352 41.4413 123.775 45 125" stroke="#9B8F92" stroke-width="2"/>
<path d="M44.7293 125.017C38.2906 124.748 34.087 127.601 32.1184 133.576C27.621 147.263 37.161 161.5 52.243 159.418C53.8178 159.197 55.3896 158.999 56.9585 158.821C57.2674 158.79 57.4915 158.916 57.6308 159.197C68.6789 182.149 88.5398 196.313 112.962 202.129C113.404 202.233 113.655 202.318 113.717 202.386C114.189 202.918 114.071 203.294 113.362 203.514L105.24 206" stroke="#FCDAC9" stroke-width="2"/>
<path d="M105 206C91.1328 207.962 78.1326 212.295 66 219" stroke="#A6BBCC" stroke-width="2"/>
<path d="M66.9914 219L59.3621 222.714C59.272 222.757 59.1932 222.821 59.1321 222.901C59.0712 222.981 59.0297 223.073 59.0111 223.172C58.9925 223.271 58.9974 223.372 59.0252 223.469C59.0531 223.565 59.1032 223.654 59.1714 223.727C97.826 264.673 168.297 268.908 205.889 223.399C206.065 223.185 206.032 223.019 205.789 222.897L199.295 219.593" stroke="#E8EEEE" stroke-width="2"/>
<path d="M199 220C186.085 213.194 172.419 208.527 158 206" stroke="#A6BBCC" stroke-width="2"/>
<path d="M158 206L146 202" stroke="#EDC8B7" stroke-width="2"/>
<path d="M146 202C170.594 196.749 191.805 182.714 202.311 159.376C202.449 159.067 202.686 158.943 203.02 159.004C204.757 159.322 206.749 159.894 208.114 160.021C217.324 160.869 223.751 157.132 227.396 148.811C230.853 140.917 229.088 127.49 218.501 126" stroke="#F6D1BF" stroke-width="2"/>
<path d="M218.495 126L220.107 118.149C220.134 118.005 220.196 117.868 220.287 117.751C220.377 117.635 220.496 117.541 220.63 117.479C228.431 113.889 225.152 106.984 222.548 101.19C222.416 100.896 222.461 100.633 222.684 100.4C228.728 94.0091 227.773 91.4748 223.81 84.3494C223.671 84.1044 223.657 83.8504 223.765 83.5872C227.572 74.1968 225.35 67.0959 217.098 62.2844C216.803 62.113 216.659 61.8558 216.666 61.5131C216.684 60.6316 217.08 59.4471 217.134 58.8778C217.536 54.4764 215.837 51.2504 212.036 49.1997C211.911 49.1336 211.808 49.033 211.737 48.9095C211.668 48.7859 211.634 48.6446 211.639 48.5019C211.789 45.3065 210.576 42.8058 208 41" stroke="#9B8F92" stroke-width="2"/>
<path d="M208 41.7065C204.54 39.4724 200.469 40.6439 196.845 41.4158C196.772 41.4322 196.696 41.43 196.623 41.4097C196.55 41.3893 196.484 41.3513 196.43 41.2991C196.376 41.2469 196.336 41.1821 196.312 41.1106C196.29 41.0391 196.285 40.963 196.299 40.8891C197.131 36.0153 196.211 31.9618 193.54 28.7287C190.152 24.6238 186.838 25.9134 182.567 26.1495C182.252 26.1677 181.973 26.0739 181.729 25.868C178.858 23.3555 175.482 22.2324 171.603 22.4987C171.221 22.5222 170.843 22.3986 170.549 22.1534C170.257 21.9082 170.07 21.5602 170.028 21.1819C169.427 15.86 166.526 13.7985 161.323 14.9972C160.965 15.076 160.646 14.9972 160.366 14.7611C157.338 12.1941 154.008 11.8944 150.377 13.862C150.266 13.9224 150.14 13.9533 150.014 13.9519C149.887 13.9506 149.762 13.9169 149.652 13.8542C149.542 13.7914 149.449 13.7017 149.383 13.5934C149.317 13.4851 149.281 13.362 149.275 13.2354C148.893 4.15372 138.986 -1.34978 130.927 3.3727C129.852 4.0024 128.799 4.66229 127.767 5.3525C127.457 5.55843 127.193 5.50995 126.975 5.20719C123.144 -0.11467 118.509 -0.774566 113.07 3.22739C112.954 3.31446 112.813 3.36134 112.667 3.36134C112.521 3.36134 112.378 3.31446 112.259 3.22739C102.452 -3.93805 96.7973 1.71983 94.2298 11.4645C94.1954 11.599 94.1091 11.7146 93.9897 11.786C93.8704 11.8575 93.7276 11.8789 93.5923 11.8459C91.498 11.3646 89.3854 10.6471 87.3456 10.7652C80.5707 11.1709 77.15 14.9518 77.0831 22.1082C77.082 22.1759 77.0673 22.2425 77.04 22.3044C77.0127 22.3662 76.9733 22.422 76.9241 22.4685C76.8749 22.5151 76.817 22.5513 76.7536 22.5752C76.6902 22.5991 76.6227 22.6102 76.555 22.6077C68.6419 22.3806 65.4548 27.2212 63.843 34.1596C63.7865 34.4024 63.6362 34.6131 63.4247 34.7457C63.2132 34.8784 62.9577 34.9223 62.7138 34.868C54.9282 33.1152 46.924 31.7893 44.4381 41.6792C44.3652 41.988 44.1649 42.1303 43.8371 42.1061C34.1118 41.3523 28.9669 47.8457 33.9024 57" stroke="#A19496" stroke-width="2"/>
<path d="M207.114 41C206.939 41.9953 207.36 42.7632 208.379 43.3039C208.722 43.482 208.927 43.7677 208.994 44.1609L209.87 49.2479C209.897 49.401 209.962 49.5444 210.057 49.6652C210.151 49.7858 210.273 49.8799 210.412 49.9391C217.561 53.0447 211.434 62.205 217.616 64.2969C217.74 64.3225 217.849 64.3976 217.919 64.5057C217.991 64.6137 218.015 64.7457 217.991 64.8729C217.965 65 217.891 65.1117 217.785 65.1834C217.68 65.2551 217.55 65.2809 217.426 65.2554C215.6 65.1171 213.847 64.9973 211.958 65.2185C196.006 67.0708 181.383 61.5046 166.877 55.6527C161.419 53.4502 145.874 46.557 140.659 48.9991C138.622 49.9513 137.161 50.3291 136.275 50.1326C128.548 48.4462 122.267 46.7321 113.265 46.815C90.1462 47.0085 70.8776 56.6664 57.4203 76.0191C57.2517 76.2525 57.0257 76.3877 56.7425 76.4246C53.5973 76.8393 55.9743 81.6867 52.1603 82.8939C50.3708 83.453 48.5663 83.3916 46.7467 82.7096C46.5178 82.6236 46.2979 82.6481 46.0869 82.7833C44.4963 83.8339 40.8089 84.8845 39.4532 82.8018C38.3415 81.0969 37.3926 80.0279 37.248 77.7977C37.2239 77.4905 37.1124 77.2264 36.9136 77.0052C36.269 76.2864 35.7448 75.8317 35.341 75.6413C28.879 72.6186 26.9539 66.0479 31.4457 60.3158C32.4218 59.0686 33.3798 57.803 34.3197 56.519" stroke="#3E262A" stroke-width="2"/>
<path d="M218 125.951C212.724 125.437 209.856 127.763 209.397 132.932C209.394 132.95 209.385 132.967 209.371 132.981C209.356 132.993 209.338 133 209.32 133C209.303 133 209.286 132.993 209.274 132.981C209.264 132.967 209.258 132.95 209.261 132.932C209.032 128.696 208.603 125.048 207.975 121.988C205.138 108.178 201.606 94.2598 197.379 80.2321C197.352 80.1443 197.306 80.0627 197.248 79.9924C197.189 79.9219 197.116 79.8639 197.035 79.8217C196.952 79.7795 196.864 79.7538 196.772 79.7463C196.68 79.7387 196.589 79.7494 196.5 79.7777C193.126 80.8562 190.566 79.9836 188.821 77.1599C188.753 77.0494 188.649 76.9657 188.525 76.9227C188.402 76.8798 188.266 76.8801 188.142 76.9236C181.223 79.3777 178.741 73.9242 176.115 69.0432C176.049 68.9178 175.945 68.8163 175.817 68.7528C175.689 68.6893 175.543 68.6669 175.399 68.6887C172.224 69.1734 169.64 68.1888 167.647 65.7347C167.388 65.4075 167.05 65.2408 166.633 65.2348L159.578 65.0803C159.27 65.0741 158.978 64.9954 158.7 64.844L155.421 63.0079C155.102 62.8322 154.773 62.808 154.434 62.9352C150.06 64.6531 145.405 66.1801 142.344 63.0897C139.917 60.6356 136.711 56.709 133.985 60.7265C126.958 71.1065 114.17 65.6347 104.625 63.7987C104.18 63.7147 103.718 63.7919 103.324 64.0165C102.929 64.2411 102.627 64.5987 102.469 65.0257C98.7564 75.3239 90.1173 73.5969 81.4504 71.8972C81.041 71.8154 80.616 71.8774 80.2467 72.0727C79.8774 72.2679 79.5861 72.5846 79.4218 72.9698L78 76.2874" stroke="#936353" stroke-width="2"/>
<path d="M78 76C75.6852 80.0808 70.4543 78.8757 67.009 77.5428C66.6031 77.3819 66.155 77.3676 65.739 77.502C65.3229 77.6365 64.9637 77.9118 64.721 78.2823C63.9914 79.3961 63.2377 80.4702 62.46 81.5049C62.2866 81.7361 62.0563 81.8579 61.7692 81.8701C60.1183 81.9431 59.1403 82.6552 58.8352 84.0063C56.2752 95.2474 54.0171 109.006 52.0612 125.28C51.7382 127.969 51.6156 130.699 51.6933 133.468C51.7113 134.168 51.6395 134.177 51.478 133.496C50.5269 129.461 48.3676 126.85 45 125.663" stroke="#996C5D" stroke-width="2"/>
<path d="M139 149C134.896 154.951 129.551 154.562 125.002 149.652C124.927 149.567 124.822 149.507 124.707 149.479C124.591 149.452 124.468 149.459 124.357 149.499C124.244 149.54 124.151 149.612 124.087 149.705C124.023 149.798 123.993 149.907 124.001 150.016C124.249 153.966 126.771 156.294 131.57 157" stroke="#EAA482" stroke-width="2"/>
<path d="M131 172.999C123.587 173.024 115.92 172.691 108 172" stroke="#FCDAC9" stroke-width="2"/>
<path d="M107.98 171.163C107.587 170.994 107.205 170.956 106.833 171.05C106.098 171.251 105.85 171.741 106.087 172.523C107.215 176.25 109.679 178.623 113.476 179.642C119.572 181.279 125.414 182.065 131 181.996" stroke="#D17D6B" stroke-width="2"/>
<path d="M130.91 203.815L115.563 203.001C115.435 202.993 115.307 203.03 115.205 203.107C115.103 203.183 115.034 203.292 115.009 203.414C114.986 203.537 115.008 203.663 115.074 203.77C115.139 203.877 115.243 203.959 115.365 203.996L131 209" stroke="#EAA482" stroke-width="2"/>
<path d="M131 209C131 213.765 131 218.43 131 223" stroke="#F4AE8A" stroke-width="2"/>
<path d="M131 223C118.517 222.982 109.849 217.315 105 206" stroke="#A39897" stroke-width="2"/>
<path d="M146 202L131 204" stroke="#E59C77" stroke-width="2"/>
<path d="M131 204C131 196.605 131 189.272 131 182" stroke="#F4AE8A" stroke-width="2"/>
<path d="M131 182C138.712 181.801 151.146 181.341 154.661 174.047C155.233 172.85 155.081 171.866 154.203 171.098C154.136 171.041 154.051 171.007 153.961 171.001C153.871 170.995 153.782 171.016 153.707 171.063C153.614 171.12 153.56 171.19 153.548 171.271" stroke="#CB7461" stroke-width="2"/>
<path d="M153 171.259C152.607 171.03 152.212 170.953 151.812 171.028C145.048 172.321 138.11 172.978 131 173" stroke="#F6D1BF" stroke-width="2"/>
<path d="M131 173V157" stroke="#F4AE8A" stroke-width="2"/>
<path d="M131 156.999C135.157 157.05 138.056 155.34 139.697 151.87C140.224 150.752 140.215 148.983 138.42 149" stroke="#E59C77" stroke-width="2"/>
<path d="M139 149C137.191 146.389 131.258 143.725 131.276 141.024C131.448 118.031 131.552 94.5213 131.588 70.4932C131.588 69.4152 131.078 69.0719 130.055 69.4634C122.689 72.2727 114.782 69.9512 107.434 68.0362C107.129 67.9518 106.856 68.015 106.617 68.2259C99.0952 74.7478 95.7712 77.2319 85.2279 77.2228C82.8216 77.2167 80.4123 77.0361 78 76.6808" stroke="#F4AE8A" stroke-width="2"/>
<path d="M199 219.588C190.901 225.123 184.821 229.501 174.449 233.381C137.398 247.238 98.0468 242.047 66 219" stroke="#8FACBC" stroke-width="2"/>
<path d="M158.949 206C159.133 206 158.819 206 158 206" stroke="#948684" stroke-width="2"/>
<path d="M158 206.403L152.346 205.026C152.207 204.992 152.059 204.992 151.918 205.024C151.777 205.055 151.648 205.119 151.545 205.209C151.447 205.288 151.386 205.387 151.36 205.503C151.332 205.643 151.264 205.774 151.163 205.885C151.061 205.997 150.93 206.084 150.78 206.14C144.095 208.767 137.501 209.584 131 208.592" stroke="#E59C77" stroke-width="2"/>
<path d="M157.916 206C158.034 206.361 158.027 206.675 157.898 206.944C152.629 217.715 143.663 223.067 131 222.999" stroke="#9E8F8C" stroke-width="2"/>
<path d="M153 171C148.858 178.099 128.842 177.38 121.412 176.356C115.404 175.535 111.617 175.144 108 171.641" stroke="#D3A0A0" stroke-width="2"/>
<path d="M184.987 106.864C184.107 101.638 167.773 95.5023 162.964 95.0475C159.375 94.7113 157.403 96.1584 157.048 99.3886C156.612 103.358 159.209 104.639 163.008 105.119C169.779 105.984 176.712 106.941 183.803 107.988C183.964 108.012 184.129 108 184.284 107.952C184.439 107.903 184.581 107.822 184.696 107.712C184.812 107.603 184.899 107.468 184.949 107.322C185 107.174 185.013 107.017 184.987 106.864Z" stroke="#825743" stroke-width="2"/>
<path d="M156 137C159.9 152.857 179.273 152.395 186 139.169" stroke="#F6D1BF" stroke-width="2"/>
<path d="M186.289 139C187.028 137.548 188.083 136.265 189.454 135.15C189.578 135.051 189.666 134.915 189.703 134.761C189.74 134.606 189.726 134.445 189.661 134.3C188.958 132.673 189.331 131.619 190.78 131.137C191.057 131.041 191.288 130.884 191.474 130.667C192.051 129.992 192.154 129.326 191.78 128.669C191.687 128.506 191.539 128.379 191.365 128.312C191.19 128.247 190.998 128.245 190.825 128.308L189.373 128.832C189.247 128.878 189.107 128.878 188.981 128.832C188.853 128.786 188.747 128.697 188.678 128.579C184.44 121.282 178.05 117.429 169.507 117.019C158.434 116.486 152.852 127.07 155.765 136.795" stroke="#785340" stroke-width="2"/>
<path d="M185.664 139C187.169 131.426 183.505 125.192 177 122" stroke="#807F7F" stroke-width="2"/>
<path d="M177 122.819L174.519 121.165C174.34 121.044 174.125 120.986 173.91 121.003C173.693 121.019 173.49 121.107 173.33 121.253C173.172 121.399 173.066 121.595 173.033 121.807C173 122.02 173.04 122.238 173.147 122.425C175.61 126.828 177.924 130.442 174.888 135.256C172.583 138.915 168.202 139.764 164.454 137.812C161.868 136.464 161.067 133.829 160.97 131.107C160.959 130.78 160.836 130.734 160.601 130.967L160.24 131.318C160.064 131.498 159.985 131.711 160.002 131.956L160.609 140" stroke="#371B11" stroke-width="2"/>
<path d="M160 140C157.917 136.252 158.479 131.726 158.876 127.607C158.888 127.472 158.86 127.337 158.798 127.227C158.736 127.116 158.644 127.039 158.541 127.011C158.437 126.984 158.329 127.007 158.238 127.076C158.146 127.146 158.078 127.256 158.047 127.385L156 136.233" stroke="#807F7F" stroke-width="2"/>
<path d="M177.206 122C181.067 126.454 181.981 131.134 179.949 136.037C176.633 144.055 165.56 147.338 160 139.607" stroke="#B69990" stroke-width="2"/>
<path d="M220.992 136.898C218.926 133.592 215.198 132.199 211.547 133.46C210.806 133.713 210.818 133.757 211.581 133.592C215.342 132.793 218.442 133.922 220.88 136.978C220.892 136.99 220.907 136.998 220.924 137C220.94 137.001 220.957 136.997 220.97 136.988C220.984 136.978 220.993 136.963 220.998 136.947C221.002 136.931 221 136.914 220.992 136.898Z" stroke="#E59C77" stroke-width="2"/>
<path d="M194.98 156.067C194.884 155.1 194.425 154.18 193.633 153.358C192.84 152.538 191.729 151.831 190.363 151.281C188.995 150.731 187.399 150.346 185.665 150.15C183.933 149.954 182.095 149.95 180.259 150.139C176.552 150.518 173.074 151.659 170.591 153.308C168.108 154.957 166.823 156.981 167.02 158.933C167.117 159.9 167.575 160.82 168.368 161.642C169.16 162.462 170.272 163.169 171.639 163.719C173.005 164.269 174.601 164.654 176.335 164.85C178.068 165.046 179.905 165.05 181.741 164.861C185.448 164.482 188.927 163.341 191.41 161.692C193.893 160.043 195.177 158.019 194.98 156.067Z" stroke="#E28770" stroke-width="2"/>
<path d="M97.8476 104.108C104.359 103.035 102.594 91.888 96.825 93.0906C89.9726 94.5152 78.5052 99.0758 74.2487 105.579C74.1304 105.76 74.0518 105.969 74.0183 106.186C73.9848 106.404 73.9974 106.628 74.0552 106.839C74.1128 107.051 74.2143 107.246 74.3521 107.41C74.4899 107.575 74.6605 107.704 74.8517 107.79C75.4111 108.043 76.2037 108.067 77.2291 107.864C84.0933 106.5 90.9662 105.249 97.8476 104.108Z" stroke="#885F4E" stroke-width="2"/>
<path d="M75 136.698C80.175 153.954 103.168 155.145 107 136" stroke="#FCDAC9" stroke-width="2"/>
<path d="M106.833 135.33C109.367 111.66 82.3506 112.794 72.7719 128.042C72.351 128.72 71.7198 129.006 71.0061 128.64C70.8775 128.574 70.7308 128.55 70.5869 128.57C70.443 128.591 70.3096 128.654 70.2057 128.754C70.102 128.853 70.0332 128.983 70.0093 129.122C69.9855 129.263 70.0077 129.407 70.073 129.533C70.4999 130.378 71.1769 130.914 72.104 131.141C72.409 131.212 72.5401 131.4 72.4974 131.704L72.0034 135.187C71.9931 135.261 71.9981 135.336 72.0181 135.408C72.0382 135.48 72.0729 135.547 72.12 135.604C72.1672 135.662 72.2258 135.71 72.2924 135.743C72.3588 135.778 72.4316 135.798 72.5065 135.803L75.4341 136" stroke="#7D5C4A" stroke-width="2"/>
<path d="M107 135.938L103.869 129.283C103.823 129.183 103.734 129.1 103.619 129.05C103.505 129 103.372 128.987 103.245 129.013C103.117 129.038 103.005 129.102 102.929 129.191C102.852 129.279 102.817 129.387 102.829 129.496C103.54 135.021 104.034 140.165 97 143" stroke="#807F7F" stroke-width="2"/>
<path d="M96.6724 143C100.375 139.805 101.702 135.925 100.652 131.36C100.538 130.869 100.393 130.861 100.218 131.333C94.5379 146.5 78.9526 135.389 86.8945 123.273C86.9513 123.189 86.9835 123.091 86.9879 122.99C86.9923 122.888 86.9688 122.787 86.9199 122.697C86.8708 122.607 86.7981 122.532 86.7093 122.478C86.6205 122.425 86.5189 122.396 86.4151 122.394C85.776 122.388 85.4382 122.047 85.402 121.371C85.3901 121.102 85.2483 120.979 84.9769 121.003C84.5246 121.044 84.199 121.179 84 121.407" stroke="#371B11" stroke-width="2"/>
<path d="M84 121C77.8349 123.984 74.8371 128.983 75.0068 136" stroke="#807F7F" stroke-width="2"/>
<path d="M97 142.427C90.7664 146.523 83.2769 142.106 81.5506 135.106C80.2079 129.692 81.321 125.138 84.8899 121.445C84.9654 121.362 84.9771 121.273 84.9248 121.178C84.8725 121.089 84.8259 121.03 84.7853 121" stroke="#B69990" stroke-width="2"/>
<path d="M47.9438 133.218C43.6022 132.351 39.9569 134.108 38.0053 137.829C37.9955 137.861 37.9993 137.896 38.0161 137.925C38.0327 137.955 38.0613 137.978 38.0969 137.99C38.1325 138.002 38.1729 138.003 38.211 137.992C38.2493 137.982 38.2829 137.961 38.3062 137.932C40.1346 134.471 43.1493 133 47.3506 133.52C47.4479 133.536 47.5368 133.52 47.617 133.472L47.9608 133.289C48.0182 133.257 48.0125 133.234 47.9438 133.218Z" stroke="#EAA482" stroke-width="2"/>
<path d="M90.9939 159.228C91.1015 157.248 89.7831 155.274 87.3286 153.736C84.8741 152.2 81.4846 151.229 77.9058 151.035C76.1338 150.94 74.3686 151.039 72.711 151.326C71.0535 151.612 69.536 152.082 68.2453 152.708C66.9546 153.333 65.9159 154.102 65.1886 154.972C64.4611 155.84 64.0593 156.792 64.0061 157.773C63.8985 159.752 65.2169 161.727 67.6714 163.263C70.1259 164.801 73.5154 165.772 77.0942 165.965C78.8661 166.06 80.6314 165.962 82.289 165.675C83.9465 165.389 85.464 164.919 86.7547 164.293C88.0454 163.668 89.0841 162.899 89.8115 162.029C90.5388 161.161 90.9406 160.208 90.9939 159.228Z" stroke="#F69C82" stroke-width="2"/>
<path d="M165.547 122.059C165.34 121.758 165.067 121.512 164.747 121.331C164.427 121.152 164.065 121.043 163.681 121.01C163.297 120.978 162.9 121.024 162.511 121.144C162.122 121.265 161.75 121.458 161.415 121.712C160.739 122.227 160.259 122.962 160.078 123.755C159.898 124.549 160.032 125.335 160.453 125.942C160.66 126.242 160.932 126.489 161.253 126.669C161.573 126.848 161.935 126.958 162.319 126.99C162.702 127.022 163.1 126.976 163.488 126.856C163.878 126.735 164.25 126.542 164.585 126.288C165.26 125.773 165.741 125.038 165.922 124.245C166.102 123.451 165.968 122.665 165.547 122.059Z" stroke="#807F7F" stroke-width="2"/>
<path d="M100.53 126.121C100.958 125.617 101.101 124.963 100.929 124.301C100.757 123.64 100.283 123.027 99.6124 122.597C98.9425 122.168 98.1292 121.955 97.352 122.008C96.5748 122.061 95.8983 122.374 95.4705 122.878C95.0427 123.383 94.899 124.037 95.0709 124.699C95.2428 125.36 95.7163 125.973 96.3871 126.403C97.0579 126.832 97.8712 127.045 98.6484 126.992C99.4256 126.939 100.102 126.626 100.53 126.121Z" stroke="#807F7F" stroke-width="2"/>
<path d="M207.114 41.6659C206.939 42.6458 207.36 43.4019 208.379 43.9341C208.722 44.1096 208.927 44.3908 208.994 44.7779L209.87 49.7861C209.897 49.9369 209.962 50.0781 210.057 50.1969C210.151 50.3157 210.273 50.4084 210.412 50.4666C217.561 53.5241 211.434 62.5425 217.616 64.6021C217.74 64.6273 217.849 64.7013 217.919 64.8077C217.991 64.9139 218.015 65.044 217.991 65.1691C217.965 65.2943 217.891 65.4042 217.785 65.4749C217.68 65.5454 217.55 65.5709 217.426 65.5456C215.6 65.4095 213.847 65.2916 211.958 65.5093C196.006 67.333 181.383 61.853 166.877 56.0917C161.419 53.9233 145.874 47.1368 140.659 49.5411C138.622 50.4787 137.161 50.8507 136.275 50.6571C128.548 48.9968 122.267 47.3092 113.265 47.3909C90.1462 47.5814 70.8776 57.0897 57.4203 76.1427C57.2517 76.3726 57.0257 76.5056 56.7425 76.5419C53.5973 76.9502 55.9743 81.7225 52.1603 82.911C50.3708 83.4615 48.5663 83.401 46.7467 82.7296C46.5178 82.645 46.2979 82.6691 46.0869 82.8022C44.4963 83.8365 40.8089 84.8708 39.4532 82.8203C38.3415 81.1418 37.3926 80.0894 37.248 77.8938C37.2239 77.5914 37.1124 77.3312 36.9136 77.1135C36.269 76.4058 35.7448 75.9583 35.341 75.7707C28.879 72.7948 26.9539 66.3259 31.4457 60.6826C32.4218 59.4548 33.3798 58.2088 34.3197 56.9446C29.4212 47.7991 34.5276 41.3121 44.18 42.0651C44.5053 42.0894 44.7041 41.9472 44.7765 41.6387C47.2438 31.7584 55.188 33.083 62.9153 34.834C63.1574 34.8884 63.4109 34.8445 63.6208 34.7119C63.8308 34.5794 63.98 34.3689 64.036 34.1264C65.6357 27.1947 68.7989 22.3589 76.6527 22.5857C76.72 22.5882 76.7871 22.5771 76.85 22.5533C76.9128 22.5293 76.9704 22.4932 77.0192 22.4467C77.068 22.4002 77.1071 22.3445 77.1342 22.2827C77.1612 22.2209 77.1758 22.1543 77.1769 22.0867C77.2433 14.9373 80.6384 11.16 87.3625 10.7547C89.387 10.6368 91.4838 11.3535 93.5625 11.8344C93.6967 11.8674 93.8384 11.8459 93.957 11.7745C94.0754 11.7032 94.161 11.5877 94.1951 11.4533C96.7441 1.71816 102.357 -3.93422 112.09 3.22425C112.208 3.31124 112.349 3.35807 112.494 3.35807C112.639 3.35807 112.779 3.31124 112.895 3.22425C118.292 -0.773813 122.893 -0.114558 126.695 5.20213C126.912 5.5046 127.174 5.55302 127.482 5.3473C128.505 4.65776 129.551 3.9985 130.618 3.36942C138.616 -1.34846 148.449 4.14968 148.829 13.2225C148.833 13.349 148.871 13.472 148.935 13.5802C149.001 13.6884 149.092 13.778 149.202 13.8407C149.311 13.9033 149.436 13.937 149.561 13.9384C149.687 13.9397 149.812 13.9089 149.922 13.8486C153.525 11.8828 156.83 12.1822 159.837 14.7468C160.114 14.9827 160.43 15.0614 160.786 14.9827C165.949 13.785 168.83 15.8446 169.426 21.1613C169.467 21.5393 169.652 21.8869 169.943 22.1318C170.234 22.3768 170.609 22.5003 170.99 22.4768C174.84 22.2108 178.189 23.3327 181.04 25.8429C181.28 26.0486 181.557 26.1423 181.871 26.1241C186.11 25.8882 189.4 24.5999 192.762 28.7008C195.412 31.9307 196.325 35.9803 195.5 40.8493C195.487 40.9232 195.491 40.9992 195.514 41.0706C195.536 41.1421 195.576 41.2068 195.63 41.259C195.683 41.311 195.75 41.349 195.821 41.3694C195.893 41.3897 195.969 41.3919 196.042 41.3756C199.639 40.6044 203.679 39.434 207.114 41.6659Z" fill="#442B2E"/>
<path d="M207.84 41C210.438 42.8026 211.662 45.2988 211.51 48.4886C211.504 48.631 211.539 48.7721 211.61 48.8955C211.681 49.0187 211.785 49.1192 211.91 49.1852C215.743 51.2322 217.458 54.4525 217.051 58.8461C216.997 59.4144 216.597 60.5968 216.579 61.4768C216.573 61.8189 216.719 62.0755 217.015 62.2467C225.336 67.0497 227.578 74.1379 223.737 83.5118C223.628 83.7745 223.644 84.028 223.783 84.2725C227.78 91.3853 228.743 93.9151 222.647 100.295C222.424 100.527 222.378 100.79 222.511 101.083C225.136 106.867 228.443 113.759 220.576 117.343C220.442 117.405 220.323 117.499 220.232 117.615C220.14 117.732 220.078 117.868 220.049 118.012L218.423 125.849C213.13 125.33 210.254 127.677 209.793 132.889C209.791 132.907 209.782 132.924 209.767 132.938C209.752 132.951 209.734 132.958 209.716 132.958C209.698 132.958 209.682 132.951 209.67 132.938C209.66 132.924 209.654 132.907 209.657 132.889C209.427 128.617 208.997 124.938 208.367 121.853C205.521 107.926 201.978 93.8906 197.738 79.7445C197.711 79.6559 197.665 79.5737 197.606 79.5028C197.547 79.4317 197.475 79.3732 197.393 79.3307C197.31 79.2881 197.221 79.2622 197.129 79.2546C197.037 79.2469 196.945 79.2577 196.857 79.2862C193.472 80.3739 190.904 79.494 189.153 76.6464C189.085 76.535 188.981 76.4505 188.857 76.4072C188.733 76.3639 188.597 76.3642 188.472 76.4081C181.532 78.8829 179.043 73.3834 176.408 68.4612C176.342 68.3347 176.238 68.2324 176.109 68.1684C175.981 68.1043 175.835 68.0818 175.69 68.1038C172.505 68.5925 169.913 67.5996 167.914 65.1248C167.654 64.7949 167.315 64.6268 166.897 64.6207L159.82 64.4649C159.511 64.4587 159.218 64.3793 158.939 64.2266L155.65 62.375C155.33 62.1978 155 62.1734 154.66 62.3017C150.273 64.0341 145.603 65.574 142.533 62.4575C140.098 59.9827 136.882 56.023 134.148 60.0744C127.098 70.5419 114.271 65.024 104.697 63.1725C104.25 63.0878 103.787 63.1656 103.392 63.3921C102.996 63.6186 102.692 63.9791 102.535 64.4099C98.8099 74.7949 90.144 73.0534 81.4503 71.3393C81.0397 71.2569 80.6134 71.3193 80.2429 71.5163C79.8725 71.7131 79.5803 72.0325 79.4154 72.4209L77.9892 75.7665C75.6454 79.8637 70.3493 78.6538 66.8609 77.3156C66.4499 77.154 65.9963 77.1396 65.575 77.2745C65.1537 77.4096 64.7901 77.686 64.5444 78.058C63.8056 79.1762 63.0425 80.2547 62.2551 81.2936C62.0796 81.5257 61.8464 81.648 61.5557 81.6602C59.8841 81.7336 58.894 82.4485 58.5851 83.8051C55.9931 95.0913 53.7068 108.905 51.7264 125.244C51.3994 127.945 51.2753 130.686 51.354 133.466C51.3721 134.169 51.2995 134.178 51.136 133.494C50.173 129.442 47.9868 126.821 44.5771 125.629C41.1069 124.383 42.4514 120.9 42.0517 117.884C42.0093 117.578 41.8427 117.377 41.552 117.279C33.903 114.713 29.2064 110.185 36.3921 102.971C36.6465 102.714 36.6374 102.47 36.3649 102.238C29.9514 96.6741 32.6857 90.542 37.6094 85.0883C37.8578 84.8133 37.9365 84.4955 37.8456 84.135L35.9833 77.0222C35.8986 76.68 35.6897 76.4448 35.3565 76.3165C25.9179 72.7784 25.6091 61.1651 34.1574 56.4355C33.2126 57.7125 32.2497 58.9714 31.2686 60.2119C26.7537 65.9131 28.6886 72.4484 35.1839 75.4549C35.5898 75.6443 36.1166 76.0965 36.7646 76.8114C36.9644 77.0314 37.0765 77.2941 37.1007 77.5997C37.2461 79.8179 38.1999 80.8811 39.3173 82.5768C40.6799 84.6483 44.3863 83.6034 45.9852 82.5585C46.1972 82.424 46.4182 82.3996 46.6483 82.4852C48.4773 83.1634 50.2911 83.2245 52.0898 82.6685C55.9234 81.4677 53.5342 76.6464 56.6956 76.234C56.9802 76.1973 57.2073 76.0628 57.3769 75.8307C70.9034 56.5821 90.2712 46.9762 113.508 46.7837C122.556 46.7012 128.87 48.4061 136.637 50.0835C137.527 50.2789 138.997 49.9031 141.043 48.9561C146.285 46.5271 161.91 53.3832 167.396 55.5739C181.977 61.3943 196.675 66.9305 212.709 65.0882C214.608 64.8682 216.37 64.9873 218.205 65.1248C218.331 65.1503 218.46 65.1246 218.567 65.0532C218.674 64.982 218.748 64.8708 218.773 64.7444C218.799 64.6179 218.773 64.4866 218.702 64.3792C218.632 64.2717 218.522 64.197 218.396 64.1716C212.182 62.0909 218.341 52.9799 211.156 49.891C211.017 49.8321 210.894 49.7385 210.799 49.6185C210.704 49.4985 210.639 49.3558 210.611 49.2035L209.729 44.1439C209.663 43.7528 209.457 43.4686 209.112 43.2915C208.088 42.7537 207.665 41.9899 207.84 41Z" fill="#382126"/>
<path d="M218.508 126.106C229.088 127.601 230.851 141.066 227.397 148.983C223.756 157.328 217.333 161.075 208.128 160.225C206.765 160.097 204.775 159.523 203.038 159.204C202.706 159.144 202.469 159.268 202.33 159.578C191.832 182.982 170.636 197.058 146.059 202.324L131.271 204C130.665 196.742 130.792 189.545 131.653 182.408C139.151 182.199 151.24 181.716 154.657 174.054C155.215 172.797 155.066 171.764 154.212 170.957C154.148 170.898 154.065 170.861 153.978 170.855C153.89 170.849 153.804 170.871 153.73 170.92C153.639 170.981 153.588 171.054 153.575 171.139C153.176 170.823 152.773 170.716 152.367 170.82C145.484 172.6 138.424 173.504 131.189 173.535L131.08 157.874C135.164 157.929 138.013 156.089 139.624 152.353C140.142 151.151 140.133 149.247 138.369 149.265C136.579 146.632 130.707 143.945 130.725 141.221C130.896 118.031 130.998 94.3204 131.034 70.0868C131.034 68.9996 130.529 68.6534 129.517 69.0483C122.227 71.8816 114.401 69.5402 107.13 67.6088C106.828 67.5238 106.557 67.5875 106.321 67.8001C98.8771 74.3778 95.5874 76.8832 85.1531 76.8741C82.7718 76.8679 80.3874 76.6857 78 76.3274L79.427 73.0022C79.5919 72.6161 79.8842 72.2986 80.2549 72.103C80.6255 71.9072 81.052 71.8451 81.463 71.9271C90.1612 73.6308 98.8317 75.3617 102.558 65.0397C102.716 64.6116 103.02 64.2533 103.416 64.0281C103.811 63.803 104.275 63.7257 104.721 63.8098C114.301 65.6501 127.135 71.1345 134.188 60.7305C136.924 56.7037 140.142 60.6394 142.578 63.0992C145.65 66.1967 150.322 64.6662 154.712 62.9443C155.051 62.8168 155.382 62.841 155.702 63.0172L158.993 64.8575C159.272 65.0093 159.565 65.0882 159.874 65.0944L166.955 65.2492C167.373 65.2553 167.712 65.4223 167.973 65.7503C169.972 68.2101 172.566 69.197 175.753 68.7112C175.897 68.6893 176.044 68.7117 176.172 68.7754C176.301 68.8391 176.405 68.9408 176.471 69.0665C179.107 73.9587 181.597 79.425 188.541 76.9652C188.666 76.9216 188.803 76.9212 188.926 76.9643C189.05 77.0073 189.155 77.0912 189.223 77.202C190.975 80.0323 193.544 80.9069 196.931 79.8258C197.019 79.7975 197.111 79.7868 197.203 79.7944C197.295 79.8019 197.384 79.8276 197.467 79.87C197.549 79.9123 197.621 79.9704 197.68 80.041C197.74 80.1115 197.785 80.1933 197.812 80.2813C202.055 94.3416 205.599 108.292 208.447 122.134C209.077 125.201 209.508 128.858 209.737 133.103C209.735 133.121 209.741 133.139 209.751 133.152C209.762 133.165 209.779 133.172 209.796 133.172C209.814 133.172 209.833 133.165 209.847 133.152C209.862 133.139 209.871 133.121 209.873 133.103C210.335 127.923 213.213 125.591 218.508 126.106ZM185.815 107.303C184.897 101.545 167.854 94.785 162.837 94.284C159.093 93.9134 157.036 95.5077 156.666 99.0669C156.211 103.44 158.92 104.852 162.883 105.38C169.948 106.334 177.18 107.388 184.578 108.542C184.748 108.568 184.919 108.554 185.082 108.502C185.243 108.448 185.391 108.358 185.511 108.238C185.632 108.117 185.723 107.969 185.775 107.806C185.828 107.644 185.842 107.471 185.815 107.303ZM155.33 136.957C159.329 153.21 179.198 152.736 186.096 139.18C186.842 137.716 187.905 136.423 189.287 135.299C189.412 135.2 189.5 135.062 189.538 134.906C189.575 134.751 189.562 134.588 189.496 134.442C188.787 132.803 189.163 131.74 190.623 131.254C190.902 131.157 191.135 130.999 191.323 130.78C191.904 130.1 192.008 129.428 191.632 128.767C191.537 128.6 191.389 128.474 191.212 128.407C191.036 128.341 190.844 128.338 190.668 128.402L189.205 128.931C189.078 128.977 188.937 128.976 188.809 128.93C188.681 128.884 188.574 128.793 188.505 128.676C184.233 121.32 177.792 117.437 169.182 117.023C158.02 116.486 152.394 127.154 155.33 136.957ZM221.653 136.993C219.472 133.577 215.536 132.137 211.682 133.44C210.901 133.701 210.913 133.747 211.719 133.577C215.688 132.751 218.96 133.917 221.535 137.075C221.547 137.088 221.563 137.096 221.58 137.098C221.598 137.099 221.616 137.095 221.629 137.086C221.644 137.075 221.654 137.061 221.659 137.043C221.663 137.026 221.661 137.009 221.653 136.993ZM194.57 156.431C194.473 155.483 194.021 154.58 193.238 153.773C192.454 152.968 191.356 152.275 190.005 151.735C188.654 151.195 187.077 150.818 185.364 150.626C183.65 150.433 181.835 150.429 180.02 150.614C176.356 150.987 172.918 152.106 170.464 153.724C168.011 155.343 166.741 157.329 166.935 159.244C167.032 160.193 167.484 161.096 168.267 161.902C169.051 162.707 170.148 163.401 171.5 163.941C172.851 164.48 174.428 164.857 176.142 165.05C177.855 165.242 179.67 165.247 181.485 165.061C185.149 164.689 188.587 163.569 191.04 161.951C193.494 160.333 194.764 158.347 194.57 156.431Z" fill="#EEA57F"/>
<path d="M139 149.029C134.956 155.381 129.689 154.966 125.207 149.724C125.132 149.634 125.029 149.57 124.915 149.54C124.801 149.511 124.68 149.519 124.57 149.562C124.461 149.605 124.367 149.682 124.304 149.781C124.242 149.88 124.212 149.997 124.221 150.113C124.464 154.33 126.95 156.815 131.679 157.568L131.789 173.101C124.139 173.143 116.227 172.599 108.055 171.466C107.64 171.303 107.239 171.267 106.85 171.357C106.076 171.551 105.815 172.023 106.065 172.776C107.251 176.367 109.84 178.653 113.833 179.635C120.241 181.213 126.381 181.969 132.254 181.903C131.389 188.982 131.261 196.12 131.871 203.319L116.243 202.469C116.112 202.462 115.982 202.5 115.878 202.58C115.774 202.659 115.703 202.773 115.679 202.901C115.654 203.029 115.677 203.161 115.744 203.273C115.81 203.384 115.916 203.468 116.042 203.509L131.962 208.732C131.268 213.588 131.32 218.343 132.117 223C119.38 222.982 110.538 217.186 105.59 205.614L113.751 203.165C114.463 202.948 114.581 202.578 114.107 202.054C114.045 201.987 113.793 201.904 113.349 201.801C88.8113 196.072 68.8566 182.12 57.7565 159.511C57.6164 159.234 57.3913 159.11 57.0809 159.14C55.5047 159.315 53.9255 159.511 52.3433 159.728C37.1901 161.779 27.6051 147.755 32.1237 134.272C34.1016 128.386 38.325 125.576 44.7941 125.842C48.2202 127.016 50.4172 129.601 51.3848 133.595C51.5491 134.269 51.6221 134.26 51.6039 133.568C51.5247 130.826 51.6494 128.124 51.978 125.462C53.968 109.354 56.2654 95.7354 58.8701 84.6088C59.1805 83.2714 60.1754 82.5666 61.855 82.4943C62.1471 82.4822 62.3815 82.3617 62.558 82.1328C63.3491 81.1087 64.1159 80.0454 64.8584 78.943C65.1052 78.5762 65.4706 78.3038 65.8939 78.1706C66.3172 78.0376 66.7732 78.0518 67.186 78.2111C70.6913 79.5304 76.0132 80.7232 78.3683 76.6839C80.7662 77.0393 83.1609 77.22 85.5525 77.2261C96.032 77.2351 99.3369 74.7502 106.813 68.2259C107.05 68.015 107.321 67.9518 107.626 68.0362C114.928 69.9519 122.788 72.2742 130.109 69.4639C131.124 69.0723 131.633 69.4157 131.633 70.4941C131.597 94.5307 131.493 118.049 131.323 141.05C131.305 143.751 137.202 146.417 139 149.029ZM98.8988 105.004C105.699 103.956 103.856 93.0668 97.8307 94.2415C90.6735 95.6331 78.697 100.088 74.2514 106.441C74.128 106.618 74.0458 106.821 74.0109 107.035C73.9759 107.247 73.989 107.465 74.0493 107.672C74.1096 107.878 74.2156 108.069 74.3595 108.23C74.5034 108.39 74.6816 108.517 74.8813 108.6C75.4655 108.848 76.2932 108.871 77.3643 108.672C84.5331 107.341 91.7112 106.119 98.8988 105.004ZM75.3835 136.423C80.4497 153.176 102.961 154.333 106.713 135.745C109.241 111.799 82.2844 112.947 72.727 128.372C72.3071 129.058 71.6773 129.348 70.9653 128.977C70.8369 128.91 70.6904 128.886 70.547 128.906C70.4034 128.926 70.2703 128.992 70.1667 129.092C70.0631 129.193 69.9945 129.324 69.9706 129.465C69.9468 129.607 69.969 129.752 70.0342 129.881C70.4601 130.736 71.1357 131.278 72.0607 131.507C72.3649 131.58 72.4958 131.769 72.4531 132.077L71.9603 135.601C71.9499 135.675 71.9549 135.751 71.975 135.823C71.995 135.897 72.0297 135.963 72.0767 136.022C72.1238 136.081 72.1822 136.128 72.2485 136.163C72.3149 136.198 72.3876 136.219 72.4624 136.224L75.3835 136.423ZM48.0621 132.818C43.4522 131.833 39.5817 133.83 37.5096 138.059C37.4991 138.096 37.5031 138.135 37.5209 138.169C37.5386 138.202 37.5689 138.228 37.6067 138.242C37.6445 138.256 37.6874 138.257 37.7279 138.245C37.7685 138.233 37.8042 138.209 37.829 138.176C39.7703 134.242 42.9713 132.57 47.4322 133.161C47.5356 133.179 47.6299 133.161 47.7152 133.107L48.0803 132.899C48.1411 132.863 48.1351 132.836 48.0621 132.818ZM91.101 158.744C91.2087 156.774 89.8889 154.81 87.4317 153.281C84.9746 151.752 81.5814 150.786 77.9988 150.594C76.2248 150.498 74.4577 150.596 72.7983 150.882C71.139 151.167 69.6199 151.635 68.3277 152.257C67.0356 152.879 65.9958 153.644 65.2677 154.509C64.5396 155.373 64.1372 156.32 64.0839 157.296C63.9762 159.265 65.2961 161.23 67.7532 162.758C70.2104 164.288 73.6035 165.253 77.1862 165.445C78.9602 165.541 80.7272 165.443 82.3867 165.157C84.046 164.873 85.5651 164.405 86.8572 163.783C88.1493 163.16 89.1892 162.396 89.9173 161.53C90.6454 160.666 91.0476 159.719 91.101 158.744Z" fill="#F9B694"/>
<path d="M96.825 93.0906C102.594 91.888 104.359 103.035 97.8476 104.108C90.9662 105.249 84.0933 106.5 77.2291 107.864C76.2037 108.067 75.4111 108.043 74.8517 107.79C74.6605 107.704 74.4899 107.575 74.3521 107.41C74.2143 107.246 74.1128 107.051 74.0552 106.839C73.9974 106.628 73.9848 106.404 74.0183 106.186C74.0518 105.969 74.1304 105.76 74.2487 105.579C78.5052 99.0758 89.9726 94.5152 96.825 93.0906Z" fill="#160807"/>
<path d="M162.964 95.0475C167.773 95.5023 184.107 101.638 184.987 106.864C185.013 107.017 185 107.174 184.949 107.322C184.899 107.468 184.812 107.603 184.696 107.712C184.581 107.822 184.439 107.903 184.284 107.952C184.129 108 183.964 108.012 183.803 107.988C176.712 106.941 169.779 105.984 163.008 105.119C159.209 104.639 156.612 103.358 157.048 99.3886C157.403 96.1584 159.375 94.7113 162.964 95.0475Z" fill="#160807"/>
<path d="M186.289 138.556C187.804 131.454 184.116 125.609 177.569 122.616L175.026 120.942C174.842 120.82 174.623 120.762 174.402 120.778C174.18 120.795 173.971 120.883 173.808 121.032C173.645 121.179 173.537 121.377 173.503 121.592C173.469 121.808 173.51 122.028 173.619 122.217C176.144 126.672 178.516 130.329 175.405 135.2C173.042 138.902 168.552 139.761 164.71 137.786C162.059 136.422 161.238 133.757 161.139 131.002C161.128 130.671 161.002 130.625 160.761 130.861L160.391 131.215C160.21 131.398 160.129 131.613 160.147 131.861L160.77 140C158.164 136.413 158.867 132.083 159.363 128.142C159.377 128.012 159.343 127.883 159.266 127.778C159.188 127.673 159.073 127.598 158.944 127.572C158.814 127.545 158.679 127.567 158.565 127.634C158.45 127.7 158.365 127.805 158.326 127.929L155.765 136.396C152.852 126.867 158.434 116.496 169.507 117.019C178.05 117.421 184.44 121.196 188.678 128.346C188.747 128.461 188.853 128.548 188.981 128.594C189.107 128.639 189.247 128.639 189.373 128.594L190.825 128.08C190.998 128.018 191.19 128.02 191.365 128.084C191.539 128.15 191.687 128.274 191.78 128.434C192.154 129.077 192.051 129.73 191.474 130.391C191.288 130.604 191.057 130.758 190.78 130.852C189.331 131.325 188.958 132.357 189.661 133.951C189.726 134.093 189.74 134.251 189.703 134.403C189.666 134.554 189.578 134.688 189.454 134.784C188.083 135.876 187.028 137.134 186.289 138.556ZM166.629 122.445C166.41 122.149 166.123 121.905 165.785 121.727C165.448 121.55 165.066 121.442 164.662 121.41C164.257 121.378 163.839 121.424 163.429 121.542C163.019 121.662 162.627 121.852 162.274 122.103C161.562 122.611 161.056 123.337 160.865 124.119C160.675 124.902 160.817 125.678 161.26 126.276C161.479 126.572 161.765 126.817 162.103 126.994C162.44 127.171 162.822 127.28 163.227 127.311C163.63 127.343 164.05 127.297 164.459 127.179C164.869 127.059 165.261 126.869 165.614 126.618C166.325 126.11 166.833 125.384 167.023 124.602C167.214 123.819 167.072 123.043 166.629 122.445Z" fill="#010100"/>
<path d="M106.833 135.5L104.052 128.432C104.011 128.325 103.932 128.237 103.83 128.184C103.728 128.131 103.61 128.118 103.497 128.145C103.384 128.173 103.285 128.239 103.217 128.334C103.148 128.429 103.116 128.544 103.128 128.658C103.759 134.526 104.198 139.989 97.9497 143C101.694 139.791 103.036 135.893 101.975 131.308C101.858 130.815 101.712 130.806 101.536 131.281C95.7901 146.516 80.0268 135.355 88.0594 123.186C88.1167 123.101 88.1493 123.002 88.1539 122.901C88.1583 122.798 88.1346 122.697 88.0849 122.606C88.0354 122.516 87.9618 122.441 87.872 122.387C87.7822 122.334 87.6794 122.304 87.5745 122.302C86.9279 122.297 86.5865 121.954 86.5499 121.274C86.5376 121.004 86.3943 120.881 86.1199 120.905C85.6624 120.947 85.3331 121.082 85.1318 121.311C78.4836 124.267 75.2512 129.222 75.4341 136.176L72.5065 135.978C72.4316 135.972 72.3588 135.952 72.2924 135.917C72.2258 135.883 72.1672 135.834 72.12 135.776C72.0729 135.718 72.0382 135.651 72.0181 135.579C71.9981 135.505 71.9931 135.43 72.0034 135.355L72.4974 131.84C72.5401 131.533 72.409 131.344 72.104 131.272C71.1769 131.043 70.4999 130.502 70.073 129.649C70.0077 129.522 69.9855 129.376 70.0093 129.234C70.0332 129.094 70.102 128.963 70.2057 128.863C70.3096 128.762 70.443 128.698 70.5869 128.677C70.7308 128.656 70.8775 128.681 71.0061 128.748C71.7198 129.117 72.351 128.829 72.7719 128.144C82.3506 112.756 109.367 111.611 106.833 135.5ZM101.14 126.653C101.601 126.037 101.756 125.238 101.57 124.431C101.386 123.624 100.876 122.876 100.153 122.352C99.4306 121.827 98.5546 121.567 97.7175 121.632C96.8804 121.696 96.1519 122.078 95.6912 122.694C95.2304 123.31 95.0756 124.108 95.2607 124.915C95.4459 125.722 95.9559 126.47 96.6786 126.995C97.4007 127.521 98.2767 127.779 99.1138 127.714C99.951 127.65 100.679 127.268 101.14 126.653Z" fill="#010100"/>
<path d="M96.8641 142.454C90.6834 146.48 83.2576 142.139 81.5459 135.26C80.2146 129.938 81.3182 125.463 84.8569 121.834C84.9317 121.752 84.9433 121.665 84.8914 121.572C84.8396 121.484 84.7934 121.426 84.7531 121.397C84.9433 121.175 85.2545 121.043 85.6868 121.003C85.9461 120.98 86.0815 121.099 86.0931 121.362C86.1276 122.021 86.4503 122.354 87.0613 122.359C87.1604 122.362 87.2575 122.39 87.3423 122.441C87.4272 122.494 87.4966 122.567 87.5435 122.655C87.5904 122.742 87.6129 122.841 87.6087 122.94C87.6044 123.039 87.5736 123.135 87.5194 123.217C79.9293 135.032 94.8243 145.867 100.253 131.076C100.42 130.616 100.559 130.624 100.668 131.102C101.671 135.554 100.403 139.338 96.8641 142.454Z" fill="#6D3521"/>
<path d="M177.318 122.796C181.065 127.09 181.952 131.6 179.98 136.325C176.763 144.053 166.016 147.217 160.621 139.766L160.002 131.821C159.985 131.579 160.065 131.369 160.244 131.19L160.612 130.845C160.852 130.614 160.977 130.66 160.988 130.983C161.087 133.671 161.903 136.273 164.538 137.605C168.356 139.532 172.819 138.694 175.167 135.08C178.259 130.326 175.902 126.756 173.393 122.407C173.284 122.223 173.244 122.008 173.277 121.797C173.311 121.587 173.418 121.394 173.58 121.25C173.742 121.105 173.949 121.019 174.17 121.003C174.39 120.986 174.608 121.044 174.791 121.163L177.318 122.796Z" fill="#6D3521"/>
<path d="M84.8887 121C84.9323 121.032 84.9819 121.094 85.0379 121.188C85.0938 121.289 85.0815 121.383 85.0006 121.471C81.1849 125.377 79.9947 130.195 81.4303 135.923C83.276 143.328 91.2836 148.001 97.9484 143.667C104.315 140.521 103.868 134.811 103.225 128.678C103.214 128.558 103.247 128.438 103.316 128.34C103.385 128.241 103.487 128.172 103.602 128.142C103.716 128.114 103.838 128.128 103.941 128.184C104.045 128.239 104.125 128.331 104.166 128.443L107 135.829C103.169 155.208 80.1812 154.002 75.0075 136.535C74.8211 129.268 78.1148 124.09 84.8887 121Z" fill="#FEFDFE"/>
<path d="M164.585 126.288C165.991 125.215 166.422 123.322 165.547 122.059C164.672 120.795 162.823 120.641 161.415 121.713C160.009 122.786 159.578 124.678 160.453 125.941C161.328 127.204 163.177 127.359 164.585 126.288Z" fill="#FEFDFE"/>
<path d="M96.3873 126.403C97.784 127.298 99.6386 127.173 100.529 126.122C101.42 125.071 101.009 123.493 99.6132 122.598C98.2161 121.701 96.3615 121.828 95.4708 122.878C94.5801 123.929 94.9904 125.506 96.3873 126.403Z" fill="#FEFDFE"/>
<path d="M177.195 122C183.559 125.14 187.144 131.272 185.671 138.724C179.018 152.549 159.857 153.032 156 136.457L158.489 127.575C158.528 127.444 158.61 127.333 158.722 127.264C158.832 127.195 158.964 127.172 159.09 127.199C159.216 127.227 159.328 127.304 159.403 127.415C159.479 127.526 159.513 127.662 159.497 127.798C159.015 131.932 158.332 136.475 160.865 140.238C166.142 148.247 176.651 144.846 179.798 136.54C181.727 131.462 180.859 126.614 177.195 122Z" fill="#FEFDFE"/>
<path d="M38.0053 137.829C39.9569 134.108 43.6022 132.351 47.9438 133.218C48.0125 133.234 48.0182 133.257 47.9608 133.289L47.617 133.472C47.5368 133.52 47.4479 133.536 47.3504 133.52C43.1493 133 40.1346 134.471 38.3062 137.932C38.2829 137.961 38.2493 137.982 38.211 137.992C38.1729 138.003 38.1325 138.002 38.0969 137.99C38.0613 137.978 38.0327 137.955 38.0161 137.925C37.9993 137.896 37.9955 137.861 38.0053 137.829Z" fill="#DB926F"/>
<path d="M211.547 133.46C215.198 132.199 218.926 133.592 220.992 136.898C221 136.914 221.002 136.931 220.998 136.947C220.993 136.963 220.984 136.978 220.97 136.988C220.957 136.997 220.94 137.001 220.924 137C220.907 136.998 220.892 136.99 220.88 136.978C218.442 133.922 215.342 132.793 211.581 133.592C210.818 133.757 210.806 133.713 211.547 133.46Z" fill="#DB926F"/>
<path d="M131.305 156.999C126.674 156.293 124.24 153.966 124.001 150.016C123.993 149.907 124.022 149.798 124.084 149.705C124.145 149.612 124.236 149.54 124.344 149.5C124.452 149.459 124.57 149.452 124.682 149.479C124.793 149.507 124.894 149.567 124.967 149.652C129.356 154.561 134.514 154.951 138.474 149C140.208 148.983 140.217 150.752 139.707 151.87C138.123 155.34 135.322 157.05 131.305 156.999Z" fill="#DB926F"/>
<path d="M181.741 164.86C189.461 164.069 195.389 160.132 194.98 156.067C194.571 152.001 187.981 149.347 180.259 150.14C172.539 150.931 166.611 154.868 167.02 158.933C167.429 162.999 174.019 165.653 181.741 164.86Z" fill="#D56860"/>
<path d="M77.0942 165.964C84.5466 166.366 90.7697 163.35 90.9938 159.228C91.218 155.105 85.3582 151.438 77.9058 151.036C70.4534 150.633 64.2304 153.65 64.0062 157.772C63.7821 161.895 69.6418 165.562 77.0942 165.964Z" fill="#F38270"/>
<path d="M153 171.292C148.858 178.046 128.842 177.361 121.412 176.387C115.404 175.606 111.617 175.234 108 171.902C115.958 172.834 123.661 173.282 131.109 173.248C138.184 173.223 145.086 172.485 151.818 171.031C152.215 170.947 152.609 171.034 153 171.292Z" fill="#FEFDFE"/>
<path d="M131.902 181.996C126.115 182.06 120.062 181.334 113.746 179.82C109.812 178.878 107.259 176.684 106.09 173.239C105.844 172.516 106.102 172.063 106.863 171.878C107.248 171.791 107.644 171.826 108.051 171.982C111.713 175.866 115.545 176.3 121.627 177.21C129.149 178.346 149.41 179.144 153.602 171.271C153.615 171.19 153.665 171.12 153.755 171.063C153.827 171.016 153.914 170.995 154 171.001C154.087 171.007 154.169 171.041 154.232 171.098C155.078 171.866 155.225 172.849 154.673 174.045C151.29 181.337 139.324 181.797 131.902 181.996Z" fill="#A84342"/>
<path d="M146.515 202L158.985 205.44C159.04 205.776 158.945 206.05 158.697 206.262L153.009 204.811C152.869 204.775 152.721 204.775 152.58 204.809C152.437 204.842 152.307 204.911 152.203 205.004C152.105 205.088 152.043 205.192 152.018 205.314C151.989 205.462 151.921 205.601 151.819 205.717C151.717 205.835 151.585 205.927 151.434 205.986C144.708 208.755 138.075 209.616 131.535 208.57L115.378 203.72C115.251 203.683 115.144 203.605 115.077 203.501C115.008 203.397 114.985 203.274 115.009 203.156C115.035 203.037 115.107 202.931 115.212 202.858C115.317 202.783 115.449 202.748 115.581 202.755L131.442 203.544L146.515 202Z" fill="#DB926F"/>
<path d="M157.918 206.562C158.033 206.911 158.027 207.215 157.9 207.475C152.754 217.889 143.998 223.065 131.631 222.999C130.845 218.43 130.793 213.765 131.478 209C137.845 210.105 144.301 209.195 150.848 206.27C150.995 206.208 151.123 206.11 151.223 205.986C151.322 205.862 151.388 205.716 151.416 205.56C151.441 205.431 151.501 205.321 151.597 205.232C151.698 205.133 151.825 205.062 151.963 205.026C152.101 204.991 152.245 204.991 152.381 205.029L157.918 206.562Z" fill="#EEA57F"/>
<path d="M158.014 206C172.429 208.501 186.09 213.119 199 219.854C190.901 225.321 184.821 229.644 174.449 233.476C137.398 247.161 98.0468 242.034 66 219.274C78.0032 212.556 90.8648 208.215 104.584 206.25C109.533 217.689 118.378 223.418 131.117 223.436C143.638 223.502 152.503 218.288 157.713 207.795C157.841 207.533 157.848 207.227 157.731 206.875C157.976 206.649 158.069 206.357 158.014 206Z" fill="#4D7999"/>
<path d="M66.9914 219C98.8705 242.252 138.016 247.49 174.872 233.51C185.19 229.595 191.239 225.178 199.295 219.593L205.789 222.897C206.032 223.019 206.065 223.185 205.889 223.399C168.297 268.908 97.826 264.673 59.1714 223.727C59.1032 223.654 59.0531 223.565 59.0252 223.469C58.9974 223.372 58.9925 223.271 59.0111 223.172C59.0297 223.073 59.0712 222.981 59.1321 222.901C59.1932 222.821 59.272 222.757 59.3621 222.714L66.9914 219Z" fill="#D1DEDE"/>
</g>
<defs>
<clipPath id="clip0_2_615">
<rect width="256" height="256" fill="white"/>
</clipPath>
</defs>
</svg>
