<svg width="256" height="256" viewBox="0 0 256 256" fill="none" xmlns="http://www.w3.org/2000/svg">
<g clip-path="url(#clip0_2_615)">
<path d="M15 172C16.3195 175.386 18.3194 178.053 21 180" stroke="#8F848D" stroke-width="2"/>
<path d="M20.6792 180L20.1292 180.883C19.9702 181.13 19.9579 181.385 20.0925 181.649C28.667 198.225 40.6795 211.874 56.1296 222.595C58.3359 224.126 62.9594 226.928 70 231" stroke="#EAF0F3" stroke-width="2"/>
<path d="M70 231C70.7864 232.485 71.7864 233.486 73 234" stroke="#FDDCA7" stroke-width="2"/>
<path d="M73 234C73.7129 234.636 74.1145 235.265 74.2043 235.889C74.2403 236.174 74.3661 236.409 74.5818 236.592C103.594 261.428 146.384 262.114 177.095 240.449C179.108 239.033 180.969 236.931 182.874 235.203C182.93 235.151 182.97 235.085 182.989 235.011C183.007 234.939 183.003 234.861 182.979 234.789C182.954 234.718 182.909 234.655 182.849 234.608C182.789 234.561 182.717 234.533 182.64 234.526C182.425 234.508 182.36 234.436 182.443 234.312" stroke="#EAF0F3" stroke-width="2"/>
<path d="M183 234L186 233" stroke="#FDD6A2" stroke-width="2"/>
<path d="M186 233C203.235 223.855 217.717 210.706 229.444 193.555C232.625 188.902 235.127 184.213 236.951 179.486C237.059 179.204 236.987 178.991 236.735 178.849C236.339 178.628 236.127 178.345 236.096 178" stroke="#EAF0F3" stroke-width="2"/>
<path d="M235.447 178C240.988 172.186 242.039 165.704 238.599 158.556C238.461 158.283 238.549 158.123 238.862 158.074C256.227 155.527 260.852 133.709 246.433 124.387C246.368 124.347 246.316 124.292 246.279 124.227C246.243 124.161 246.224 124.088 246.224 124.014C246.224 123.94 246.243 123.868 246.279 123.803C246.316 123.738 246.368 123.682 246.433 123.641C258.01 116.202 256.546 99.768 244.481 93.6386C244.181 93.4809 244.134 93.2748 244.341 93.0201C253.75 81.2972 246.245 67.055 231 66" stroke="#8F848D" stroke-width="2"/>
<path d="M232.422 66C234.711 62.5439 235.475 58.8441 234.716 54.9004C232.627 44.0693 222.173 38.5705 211.346 40.9033C211.028 40.9711 210.851 40.8415 210.814 40.5145C209.937 31.7941 205.666 25.2892 198 21" stroke="#968990" stroke-width="2"/>
<path d="M198 21.5404C191.73 17.9698 185.431 17.7637 179.105 20.9221C179.037 20.9563 178.962 20.9754 178.886 20.978C178.809 20.9806 178.733 20.9668 178.664 20.9373C178.594 20.9079 178.532 20.8636 178.481 20.8075C178.431 20.7515 178.393 20.6851 178.371 20.613C173.663 5.95431 156.546 1.75314 145.679 12.8926C145.456 13.123 145.28 13.0897 145.153 12.7926C138.404 -3.69382 117.015 -4.30308 108.606 11.3012C108.45 11.5984 108.247 11.6347 107.998 11.4104C96.4057 0.816521 78.2189 5.71788 75.7244 21.8951C75.7111 21.9807 75.6777 22.062 75.6269 22.1321C75.5761 22.2021 75.5094 22.2591 75.4323 22.2982C75.3551 22.3373 75.2698 22.3575 75.1834 22.3569C75.0969 22.3565 75.0119 22.3352 74.9352 22.2952C60.4943 14.6567 46.0353 24.2958 45.7087 40.5548C45.7027 40.9004 45.5365 41.0216 45.2099 40.9185C29.6261 36.0263 17.3802 49.9757 22.6867 65.1436C22.8077 65.4769 22.6898 65.6588 22.333 65.689C10.2777 66.6893 1.90523 79.7384 9.14383 90.4595C9.56721 91.084 9.96633 91.7326 10.3413 92.4055C10.4085 92.5302 10.4272 92.6753 10.3936 92.8118C10.36 92.9483 10.2766 93.0662 10.1598 93.1421C-1.09725 100.598 -1.95898 114.884 8.78099 123.668C8.83859 123.717 8.88451 123.778 8.91547 123.846C8.94642 123.914 8.96162 123.989 8.95992 124.064C8.95822 124.139 8.93951 124.213 8.90538 124.28C8.87136 124.347 8.8226 124.405 8.76296 124.45C-4.39895 134.608 -0.135614 154.322 16.3553 157.651C16.6819 157.718 16.7605 157.896 16.5912 158.187C13.9666 162.728 13.5493 167.333 15.3394 172" stroke="#A09496" stroke-width="2"/>
<path d="M197.542 21C197.172 21.1911 197.012 21.5148 197.06 21.9712C197.091 22.2671 197.24 22.4768 197.505 22.6001C197.918 22.7975 198.072 23.1303 197.969 23.599C194.669 39.1562 180.935 52.5213 168.192 60.7994C153.767 70.1874 140.724 74.1553 126.172 80.1118C116.828 83.9317 112.938 91.5531 102.212 91.5623C102.082 91.5621 101.952 91.5287 101.835 91.4653C101.719 91.4018 101.62 91.3101 101.548 91.1986C101.475 91.0869 101.43 90.9587 101.418 90.8254C101.405 90.692 101.426 90.5575 101.476 90.4339C101.621 90.0886 101.903 89.8542 102.321 89.731C102.521 89.6725 102.7 89.5571 102.836 89.3985C102.972 89.2398 103.061 89.0447 103.092 88.8362C103.122 88.6278 103.093 88.4147 103.009 88.2224C102.923 88.0301 102.786 87.8668 102.612 87.7516L94.7049 82.4703C94.4395 82.2947 94.1176 82.2312 93.8084 82.2935C93.4991 82.3557 93.227 82.5388 93.0506 82.8033C89.0422 88.7135 77.0806 98.9427 69.5364 93.4121C69.4455 93.3443 69.3728 93.3628 69.3182 93.4676L69 94.0873" stroke="#382029" stroke-width="2"/>
<path d="M69 94.1697L68.4893 94.0276C68.34 93.9895 68.1836 93.9909 68.0357 94.0315C67.8878 94.072 67.7537 94.1503 67.647 94.2586C65.6695 96.2373 63.4084 97.8067 60.8634 98.9674C60.5527 99.1096 60.3914 99.3495 60.3794 99.6872C60.1106 106.067 58.1302 108.706 55.2178 113.273C53.2643 116.339 51.6782 120.382 51.6513 123.527C51.5857 132.2 52.0277 140.745 52.9775 149.162C53.0971 150.223 52.9119 150.276 52.422 149.322C49.0884 142.777 46.4569 135.953 44.5272 128.85C44.3838 128.326 44.0506 127.871 43.5911 127.575C43.1316 127.278 42.5781 127.159 42.0361 127.242L37 128.015" stroke="#8B5949" stroke-width="2"/>
<path d="M37 128C33.176 130.241 30.795 133.909 29.8573 139.005C29.0041 143.703 31.4727 150.172 32.0444 154.888C33.0912 163.471 34.38 171.91 35.9109 180.204C35.9446 180.388 35.9404 180.578 35.8985 180.759C35.8568 180.941 35.7782 181.113 35.6677 181.264C35.5573 181.414 35.4172 181.541 35.2561 181.635C35.095 181.73 34.9163 181.789 34.731 181.812C29.0434 182.523 24.2331 181.216 20.3002 177.891C18.8027 176.635 18.6667 174.855 17.3779 173.581C16.6457 172.858 15.8531 172.226 15 171.684" stroke="#311B26" stroke-width="2"/>
<path d="M231 66C225.737 77.3463 220.48 86.7428 215.229 94.1894C213.039 97.301 213.965 97.5291 213.974 100.705C214.014 108.809 213.601 116.892 212.736 124.952C212.615 126.093 212.156 126.868 212 128" stroke="#271020" stroke-width="2"/>
<path d="M212 128C211.971 128.083 211.896 128.175 211.774 128.275C211.611 128.4 211.516 128.566 211.488 128.773C210.445 135.915 208.283 142.657 205 149" stroke="#5D2C2C" stroke-width="2"/>
<path d="M205.052 149C205.153 135.952 208.682 122.411 201.441 112.49C198.252 108.132 196.226 104.538 196.135 99.0115C196.129 98.6341 195.933 98.46 195.548 98.4904C188.168 99.0228 182.124 96.5943 177.419 91.2023C177.188 90.9387 176.955 90.9327 176.723 91.1843C170.224 98.1579 157.411 99.7933 151.142 91.4089C150.966 91.1693 150.767 91.1543 150.547 91.364C143.801 97.7737 136.285 99.0767 128 95.2729" stroke="#733E37" stroke-width="2"/>
<path d="M128 95.1308L123.17 91.1117C123.122 91.0708 123.063 91.0401 123 91.0213C122.937 91.0025 122.87 90.996 122.804 91.0024C122.737 91.0087 122.673 91.0276 122.614 91.0581C122.556 91.0885 122.504 91.1297 122.463 91.179C114.905 100.498 102.517 99.8742 94.7123 91.4233C94.6707 91.3783 94.6191 91.3418 94.5609 91.3165C94.5025 91.2913 94.4391 91.2778 94.3747 91.2769C94.3103 91.2762 94.2463 91.2881 94.1873 91.3119C94.1283 91.3357 94.0757 91.3709 94.0328 91.4149C86.5395 99.2402 78.1952 100.091 69 93.968" stroke="#78443B" stroke-width="2"/>
<path d="M128 95C127.127 95.1964 126.461 95.5298 126 96" stroke="#BD6D4F" stroke-width="2"/>
<path d="M126 96.629C125.006 95.7199 123.851 95.334 122.537 95.4718C122.232 95.504 121.953 95.6399 121.755 95.8522C119.615 98.1122 117.065 99.7608 114.101 100.796C110.683 101.995 102.911 101.987 99.2845 101.02C94.7391 99.8073 90.2364 100.105 85.7763 101.913C85.4733 102.035 85.1764 102.028 84.8855 101.896C83.1493 101.111 81.6404 101.45 80.1042 101.045C75.6046 99.8373 72.1686 98.7954 69.2144 95.7034C69.1193 95.604 69.053 95.4848 69.0213 95.3563C68.9895 95.2278 68.9934 95.0942 69.0326 94.9674L69.3325 94" stroke="#CB7D5B" stroke-width="2"/>
<path d="M107 203C106.508 203.967 105.842 204.634 105 205" stroke="#6C3934" stroke-width="2"/>
<path d="M105 205L98 206" stroke="#8F6A3B" stroke-width="2"/>
<path d="M98 206C92.4038 207.713 87.404 210.046 83 213" stroke="#8F6337" stroke-width="2"/>
<path d="M83 213C79.7611 211.379 77.8462 209.121 77.2552 206.229C77.2381 206.141 77.1987 206.059 77.1411 205.991C77.0834 205.923 77.0093 205.872 76.9262 205.842C76.843 205.812 76.7537 205.805 76.667 205.821C76.5803 205.837 76.4993 205.876 76.4319 205.934C68.2171 212.88 56.5824 208.513 55.741 197.302C55.717 196.995 55.5632 196.903 55.2796 197.025C47.1191 200.557 41.0696 198.757 37.1311 191.626C35.8554 189.323 35.9007 186.173 35.7559 183.538C35.7438 183.219 35.581 183.086 35.2674 183.142C30.0441 184.057 25.2883 183.01 21 180" stroke="#7C7783" stroke-width="2"/>
<path d="M134 100L133 151" stroke="#CB7D5B" stroke-width="2"/>
<path d="M133 151.189C124.705 149.584 114.835 158.555 125.991 165" stroke="#C67757" stroke-width="2"/>
<path d="M126 165C127.607 165.557 129 166.471 130.178 167.741C131.499 169.148 136.468 174.085 139.734 174.254C140.05 174.273 140.085 174.38 139.836 174.573C139.309 174.999 139.225 175.474 139.585 176" stroke="#CB7D5B" stroke-width="2"/>
<path d="M140 176.508C129.703 177.388 117.725 177.38 108 174" stroke="#E9C2B0" stroke-width="2"/>
<path d="M106.922 173.849C106.612 172.739 105.871 172.125 104.701 172.008C104.465 171.985 104.227 172.013 104.005 172.09C103.782 172.168 103.582 172.293 103.419 172.455C103.257 172.616 103.136 172.812 103.067 173.025C102.998 173.237 102.982 173.463 103.02 173.682C104.14 179.941 110.553 184.613 116.462 186.7C124.944 189.692 133.457 189.765 142 186.919" stroke="#8F5242" stroke-width="2"/>
<path d="M142 187C143.012 190.93 144.876 194.392 147.592 197.386C147.786 197.603 147.904 197.863 147.945 198.164C148.113 199.49 147.896 200.722 147.293 201.861C147.167 202.103 146.984 202.253 146.743 202.313C146.407 202.398 146.216 202.627 146.169 203" stroke="#CB7D5B" stroke-width="2"/>
<path d="M146 203.388C133.559 204.303 121.107 204.192 108.644 203.055C108.345 203.027 108.051 203.045 107.759 203.109C107.265 203.215 107.011 203.178 107 203" stroke="#C67757" stroke-width="2"/>
<path d="M107 203C84.5805 197.371 61.6766 188.536 53.9291 164.026C53.8254 163.702 53.8254 163.381 53.9291 163.062L54.0846 162.603C54.2065 162.23 54.0755 162.073 53.6913 162.134C40.0075 164.274 30.2659 153.594 31.0434 140.37C31.33 135.546 33.3514 131.423 37.1079 128" stroke="#7A4940" stroke-width="2"/>
<path d="M205 149L203 162" stroke="#A25640" stroke-width="2"/>
<path d="M153.375 203C153.108 202.458 152.984 201.928 153.002 201.41C153.007 201.09 153.153 200.869 153.437 200.745C161.809 197.095 169.869 189.84 171.149 179.942C171.309 178.728 171.179 176.721 170.758 173.917C169.875 167.978 170.817 162.332 173.584 156.977C174.419 155.351 176.09 153.586 176.935 151.432C177.089 151.039 176.97 150.9 176.579 151.017C175.845 151.233 175.314 151.07 174.988 150.527C174.841 150.275 174.624 150.157 174.34 150.176C173.978 150.201 173.643 150.142 173.335 150" stroke="#BD6D4F" stroke-width="2"/>
<path d="M173 150C176.923 147.747 179.256 144.08 180 139" stroke="#A25640" stroke-width="2"/>
<path d="M180.656 139.28C182.139 140.963 183.416 141.868 184.488 141.992C184.905 142.042 185.067 141.858 184.975 141.438C183.395 134.018 179.07 128.872 172 126" stroke="#63372B" stroke-width="2"/>
<path d="M171.563 126L172.144 122.245C172.19 121.948 172.146 121.67 172.014 121.409C170.389 118.134 170.717 115.331 173 113" stroke="#BD6D4F" stroke-width="2"/>
<path d="M173.265 112.56C177.11 114.095 180.689 116.197 184.002 118.868C184.108 118.95 184.236 118.996 184.371 119C184.504 119.002 184.636 118.963 184.745 118.886C184.853 118.809 184.933 118.699 184.973 118.573C185.012 118.448 185.009 118.313 184.962 118.189C182.314 111.514 177.66 106.451 171 103" stroke="#733E37" stroke-width="2"/>
<path d="M171 103L166.585 99.8577C166.394 99.7236 166.181 99.665 165.943 99.6817L165.293 99.7236C164.98 99.7508 164.668 99.6702 164.413 99.4974C163.087 98.6039 161.72 98.4918 160.309 99.1622C160.004 99.3078 159.68 99.3497 159.338 99.2879C157.47 98.959 155.662 98.4363 153.915 97.7209C152.679 97.2181 151.167 95.333 149.555 96.2461C144.297 99.202 139.112 100.509 134 100.168" stroke="#BD6D4F" stroke-width="2"/>
<path d="M134 100C131.219 99.1148 128.553 97.7818 126 96" stroke="#C67757" stroke-width="2"/>
<path d="M236 178C231.789 181.945 226.821 183.771 221.094 183.476C220.794 183.457 220.632 183.602 220.609 183.909C220.384 186.479 220.447 189.231 219.351 191.459C215.802 198.693 207.068 200.57 200.24 196.573C199.893 196.369 199.706 196.469 199.683 196.871C199.009 207.813 188.38 212.107 179.781 206.108C179.723 206.068 179.657 206.039 179.588 206.025C179.519 206.01 179.447 206.009 179.378 206.023C179.308 206.036 179.242 206.063 179.183 206.103C179.125 206.142 179.075 206.194 179.035 206.253C177.032 209.311 176.151 211.214 172 213" stroke="#7C7783" stroke-width="2"/>
<path d="M172 213C169.099 211.412 166.356 210.113 163.774 209.106C161.053 208.049 157.462 207.013 153 206" stroke="#8E5D32" stroke-width="2"/>
<path d="M153 206L147 204" stroke="#8F6A3B" stroke-width="2"/>
<path d="M147 204L153 203" stroke="#713F38" stroke-width="2"/>
<path d="M153 203C175.481 198.876 197.981 186.276 203 162" stroke="#6C3934" stroke-width="2"/>
<path d="M203 161.5C220.875 165.685 233.303 142.601 221.156 129.898C218.587 127.226 215.627 126.528 212.104 127.289" stroke="#562829" stroke-width="2"/>
<path d="M153 206C152.268 221.671 148.102 233.019 130 236" stroke="#FDBC4F" stroke-width="2"/>
<path d="M130 236.653C118.145 238.699 105.855 231.533 101.882 219.794C101.864 219.738 101.38 217.402 100.431 212.789C99.9229 210.33 99.1122 208.067 98 206" stroke="#FEC154" stroke-width="2"/>
<path d="M83 213C76.5339 217.918 72.2005 223.918 70 231" stroke="#EACF9C" stroke-width="2"/>
<path d="M147 204.043C146.596 203.909 146.417 204.096 146.426 204.488C146.83 233.534 107.215 235.413 105 204.622" stroke="#DB9852" stroke-width="2"/>
<path d="M126 249C107.286 248.909 89.1013 243.665 73 234" stroke="#EACF9C" stroke-width="2"/>
<path d="M170.935 103.319C165.955 101.953 156.101 100.235 153.144 106.278C153.013 106.537 152.97 106.837 153.021 107.128C153.377 109.286 154.482 110.499 156.338 110.766C161.09 111.453 167.32 110.518 173 113" stroke="#78443B" stroke-width="2"/>
<path d="M172 126.452C163.748 124.696 154.458 127.993 154.001 137.464C153.97 138.05 154.49 138.155 155.562 137.781" stroke="#683D2F" stroke-width="2"/>
<path d="M156.132 138C155.388 145.382 157.794 150.166 163.35 152.353C166.54 153.608 170.08 152.918 173 151.304" stroke="#A75C44" stroke-width="2"/>
<path d="M147 204L146 203" stroke="#BD6D4F" stroke-width="2"/>
<path d="M142 187C147.641 184.705 153.407 180.25 154.955 173.909C155.028 173.61 155.012 173.295 154.909 173.005C154.806 172.716 154.621 172.465 154.378 172.286C154.135 172.107 153.844 172.007 153.545 172C153.247 171.994 152.952 172.08 152.702 172.249C152.097 172.648 151.525 173.27 150.986 174.118" stroke="#86483B" stroke-width="2"/>
<path d="M150 174C146.626 175.21 143.294 175.877 140 176" stroke="#E0B8A8" stroke-width="2"/>
<path d="M126 165C126.517 165 126.849 165 127 165" stroke="#BD6D4F" stroke-width="2"/>
<path d="M127 164.65C130.229 165.392 133.714 164.954 137.45 163.336C139.196 162.574 140.045 161.462 139.998 160" stroke="#DA8A65" stroke-width="2"/>
<path d="M139.773 160C140.764 156.261 138.507 153.261 133 151" stroke="#BD6D4F" stroke-width="2"/>
<path d="M108 174C114.881 189.493 143.365 190.273 150 174.651" stroke="#A38D90" stroke-width="2"/>
<path d="M140 159.982C135.097 155.242 127.373 156.374 124.092 161.812C124.014 161.939 123.985 162.087 124.007 162.233C124.03 162.379 124.104 162.514 124.218 162.617L126.895 165" stroke="#D58461" stroke-width="2"/>
<path d="M180 138.631C178.897 136.436 177.802 134.923 176.718 134.094C175.889 133.461 174.986 133.098 174.009 133.005C173.842 132.986 173.673 133.022 173.532 133.107C173.388 133.192 173.28 133.321 173.223 133.474C173.166 133.626 173.164 133.792 173.217 133.946C173.271 134.099 173.376 134.231 173.517 134.318C177.46 136.903 176.638 142.978 173.624 145.658C167.758 150.887 160.685 146.704 160.006 139.582C159.975 139.3 160.068 139.058 160.283 138.856C160.98 138.223 161.447 137.551 161.687 136.842" stroke="#4C261F" stroke-width="2"/>
<path d="M161.063 136.971C164.252 137.369 166.115 133.605 164.269 130.715C164.107 130.457 163.89 130.286 163.619 130.201C161.562 129.568 160.023 130.431 159 132.791" stroke="#858284" stroke-width="2"/>
<path d="M159 133.007C157.6 132.878 156.6 134.542 156 138" stroke="#4C261F" stroke-width="2"/>
<path d="M186 233C183.813 225.154 179.147 218.486 172 213" stroke="#EAC997" stroke-width="2"/>
<path d="M183 234C165.062 244.08 146.062 249.08 126 248.999" stroke="#EAC997" stroke-width="2"/>
<path d="M126 249C126.267 248.351 126.959 247.86 128.077 247.525C128.375 247.438 128.484 247.207 128.402 246.835C127.707 243.747 127.67 240.721 128.293 237.759C128.345 237.513 128.309 237.314 128.185 237.163C128.041 236.981 128.071 236.867 128.278 236.823C128.921 236.69 129.495 236.416 130 236" stroke="#FDB54B" stroke-width="2"/>
<path d="M161 137C159.522 136.369 158.864 135.036 159.023 133" stroke="#C4A199" stroke-width="2"/>
<path d="M103.092 103.874C101.393 102.834 99.5538 102.237 97.575 102.084C86.3787 101.198 76.5017 107.383 73.0425 117.857C72.9829 118.039 72.9861 118.235 73.0514 118.416C73.1168 118.595 73.2407 118.75 73.4046 118.855C73.5683 118.961 73.763 119.01 73.9589 118.998C74.1548 118.986 74.3412 118.912 74.4898 118.788C83.1742 111.388 90.0289 110.759 101.344 110.316C105.094 110.166 106.432 105.912 103.092 103.874Z" stroke="#814E43" stroke-width="2"/>
<path d="M79 138.206C79.1893 142.27 79.9585 145.401 81.3074 147.599C84.8392 153.371 92.3289 154.572 97.7948 150.934C101.866 148.227 103.548 143.916 102.844 138" stroke="#B0664B" stroke-width="2"/>
<path d="M104.188 137.406C105.127 136.076 105.252 134.714 104.562 133.322C101.457 126.985 95.1338 123.995 87.9861 125.301C79.6503 126.819 73.5949 133.681 71.0271 141.186C71.0045 141.253 70.9959 141.322 71.0018 141.391C71.0075 141.46 71.0275 141.528 71.0607 141.589C71.0938 141.65 71.1393 141.702 71.1945 141.746C71.2496 141.79 71.3132 141.821 71.3816 141.839C74.4572 142.713 76.7758 139.843 78.4429 137.617" stroke="#714736" stroke-width="2"/>
<path d="M103 137.155C102.46 136.213 97.3476 129.66 96.2765 131.247C96.0256 131.614 95.9232 132.069 95.9907 132.515C96.0571 132.961 96.2889 133.362 96.6365 133.636C103.927 139.377 98.4096 150.494 89.7415 148.833C85.3971 148 83.15 144.546 83 138.471" stroke="#4C261F" stroke-width="2"/>
<path d="M83.3104 138.872C87.4502 139.615 89.9593 137.053 88.6525 133.165C87.1262 128.665 81.8677 132.09 81 135.225" stroke="#858284" stroke-width="2"/>
<path d="M81 135C79.9236 135.898 79.2569 136.898 79 138" stroke="#4C261F" stroke-width="2"/>
<path d="M83 139C81.8838 138.096 81.2172 136.763 81 135" stroke="#C4A199" stroke-width="2"/>
<path d="M67.6212 178C68.3714 179.084 69.4305 179.744 70.7986 179.98C71.1271 180.035 71.4639 179.976 71.7568 179.813C72.0498 179.65 72.2825 179.391 72.4188 179.079C72.5552 178.765 72.5877 178.414 72.5112 178.079C72.4347 177.745 72.2535 177.446 71.9958 177.229C65.857 172.042 64.2548 162.775 70.0245 156.64C70.2659 156.385 70.5741 156.207 70.9124 156.128C71.2507 156.049 71.6049 156.072 71.9328 156.194C73.859 156.919 79.0976 156.761 78.9986 153.619C78.9905 153.286 78.8969 152.963 78.7275 152.682C78.558 152.401 78.319 152.172 78.0355 152.021C73.739 149.671 69.2324 148.693 64.5159 149.084C59.3403 149.52 59.1962 155.692 59.0162 159.698C58.6742 166.995 63.8138 172.526 67.6212 178Z" stroke="#E3946D" stroke-width="2"/>
<path d="M197.544 21.4952C197.176 21.6828 197.017 22.0004 197.064 22.448C197.095 22.7384 197.243 22.9442 197.508 23.0652C197.918 23.2587 198.072 23.5854 197.969 24.0451C194.684 39.3081 181.01 52.4205 168.322 60.5421C153.959 69.7525 140.973 73.6454 126.484 79.4893C117.18 83.237 113.307 90.7142 102.628 90.7234C102.498 90.7231 102.369 90.6904 102.253 90.6281C102.137 90.5659 102.039 90.476 101.966 90.3665C101.894 90.257 101.85 90.1312 101.837 90.0003C101.825 89.8694 101.845 89.7376 101.895 89.6163C102.04 89.2776 102.321 89.0476 102.737 88.9266C102.936 88.8693 103.114 88.756 103.249 88.6005C103.385 88.4449 103.473 88.2534 103.504 88.0489C103.534 87.8444 103.505 87.6353 103.421 87.4467C103.336 87.2581 103.2 87.0977 103.026 86.9847L95.1534 81.8032C94.8893 81.6311 94.5688 81.5688 94.2609 81.6298C93.953 81.691 93.682 81.8705 93.5064 82.1299C89.5153 87.9284 77.6057 97.9643 70.0942 92.5383C70.0037 92.4717 69.9314 92.4899 69.8771 92.5926L69.5603 93.2006L69.0446 93.0554C68.8938 93.0166 68.7357 93.0181 68.5864 93.0595C68.4371 93.1009 68.3017 93.1809 68.1939 93.2914C66.1968 95.3123 63.9133 96.9151 61.3431 98.1004C61.0293 98.2456 60.8664 98.4906 60.8543 98.8354C60.5828 105.351 58.5827 108.046 55.6415 112.71C53.6686 115.841 52.0668 119.97 52.0397 123.182C51.9734 132.038 52.4197 140.766 53.379 149.361C53.4997 150.445 53.3128 150.499 52.8179 149.525C49.4514 142.84 46.7938 135.871 44.845 128.617C44.7002 128.082 44.3636 127.618 43.8996 127.315C43.4356 127.012 42.8765 126.891 42.3292 126.975L37.2432 127.764C33.4301 130.015 31.056 133.699 30.1209 138.817C29.2702 143.536 31.7316 150.033 32.3018 154.77C33.3456 163.39 34.6307 171.866 36.1571 180.196C36.1908 180.381 36.1866 180.571 36.1448 180.754C36.1032 180.937 36.0248 181.109 35.9146 181.261C35.8046 181.412 35.6649 181.539 35.5042 181.633C35.3436 181.728 35.1654 181.788 34.9807 181.811C29.3093 182.526 24.5129 181.212 20.5912 177.873C19.098 176.612 18.9623 174.824 17.6772 173.544C16.9471 172.818 16.1569 172.183 15.3062 171.639C13.5203 166.981 13.9366 162.386 16.5551 157.855C16.724 157.565 16.6456 157.386 16.3198 157.32C-0.132984 153.998 -4.38644 134.325 8.74498 124.189C8.80449 124.144 8.85313 124.086 8.88706 124.019C8.92112 123.952 8.93978 123.878 8.94148 123.803C8.94318 123.729 8.92802 123.654 8.89713 123.586C8.86625 123.518 8.82044 123.458 8.76297 123.409C-1.95213 114.643 -1.09239 100.387 10.1386 92.9465C10.2551 92.8708 10.3383 92.7531 10.3718 92.6169C10.4054 92.4807 10.3867 92.3359 10.3197 92.2115C9.94557 91.54 9.54737 90.8928 9.12497 90.2697C1.90313 79.5711 10.2562 66.5493 22.2835 65.5511C22.6395 65.5209 22.7572 65.3395 22.6365 65.0068C17.3423 49.8708 29.5598 35.9506 45.1075 40.8326C45.4333 40.9355 45.5992 40.8145 45.6052 40.4696C45.931 24.2447 60.3565 14.6259 74.764 22.2484C74.8405 22.2883 74.9253 22.3095 75.0116 22.31C75.0978 22.3105 75.1829 22.2904 75.2599 22.2513C75.3368 22.2123 75.4034 22.1555 75.454 22.0856C75.5047 22.0156 75.5381 21.9345 75.5513 21.8491C78.0401 5.70587 96.1847 0.814806 107.75 11.3864C107.998 11.6103 108.201 11.574 108.357 11.2775C116.746 -4.29404 138.086 -3.68606 144.819 12.7657C144.946 13.0622 145.121 13.0954 145.344 12.8655C156.186 1.74946 173.263 5.9418 177.96 20.5697C177.982 20.6417 178.02 20.7079 178.069 20.7638C178.12 20.8197 178.183 20.864 178.253 20.8934C178.322 20.9227 178.397 20.9366 178.474 20.934C178.55 20.9314 178.625 20.9123 178.693 20.8782C185.004 17.7264 191.288 17.9321 197.544 21.4952Z" fill="#422B2F"/>
<path d="M198.633 21C206.168 25.2304 210.366 31.6462 211.227 40.2471C211.264 40.5696 211.438 40.6974 211.75 40.6306C222.392 38.3297 232.668 43.7532 234.721 54.4359C235.467 58.3255 234.716 61.9746 232.466 65.3834C226.893 76.7355 221.327 86.137 215.765 93.5875C213.446 96.7005 214.427 96.9288 214.436 100.106C214.479 108.214 214.042 116.301 213.125 124.366C212.997 125.507 212.511 126.283 212.346 127.415C212.316 127.501 212.236 127.596 212.107 127.699C211.937 127.826 211.836 127.998 211.805 128.21C210.705 135.551 208.423 142.481 204.958 149C205.058 135.743 208.588 121.983 201.346 111.903C198.156 107.474 196.13 103.822 196.039 98.207C196.033 97.8236 195.837 97.6478 195.452 97.6775C188.071 98.2196 182.026 95.7509 177.32 90.2731C177.089 90.0052 176.856 89.9992 176.624 90.2548C170.125 97.3396 157.31 99.0014 151.04 90.4831C150.864 90.2396 150.664 90.2243 150.444 90.4374C143.698 96.9504 136.181 98.2744 127.895 94.4092L123.073 90.054C123.025 90.0098 122.966 89.9765 122.903 89.956C122.84 89.9356 122.774 89.9286 122.707 89.9355C122.641 89.9423 122.577 89.963 122.518 89.996C122.46 90.0288 122.408 90.0735 122.367 90.127C114.823 100.225 102.457 99.5492 94.6663 90.3918C94.6248 90.3428 94.5733 90.3033 94.5152 90.2759C94.457 90.2486 94.3936 90.2339 94.3293 90.2331C94.265 90.2322 94.2012 90.2451 94.1423 90.2709C94.0834 90.2967 94.0308 90.3348 93.9881 90.3827C86.5082 98.8621 78.1788 99.7843 69 93.1492L69.3209 92.5375C69.3759 92.4339 69.4493 92.4157 69.5409 92.4827C77.1492 97.9422 89.2123 87.8444 93.2548 82.01C93.4326 81.7489 93.707 81.5682 94.0189 81.5068C94.3308 81.4453 94.6554 81.5079 94.9231 81.6813L102.897 86.8948C103.073 87.0085 103.211 87.1697 103.297 87.3595C103.382 87.5493 103.412 87.7597 103.381 87.9655C103.35 88.1712 103.261 88.3639 103.123 88.5205C102.986 88.6771 102.806 88.791 102.604 88.8487C102.182 88.9704 101.898 89.2017 101.752 89.5426C101.701 89.6647 101.681 89.7974 101.693 89.9291C101.706 90.0607 101.75 90.1873 101.824 90.2975C101.897 90.4076 101.997 90.4982 102.114 90.5607C102.232 90.6234 102.362 90.6563 102.494 90.6566C113.311 90.6474 117.234 83.1239 126.657 79.353C141.333 73.473 154.487 69.556 169.034 60.2885C181.885 52.1167 195.736 38.9232 199.064 23.5657C199.168 23.103 199.012 22.7744 198.596 22.5796C198.328 22.4578 198.178 22.2509 198.147 21.9587C198.099 21.5082 198.26 21.1887 198.633 21Z" fill="#2E1423"/>
<path d="M231.738 66C246.515 67.0529 253.789 81.2673 244.669 92.9675C244.469 93.2216 244.514 93.4273 244.805 93.5847C256.499 99.7022 257.917 116.104 246.696 123.529C246.635 123.57 246.584 123.625 246.549 123.69C246.513 123.755 246.495 123.827 246.495 123.901C246.495 123.975 246.513 124.048 246.549 124.113C246.584 124.178 246.635 124.234 246.696 124.273C260.672 133.577 256.189 155.353 239.358 157.894C239.056 157.943 238.971 158.103 239.104 158.375C242.439 165.51 241.42 171.979 236.049 177.782C231.787 181.752 226.759 183.589 220.963 183.291C220.661 183.273 220.497 183.418 220.472 183.727C220.245 186.314 220.309 189.082 219.199 191.324C215.608 198.604 206.769 200.492 199.858 196.471C199.507 196.266 199.32 196.365 199.295 196.771C198.613 207.781 187.856 212.101 179.154 206.065C179.095 206.024 179.029 205.996 178.958 205.981C178.889 205.967 178.816 205.965 178.746 205.979C178.675 205.993 178.608 206.02 178.549 206.06C178.49 206.099 178.439 206.151 178.399 206.21C176.371 209.288 175.48 211.203 171.279 213C168.473 211.264 165.821 209.845 163.323 208.743C160.693 207.588 157.219 206.456 152.902 205.348L147.483 203.732C147.083 203.376 146.932 203.17 147.028 203.115L152.748 202.552C175.189 198.468 197.649 185.987 202.659 161.942C220.563 166.136 233.011 143.008 220.845 130.282C218.272 127.605 215.307 126.906 211.779 127.668C211.943 126.543 212.425 125.771 212.552 124.636C213.462 116.619 213.896 108.579 213.853 100.519C213.843 97.3603 212.871 97.1334 215.171 94.0385C220.688 86.6318 226.21 77.2855 231.738 66Z" fill="#200B1D"/>
<path d="M128 95.0861C127.239 95.3807 126.658 95.8807 126.256 96.586C125.257 95.6697 124.098 95.2807 122.777 95.4195C122.471 95.452 122.191 95.589 121.992 95.803C119.843 98.0811 117.28 99.7429 114.304 100.787C110.871 101.995 103.064 101.987 99.4205 101.012C94.8547 99.7897 90.3318 100.09 85.8517 101.912C85.5473 102.035 85.249 102.029 84.9569 101.895C83.2129 101.104 81.6972 101.445 80.154 101.037C75.6343 99.82 72.1828 98.7698 69.2153 95.6529C69.1198 95.5528 69.0532 95.4327 69.0214 95.3032C68.9894 95.1737 68.9933 95.0389 69.0327 94.9112L69.334 93.9359C78.4769 99.9929 86.7739 99.1511 94.2246 91.4104C94.2673 91.3669 94.3197 91.3321 94.3784 91.3085C94.4369 91.285 94.5005 91.2732 94.5645 91.2739C94.6287 91.2748 94.6917 91.2881 94.7497 91.3131C94.8076 91.3381 94.859 91.3742 94.9003 91.4188C102.662 99.7783 114.979 100.395 122.494 91.1771C122.534 91.1283 122.585 91.0876 122.644 91.0574C122.702 91.0273 122.766 91.0086 122.832 91.0023C122.898 90.9961 122.964 91.0024 123.027 91.0211C123.09 91.0396 123.148 91.07 123.197 91.1105L128 95.0861Z" fill="#C27353"/>
<path d="M205.049 149.58L203.238 162.395C198.172 186.437 175.463 198.916 152.773 203C152.497 202.467 152.368 201.947 152.387 201.439C152.392 201.124 152.543 200.906 152.837 200.786C161.498 197.201 169.837 190.076 171.161 180.356C171.326 179.164 171.192 177.191 170.756 174.439C169.842 168.605 170.817 163.06 173.68 157.803C174.544 156.205 176.272 154.472 177.146 152.357C177.306 151.969 177.183 151.833 176.778 151.949C176.018 152.16 175.469 152 175.132 151.468C174.98 151.219 174.755 151.105 174.461 151.123C174.088 151.147 173.741 151.089 173.422 150.951C177.205 148.566 179.454 144.688 180.171 139.315C181.654 140.942 182.932 141.817 184.005 141.938C184.422 141.986 184.584 141.808 184.492 141.403C182.91 134.226 178.584 129.25 171.51 126.473L172.209 122.643C172.264 122.34 172.212 122.056 172.052 121.79C170.098 118.45 170.493 115.591 173.238 113.214C176.922 114.689 180.351 116.713 183.526 119.285C183.626 119.364 183.751 119.408 183.879 119.411C184.007 119.415 184.133 119.376 184.237 119.302C184.341 119.227 184.418 119.122 184.455 119.002C184.493 118.88 184.49 118.75 184.446 118.632C181.908 112.206 177.449 107.332 171.069 104.011L166.637 100.607C166.448 100.462 166.233 100.399 165.994 100.417L165.341 100.462C165.027 100.49 164.713 100.403 164.458 100.217C163.129 99.2482 161.755 99.128 160.339 99.854C160.033 100.011 159.708 100.056 159.365 99.9902C157.489 99.6328 155.675 99.0667 153.922 98.293C152.681 97.7485 151.164 95.7059 149.546 96.6957C144.268 99.896 139.065 101.312 133.934 100.943C131.176 100.059 128.532 98.7286 126 96.9498C126.405 96.1806 126.989 95.6363 127.756 95.3156C136.067 99.1575 143.606 97.8415 150.373 91.3676C150.594 91.1558 150.793 91.171 150.971 91.413C157.259 99.8813 170.113 98.2295 176.631 91.1861C176.864 90.932 177.096 90.9381 177.33 91.2043C182.05 96.6503 188.111 99.103 195.515 98.5653C195.902 98.5347 196.098 98.7105 196.104 99.0917C196.196 104.673 198.228 108.304 201.427 112.705C208.69 122.725 205.151 136.402 205.049 149.58Z" fill="#B8674B"/>
<path d="M69.4214 94.1728L69.1224 95.2312C69.0833 95.3699 69.0795 95.5161 69.1111 95.6566C69.1427 95.7972 69.2089 95.9277 69.3036 96.0363C72.2495 99.419 75.6759 100.559 80.1628 101.88C81.6947 102.323 83.1993 101.952 84.9306 102.811C85.2207 102.956 85.5168 102.963 85.8189 102.829C90.2665 100.852 94.7563 100.526 99.2888 101.852C102.905 102.911 110.656 102.92 114.064 101.608C117.019 100.475 119.562 98.6716 121.696 96.1992C121.893 95.9669 122.172 95.8182 122.475 95.783C123.786 95.6322 124.938 96.0544 125.929 97.0489C128.424 98.822 131.032 100.15 133.751 101.029L132.745 151.679C124.442 150.041 114.562 159.196 125.73 165.773C127.294 166.31 128.651 167.191 129.799 168.414C131.087 169.771 135.927 174.529 139.109 174.692C139.417 174.71 139.45 174.813 139.208 175C138.694 175.41 138.612 175.868 138.963 176.375C128.685 177.352 116.729 177.343 107.021 173.589C106.718 172.443 105.999 171.81 104.863 171.689C104.635 171.665 104.402 171.695 104.187 171.775C103.971 171.854 103.777 171.983 103.618 172.15C103.461 172.318 103.344 172.519 103.277 172.738C103.209 172.959 103.194 173.191 103.232 173.417C104.32 179.876 110.547 184.697 116.284 186.85C124.521 189.938 132.787 190.014 141.085 187.076C142.25 191.009 144.399 194.474 147.529 197.471C147.753 197.688 147.888 197.948 147.937 198.249C148.13 199.576 147.879 200.809 147.185 201.948C147.04 202.19 146.828 202.341 146.55 202.401C146.163 202.486 145.943 202.715 145.889 203.088C133.264 204.452 120.629 204.286 107.982 202.591C107.679 202.549 107.38 202.576 107.084 202.672C106.582 202.829 106.325 202.775 106.314 202.509C84.0967 196.964 61.3996 188.262 53.7221 164.117C53.6193 163.798 53.6193 163.482 53.7221 163.167L53.8762 162.715C53.9969 162.348 53.8671 162.194 53.4864 162.254C39.9261 164.362 30.2726 153.841 31.043 140.814C31.327 136.063 33.3302 132.001 37.0527 128.629L42.1469 127.842C42.6951 127.758 43.255 127.879 43.7198 128.181C44.1845 128.483 44.5216 128.946 44.6667 129.479C46.6186 136.711 49.2804 143.658 52.6524 150.322C53.148 151.293 53.3352 151.239 53.2143 150.159C52.2535 141.59 51.8064 132.89 51.8729 124.061C51.9001 120.858 53.5044 116.742 55.4804 113.622C58.4263 108.972 60.4296 106.285 60.7015 99.7899C60.7136 99.4462 60.8768 99.2019 61.1911 99.0572C63.7654 97.8755 66.0525 96.2777 68.0528 94.2633C68.1609 94.153 68.2964 94.0733 68.4461 94.032C68.5957 93.9908 68.7538 93.9893 68.9049 94.0281L69.4214 94.1728ZM102.044 104.512C100.352 103.451 98.5206 102.842 96.5514 102.685C85.402 101.78 75.5672 108.094 72.1227 118.787C72.0633 118.973 72.0665 119.174 72.1315 119.357C72.1967 119.541 72.3201 119.699 72.4832 119.807C72.6463 119.914 72.8401 119.965 73.0351 119.953C73.2303 119.94 73.4159 119.865 73.5638 119.737C82.2112 112.183 89.0367 111.541 100.304 111.089C104.039 110.935 105.371 106.593 102.044 104.512ZM78.8212 137.829C79.0146 141.93 79.8002 145.091 81.178 147.31C84.7856 153.135 92.4359 154.347 98.0198 150.675C102.177 147.943 103.896 143.592 103.177 137.621C104.066 136.313 104.184 134.974 103.531 133.605C100.594 127.372 94.6114 124.432 87.8494 125.716C79.9634 127.209 74.2346 133.957 71.8053 141.339C71.7842 141.405 71.776 141.472 71.7815 141.54C71.787 141.608 71.8059 141.675 71.8373 141.735C71.8686 141.795 71.9116 141.847 71.9637 141.89C72.016 141.933 72.0761 141.963 72.1407 141.981C75.0504 142.841 77.244 140.018 78.8212 137.829ZM67.0829 177.94C67.8382 178.996 68.9049 179.638 70.2826 179.867C70.6134 179.921 70.9526 179.863 71.2475 179.705C71.5426 179.546 71.7769 179.295 71.9142 178.989C72.0515 178.685 72.0843 178.344 72.0072 178.018C71.9302 177.692 71.7478 177.4 71.4882 177.189C65.3063 172.141 63.6929 163.122 69.5031 157.152C69.7461 156.904 70.0565 156.731 70.3972 156.654C70.7379 156.577 71.0946 156.599 71.4247 156.718C73.3645 157.423 78.6399 157.269 78.5402 154.212C78.532 153.888 78.4377 153.574 78.2672 153.299C78.0966 153.026 77.8559 152.804 77.5704 152.656C73.2436 150.371 68.7054 149.417 63.9557 149.797C58.7437 150.222 58.5987 156.229 58.4174 160.128C58.073 167.229 63.2487 172.612 67.0829 177.94Z" fill="#D48762"/>
<path d="M170.905 103.643C165.716 102.335 155.447 100.688 152.365 106.479C152.229 106.727 152.185 107.016 152.237 107.293C152.609 109.361 153.76 110.523 155.693 110.779C160.645 111.438 167.138 110.541 173.057 112.92C170.334 115.317 169.942 118.199 171.881 121.566C172.039 121.835 172.09 122.122 172.036 122.426L171.343 126.287C163.436 124.567 154.535 127.797 154.097 137.074C154.068 137.648 154.566 137.751 155.593 137.385C154.816 144.918 157.333 149.8 163.144 152.033C166.482 153.314 170.184 152.609 173.239 150.962C173.556 151.103 173.899 151.161 174.27 151.136C174.562 151.118 174.784 151.235 174.936 151.484C175.271 152.021 175.815 152.183 176.568 151.969C176.969 151.853 177.091 151.99 176.933 152.38C176.066 154.512 174.352 156.26 173.495 157.87C170.656 163.171 169.69 168.761 170.595 174.64C171.027 177.416 171.16 179.405 170.996 180.606C169.683 190.404 161.411 197.586 152.821 201.2C152.529 201.323 152.381 201.542 152.374 201.859C152.356 202.371 152.483 202.896 152.757 203.433L147.021 204L146.282 203.771C146.337 203.394 146.559 203.162 146.948 203.076C147.228 203.015 147.44 202.863 147.586 202.618C148.286 201.466 148.538 200.219 148.343 198.876C148.295 198.572 148.158 198.309 147.933 198.09C144.784 195.059 142.623 191.555 141.449 187.577C147.294 185.263 153.268 180.77 154.873 174.375C154.949 174.074 154.932 173.756 154.826 173.465C154.719 173.173 154.527 172.92 154.275 172.74C154.022 172.559 153.722 172.458 153.412 172.451C153.102 172.445 152.798 172.531 152.538 172.701C151.912 173.103 151.319 173.732 150.76 174.585C146.9 175.897 143.084 176.62 139.315 176.754C138.962 176.241 139.044 175.778 139.561 175.363C139.805 175.174 139.771 175.07 139.46 175.052C136.26 174.887 131.39 170.075 130.095 168.703C128.94 167.465 127.575 166.574 126 166.031C126.25 165.702 126.41 165.632 126.483 165.821C129.779 166.693 133.332 166.177 137.144 164.274C138.926 163.378 139.792 162.069 139.743 160.349C140.722 156.788 138.494 153.93 133.059 151.777L134.071 100.551C139.16 100.923 144.321 99.4961 149.556 96.2687C151.161 95.2717 152.666 97.33 153.897 97.879C155.636 98.6601 157.435 99.2308 159.296 99.5899C159.636 99.6573 159.959 99.6116 160.262 99.4526C161.667 98.7207 163.029 98.8431 164.348 99.8186C164.601 100.007 164.913 100.095 165.223 100.066L165.871 100.02C166.108 100.002 166.321 100.066 166.509 100.212L170.905 103.643Z" fill="#C27353"/>
<path d="M103.092 103.874C106.432 105.912 105.094 110.166 101.344 110.316C90.0289 110.759 83.1742 111.388 74.4898 118.788C74.3412 118.912 74.1548 118.986 73.9589 118.998C73.763 119.01 73.5683 118.961 73.4046 118.855C73.2407 118.75 73.1168 118.595 73.0514 118.416C72.9861 118.235 72.9829 118.039 73.0425 117.857C76.5017 107.383 86.3787 101.198 97.575 102.084C99.5538 102.237 101.393 102.834 103.092 103.874Z" fill="#2E1423"/>
<path d="M171.693 103.279C178.024 106.67 182.447 111.645 184.965 118.204C185.008 118.325 185.012 118.458 184.974 118.582C184.936 118.704 184.861 118.812 184.757 118.889C184.654 118.964 184.529 119.003 184.402 119C184.275 118.996 184.152 118.951 184.053 118.871C180.902 116.246 177.5 114.18 173.846 112.673C167.926 110.265 161.432 111.173 156.479 110.506C154.545 110.246 153.392 109.07 153.022 106.976C152.968 106.693 153.014 106.403 153.15 106.151C156.233 100.287 166.503 101.955 171.693 103.279Z" fill="#2E1423"/>
<path d="M104.188 137.366C103.613 136.44 98.171 130.004 97.0308 131.562C96.7637 131.923 96.6547 132.37 96.7266 132.808C96.7984 133.246 97.0451 133.641 97.414 133.909C105.175 139.548 99.3016 150.468 90.0748 148.836C85.4501 148.017 83.058 144.625 82.8984 138.659C86.6926 139.337 88.9921 136.999 87.7945 133.451C86.3956 129.344 81.576 132.47 80.7808 135.331C79.5225 136.003 78.7432 136.752 78.4429 137.577C76.7758 139.796 74.4572 142.656 71.3816 141.785C71.3132 141.767 71.2496 141.736 71.1945 141.692C71.1393 141.649 71.0938 141.596 71.0607 141.535C71.0275 141.474 71.0075 141.407 71.0018 141.338C70.9959 141.269 71.0045 141.201 71.0271 141.134C73.5949 133.653 79.6503 126.813 87.9861 125.3C95.1338 123.998 101.457 126.978 104.562 133.295C105.252 134.683 105.127 136.04 104.188 137.366Z" fill="#0D070A"/>
<path d="M171.734 126.418C178.948 129.061 183.362 133.796 184.975 140.625C185.068 141.011 184.903 141.181 184.478 141.134C183.384 141.02 182.08 140.187 180.567 138.638C179.411 136.445 178.264 134.933 177.126 134.104C176.257 133.472 175.31 133.109 174.284 133.016C174.111 132.998 173.934 133.033 173.785 133.119C173.635 133.203 173.521 133.332 173.462 133.485C173.402 133.637 173.399 133.803 173.456 133.956C173.511 134.11 173.622 134.241 173.769 134.329C177.904 136.911 177.041 142.982 173.881 145.66C167.73 150.884 160.312 146.704 159.6 139.588C159.569 139.306 159.665 139.065 159.89 138.863C160.622 138.23 161.113 137.559 161.362 136.85C164.813 137.205 166.829 133.854 164.832 131.28C164.657 131.05 164.423 130.898 164.129 130.822C161.904 130.259 160.237 131.027 159.131 133.128C157.456 133.031 156.259 134.286 155.539 136.894C154.483 137.239 153.971 137.142 154.001 136.6C154.451 127.843 163.604 124.794 171.734 126.418Z" fill="#0D070A"/>
<path d="M203 161.5L204.788 148.707C208.219 142.238 210.48 135.362 211.57 128.077C211.599 127.866 211.699 127.697 211.868 127.57C211.995 127.467 212.075 127.373 212.104 127.289C215.627 126.528 218.587 127.226 221.156 129.898C233.303 142.601 220.875 165.685 203 161.5Z" fill="#8B4434"/>
<path d="M37.1568 128C33.403 131.409 31.3829 135.516 31.0966 140.321C30.3196 153.492 40.0543 164.129 53.7287 161.998C54.1126 161.938 54.2435 162.093 54.1217 162.465L53.9663 162.922C53.8627 163.24 53.8627 163.56 53.9663 163.882C61.7084 188.295 84.5963 197.094 107 202.701C106.58 203.683 106.009 204.36 105.291 204.731L98.9014 206.497C93.2647 208.088 88.2282 210.256 83.7919 213C80.5196 211.39 78.5849 209.149 77.9878 206.277C77.9705 206.19 77.9308 206.109 77.8725 206.042C77.8142 205.974 77.7393 205.923 77.6553 205.893C77.5713 205.864 77.481 205.856 77.3935 205.872C77.3059 205.888 77.2241 205.927 77.156 205.985C68.8563 212.881 57.1015 208.546 56.2515 197.414C56.227 197.11 56.0716 197.018 55.7853 197.14C47.5405 200.646 41.4284 198.859 37.4493 191.78C36.1605 189.493 36.2062 186.365 36.0599 183.749C36.0477 183.432 35.8832 183.301 35.5663 183.356C30.2891 184.265 25.4843 183.225 21.1516 180.237C18.4033 178.286 16.3528 175.615 15 172.224C15.8592 172.773 16.6574 173.413 17.3948 174.145C18.6928 175.435 18.8298 177.237 20.338 178.508C24.2989 181.874 29.1435 183.198 34.8716 182.478C35.0582 182.455 35.2382 182.394 35.4004 182.298C35.5627 182.203 35.7038 182.075 35.8149 181.923C35.9262 181.77 36.0054 181.596 36.0475 181.412C36.0896 181.228 36.0938 181.036 36.0599 180.849C34.5181 172.453 33.2202 163.91 32.1659 155.22C31.59 150.446 29.1039 143.897 29.9631 139.141C30.9076 133.982 33.3055 130.268 37.1568 128Z" fill="#200B1D"/>
<path d="M161.079 136.971C159.542 136.311 158.858 134.918 159.024 132.791C160.043 130.431 161.577 129.568 163.625 130.201C163.895 130.286 164.111 130.457 164.272 130.715C166.11 133.605 164.255 137.369 161.079 136.971Z" fill="#FDFDFD"/>
<path d="M83.3104 138.872C82.021 138.048 81.2509 136.832 81 135.225C81.8677 132.09 87.1262 128.665 88.6525 133.165C89.9593 137.053 87.4502 139.615 83.3104 138.872Z" fill="#FDFDFD"/>
<path d="M102.844 137.218C103.548 143.442 101.866 147.978 97.7948 150.826C92.3289 154.654 84.8392 153.391 81.3074 147.318C79.9585 145.005 79.1893 141.711 79 137.435C79.2781 136.587 79.9999 135.817 81.1653 135.125C81.3782 136.634 82.032 137.775 83.1265 138.548C83.2744 144.685 85.4899 148.174 89.7732 149.015C98.3184 150.694 103.758 139.463 96.5702 133.663C96.2285 133.386 96 132.981 95.9335 132.53C95.868 132.08 95.969 131.62 96.2152 131.249C97.2712 129.646 102.312 136.266 102.844 137.218Z" fill="#8B4434"/>
<path d="M180 139.139C179.303 144.717 177.114 148.743 173.437 151.218C170.442 152.914 166.811 153.639 163.539 152.32C157.84 150.021 155.372 144.993 156.135 137.236C156.82 134.39 157.962 133.022 159.56 133.128C159.387 135.195 160.096 136.548 161.688 137.188C161.449 137.961 160.982 138.694 160.284 139.384C160.07 139.604 159.977 139.868 160.007 140.175C160.686 147.939 167.759 152.499 173.625 146.799C176.638 143.878 177.461 137.254 173.517 134.437C173.377 134.342 173.272 134.198 173.218 134.031C173.164 133.864 173.166 133.682 173.223 133.516C173.28 133.35 173.389 133.209 173.532 133.117C173.674 133.024 173.843 132.985 174.009 133.005C174.986 133.106 175.889 133.502 176.718 134.192C177.803 135.097 178.897 136.746 180 139.139Z" fill="#8B4434"/>
<path d="M67.6212 178C63.8138 172.526 58.6742 166.995 59.0162 159.698C59.1962 155.692 59.3403 149.52 64.5159 149.084C69.2324 148.693 73.739 149.671 78.0355 152.021C78.319 152.172 78.558 152.401 78.7275 152.682C78.8969 152.963 78.9905 153.286 78.9986 153.619C79.0976 156.761 73.859 156.919 71.9328 156.194C71.6049 156.072 71.2507 156.049 70.9124 156.128C70.5741 156.207 70.2659 156.385 70.0245 156.64C64.2548 162.775 65.857 172.042 71.9958 177.229C72.2535 177.446 72.4347 177.745 72.5112 178.079C72.5877 178.414 72.5552 178.765 72.4188 179.079C72.2825 179.391 72.0498 179.65 71.7568 179.813C71.4639 179.976 71.1271 180.035 70.7986 179.98C69.4305 179.744 68.3714 179.084 67.6212 178Z" fill="#F2A177"/>
<path d="M133.089 151.189C138.526 153.275 140.755 156.044 139.776 159.495C134.813 154.486 126.995 155.683 123.675 161.428C123.596 161.563 123.565 161.719 123.589 161.873C123.612 162.027 123.687 162.169 123.802 162.279L126.512 164.796C126.439 164.613 126.277 164.681 126.028 165C114.789 158.555 124.733 149.584 133.089 151.189Z" fill="#B8674B"/>
<path d="M139.998 159.848C140.045 161.354 139.189 162.5 137.43 163.286C133.663 164.952 130.15 165.404 126.895 164.64L124.218 162.364C124.104 162.266 124.03 162.137 124.007 161.997C123.985 161.858 124.014 161.717 124.092 161.595C127.372 156.403 135.096 155.321 139.998 159.848Z" fill="#F2A177"/>
<path d="M106.864 173.849C114.063 188.655 143.864 189.4 150.806 174.471C151.37 173.652 151.968 173.051 152.599 172.665C152.861 172.503 153.168 172.42 153.48 172.426C153.793 172.433 154.096 172.529 154.35 172.702C154.604 172.876 154.797 173.118 154.905 173.397C155.012 173.677 155.029 173.981 154.952 174.269C153.334 180.397 147.312 184.701 141.418 186.919C133.002 189.765 124.616 189.692 116.261 186.7C110.44 184.613 104.123 179.941 103.02 173.682C102.982 173.463 102.998 173.237 103.066 173.025C103.134 172.812 103.253 172.616 103.413 172.455C103.573 172.293 103.771 172.168 103.99 172.09C104.209 172.013 104.443 171.985 104.675 172.008C105.828 172.125 106.558 172.739 106.864 173.849Z" fill="#491D22"/>
<path d="M108 174C117.412 177.807 129.004 177.816 138.971 176.825C142.602 176.691 146.279 175.966 150 174.651C143.365 190.273 114.881 189.493 108 174Z" fill="#FDFDFD"/>
<path d="M236.097 178C236.127 178.344 236.34 178.628 236.735 178.849C236.987 178.99 237.059 179.202 236.951 179.486C235.128 184.213 232.626 188.902 229.447 193.555C217.725 210.706 203.249 223.854 186.02 233C183.83 225.473 179.157 219.079 172 213.817C176.157 211.99 177.039 210.042 179.046 206.912C179.085 206.851 179.136 206.799 179.194 206.759C179.253 206.719 179.319 206.69 179.389 206.676C179.459 206.663 179.531 206.663 179.599 206.678C179.669 206.693 179.734 206.723 179.793 206.765C188.404 212.903 199.05 208.509 199.724 197.312C199.748 196.899 199.935 196.797 200.282 197.007C207.121 201.097 215.868 199.177 219.422 191.773C220.52 189.493 220.457 186.677 220.682 184.046C220.706 183.733 220.868 183.585 221.168 183.603C226.903 183.905 231.88 182.036 236.097 178Z" fill="#D7E3E8"/>
<path d="M20.6738 180C24.9847 182.943 29.7655 183.966 35.0162 183.072C35.3315 183.018 35.4952 183.146 35.5073 183.459C35.6529 186.036 35.6074 189.117 36.8897 191.369C40.8489 198.342 46.9303 200.101 55.1338 196.649C55.4187 196.528 55.5733 196.618 55.5976 196.919C56.4434 207.883 68.1393 212.153 76.3973 205.36C76.4651 205.303 76.5465 205.266 76.6337 205.25C76.7208 205.234 76.8106 205.241 76.8941 205.27C76.9778 205.3 77.0523 205.349 77.1102 205.416C77.1682 205.482 77.2078 205.562 77.2249 205.649C77.8191 208.477 79.7441 210.685 83 212.27C76.3366 217.387 71.8711 223.631 69.6035 231C62.6188 226.928 58.032 224.126 55.8432 222.595C40.5155 211.874 28.5983 198.225 20.0917 181.649C19.9583 181.384 19.9704 181.128 20.1281 180.883L20.6738 180Z" fill="#D7E3E8"/>
<path d="M145.825 203.562L146.552 203.781C146.456 203.834 146.605 204.033 147 204.378C146.596 204.246 146.417 204.431 146.426 204.817C146.83 233.438 107.215 235.29 105 204.948C105.706 204.592 106.264 203.942 106.677 203C106.689 203.258 106.944 203.31 107.439 203.158C107.733 203.065 108.029 203.038 108.327 203.079C120.839 204.724 133.338 204.885 145.825 203.562Z" fill="#B8674B"/>
<path d="M147.517 204.045L153 205.699C152.282 221.871 148.198 233.581 130.454 236.657C118.431 238.674 105.966 231.611 101.937 220.04C101.919 219.984 101.428 217.683 100.465 213.134C99.9502 210.712 99.128 208.481 98 206.443L104.43 204.649C106.702 236.778 147.343 234.817 146.929 204.509C146.92 204.1 147.104 203.905 147.517 204.045Z" fill="#FEC858"/>
<path d="M153.205 206C157.554 207.115 161.055 208.255 163.706 209.417C166.223 210.526 168.895 211.955 171.724 213.703C179.011 218.911 183.77 225.24 186 232.689L183.498 234.316C165.404 244.184 146.238 249.079 126 248.999C126.317 248.372 127.139 247.897 128.465 247.574C128.819 247.489 128.947 247.266 128.85 246.907C128.025 243.922 127.982 240.998 128.721 238.135C128.782 237.897 128.74 237.706 128.593 237.559C128.421 237.384 128.458 237.274 128.703 237.23C129.466 237.103 130.147 236.838 130.746 236.436C148.422 233.411 152.491 221.898 153.205 206Z" fill="#FCAF46"/>
<path d="M98.1874 206C99.2942 208.038 100.099 210.269 100.604 212.693C101.549 217.24 102.029 219.543 102.047 219.599C105.996 231.172 118.215 238.236 130 236.219C129.412 236.628 128.741 236.898 127.989 237.028C127.749 237.071 127.713 237.182 127.881 237.362C128.025 237.511 128.068 237.706 128.007 237.948C127.28 240.86 127.322 243.834 128.133 246.871C128.23 247.236 128.104 247.463 127.755 247.55C126.451 247.878 125.642 248.361 125.329 249C106.537 248.907 88.2778 243.572 72.11 233.737C71.2564 233.427 70.5531 232.826 70 231.934C72.2483 224.33 76.6758 217.889 83.2823 212.609C87.6587 209.82 92.6272 207.617 98.1874 206Z" fill="#FDBA50"/>
<path d="M73 234C89.1149 243.425 107.315 248.538 126.045 248.627C145.896 248.705 164.695 243.932 182.443 234.312C182.36 234.436 182.425 234.508 182.64 234.526C182.717 234.533 182.789 234.561 182.849 234.608C182.909 234.655 182.954 234.718 182.979 234.789C183.003 234.861 183.007 234.939 182.989 235.011C182.97 235.085 182.93 235.151 182.874 235.203C180.969 236.931 179.108 239.033 177.095 240.449C146.384 262.114 103.594 261.428 74.5818 236.592C74.3661 236.409 74.2403 236.174 74.2043 235.889C74.1145 235.265 73.7129 234.636 73 234Z" fill="#D7E3E8"/>
</g>
<defs>
<clipPath id="clip0_2_615">
<rect width="256" height="256" fill="white"/>
</clipPath>
</defs>
</svg>
