<svg width="256" height="256" viewBox="0 0 256 256" fill="none" xmlns="http://www.w3.org/2000/svg">
<g clip-path="url(#clip0_2_615)">
<path d="M1.08979 113C1.90221 118.255 4.13653 122.971 7.79275 127.147C7.88435 127.252 7.9365 127.387 7.93979 127.527C7.94319 127.668 7.89739 127.805 7.81089 127.913C0.825974 136.654 -5.44051 150.642 7.55626 157.506C7.81701 157.644 7.89887 157.851 7.80182 158.132C5.60083 164.668 7.00142 171.579 13.0133 175.183C13.28 175.345 13.371 175.582 13.286 175.893C10.0937 187.108 16.4966 195.326 27.6106 193.916C27.6733 193.907 27.7372 193.913 27.7969 193.935C27.8565 193.958 27.91 193.994 27.953 194.042C27.996 194.089 28.0269 194.147 28.0433 194.21C28.0598 194.273 28.061 194.338 28.0472 194.401C25.6007 206.111 35.0321 214.469 45.5277 208.549C45.8308 208.38 46.0461 208.459 46.1735 208.782C49.1111 216.178 57.0056 226.879 65 228" stroke="#9F999D" stroke-width="2"/>
<path d="M65 228L69.5081 228.555C69.8519 228.596 70.1449 228.75 70.3868 229.017L75 234" stroke="#969197" stroke-width="2"/>
<path d="M74.714 234L70.2083 242.834C69.7981 243.647 69.9938 244.277 70.7952 244.724C72.1456 245.462 73.5907 246.076 75.1306 246.567C82.6844 248.969 90.3075 251.113 98 253" stroke="#F8CC98" stroke-width="2"/>
<path d="M207 221C211.398 217.089 214.463 212.654 216.194 207.692C216.241 207.558 216.333 207.446 216.454 207.379C216.574 207.31 216.714 207.291 216.847 207.322C228.999 210.15 238.238 204.569 236.259 190.349C236.218 190.021 236.353 189.818 236.668 189.742C245.544 187.692 247.694 180.819 245.19 171.925C245.154 171.799 245.163 171.664 245.216 171.543C245.269 171.422 245.363 171.326 245.48 171.27C251.688 168.47 252.514 159.433 250 153.842C249.866 153.538 249.933 153.295 250.199 153.111C256.552 148.682 257.687 142.645 253.603 135" stroke="#908D91" stroke-width="2"/>
<path d="M254 135L247.965 126.191C247.781 125.927 247.784 125.664 247.974 125.4C252.126 119.502 253.441 112.126 248.031 106.539C247.816 106.313 247.803 106.077 247.993 105.832C252.552 99.8593 250.935 90.4387 244 87" stroke="#969197" stroke-width="2"/>
<path d="M243.683 87C242.984 86.8531 242.808 86.4432 243.154 85.7703C249.133 74.1875 239.618 65.6885 228.536 66.8082C228.41 66.8219 228.283 66.7965 228.173 66.7355C228.061 66.6744 227.972 66.5807 227.915 66.4669C227.859 66.353 227.838 66.2245 227.856 66.0984C227.874 65.9724 227.93 65.8551 228.016 65.762C232.628 60.7324 233.338 54.2527 228.208 49.1772C222.728 43.7499 215.947 41.0913 207.866 41.2015C207.722 41.2042 207.58 41.1725 207.449 41.1087C207.32 41.0448 207.206 40.9508 207.119 40.8344C198.971 29.943 187.932 25.4825 174 27.4527" stroke="#9F999D" stroke-width="2"/>
<path d="M174 27L172 22" stroke="#969197" stroke-width="2"/>
<path d="M172 22.749C163.934 8.71932 143.949 -3.6609 128.662 6.91993C128.41 7.09483 128.172 7.07609 127.946 6.8637C121.48 0.859381 114.053 -1.20547 105.666 0.668898C100.657 1.79352 92.9481 6.21704 91.5717 11.9901C91.4616 12.4587 91.2475 12.5181 90.9294 12.1682C80.0007 0.115958 65.5485 12.7211 62.4653 24.8483C62.3858 25.1669 62.187 25.3199 61.8689 25.3075C51.7293 24.8577 34.7721 28.672 28.4038 37.7627C24.5499 43.2546 27.422 48.8496 30.2207 54.0979C30.2704 54.1896 30.2973 54.2923 30.2989 54.3973C30.3005 54.5023 30.2768 54.6062 30.2299 54.7002C30.1829 54.7943 30.1142 54.8756 30.0294 54.9372C29.9447 54.9989 29.8465 55.0388 29.7435 55.0538C17.4659 56.7876 9.15244 63.6665 16.1079 77.5369C16.2548 77.8368 16.1722 78.0304 15.8601 78.1179C7.17969 80.5608 4.42983 86.0589 7.61091 94.6124C7.88623 95.3715 8.84052 96.2993 9.1617 97.1803C9.29015 97.5239 9.18915 97.7707 8.85882 97.9207C2.7904 100.644 0.236476 105.671 1.19683 113" stroke="#A59EA1" stroke-width="2"/>
<path d="M172 22L165 27" stroke="#3C313A" stroke-width="2"/>
<path d="M165 27C164.287 27.5414 163.542 27.865 162.763 27.9708C162.452 28.0143 162.193 28.1606 161.987 28.4095C161.353 29.1811 160.538 29.5078 159.539 29.3896C159.397 29.3723 159.252 29.3885 159.118 29.4371C158.983 29.4857 158.862 29.5653 158.763 29.6697L156.334 32.19C156.168 32.358 155.977 32.4919 155.757 32.5914C154.023 33.3443 152.248 33.9854 150.433 34.5143C147.137 35.4851 144.727 37.4174 141.576 38.7522C139.877 39.4616 139.101 40.7871 137.384 41.6366C133.895 43.3541 132.196 44.7543 129.958 47.6293C129.857 47.7604 129.718 47.8564 129.562 47.9048C129.405 47.9532 129.238 47.9515 129.082 47.9C127.95 47.5142 127.025 47.7134 126.306 48.4975C126.074 48.7465 125.792 48.8708 125.456 48.8708C123.928 48.8708 122.328 49.5149 120.653 50.8031C119.21 51.9046 116.184 53.4354 111.576 55.3957C111.314 55.5077 111.04 55.542 110.754 55.4984C110.059 55.3926 109.494 55.601 109.054 56.1238C108.848 56.3665 108.595 56.5407 108.297 56.6465C104.397 57.9627 101.457 60.679 98.0507 62.0325C95.865 62.8976 93.6636 63.7096 91.4475 64.4689C87.6058 65.7882 85 66.9705 83.6301 68.016C82.0046 69.2481 80.4612 69.8207 79 69.7335C78.6955 69.7149 78.4399 69.8237 78.2329 70.0603C73.895 75.0636 67.0365 75.7263 61.9406 79.6282C60.8174 80.4869 58.7626 80.8603 58.0776 81.7284C57.8889 81.9711 57.6605 82.161 57.3927 82.2978C52.9482 84.588 48.9726 87.5252 45.4657 91.1096C44.9786 91.6137 44.3789 92.0368 43.6666 92.3791C40.5799 93.8913 39.6027 96.9624 36.5708 98.3161C36.3211 98.4282 36.2116 98.3465 36.242 98.0732C36.2602 97.8865 38.8265 95.6089 39.2649 94.6661C39.3683 94.4359 39.5266 94.2584 39.7397 94.134L41.3379 93.2286C41.8859 92.9174 41.8493 92.7308 41.2283 92.6685C39.5205 92.5005 38.3151 92.3325 36.8721 93.518C32.8538 96.7975 28.8691 100.111 24.9178 103.459C24.0838 104.162 22.1568 104.834 19.137 105.476C18.8387 105.543 18.583 105.693 18.3699 105.924L15.3196 109.303C15.2275 109.403 15.1168 109.483 14.9942 109.537C14.8717 109.592 14.74 109.62 14.6073 109.62C11.7459 109.645 9.84932 111.004 8.91778 113.699C8.80827 114.017 8.61338 114.265 8.33334 114.446C7.43231 115.037 7.06996 115.886 7.24653 116.995C7.29525 117.305 7.26793 117.611 7.16433 117.909C7.05482 118.208 6.96352 118.46 6.89044 118.665C6.85617 118.76 6.79573 118.842 6.71638 118.901C6.63715 118.961 6.54255 118.994 6.44431 118.999C6.34607 119.005 6.24862 118.98 6.16393 118.929C6.07923 118.878 6.01115 118.802 5.96801 118.712L4.12326 114.82C3.99542 114.551 3.79142 114.374 3.51138 114.288C2.94526 114.107 2.67433 113.646 2.69858 112.906C2.70473 112.595 2.5647 112.486 2.27851 112.579L1.8037 112.729C1.7692 112.738 1.73278 112.739 1.69794 112.732C1.66299 112.724 1.63066 112.708 1.60414 112.684C1.57761 112.661 1.55769 112.632 1.54619 112.598C1.53481 112.565 1.53219 112.529 1.53879 112.495C1.68496 111.525 1.04565 112.197 1 112.813" stroke="#453840" stroke-width="2"/>
<path d="M174 27.1048C172.069 29.1246 169.223 29.5299 165.462 28.3209C165.066 28.1881 164.925 27.7478 165.038 27" stroke="#362C36" stroke-width="2"/>
<path d="M244.766 87.89C244.456 87.9094 244.197 87.9803 243.991 88.1027C243.768 88.2317 243.761 88.3702 243.973 88.5185L247.379 90.9649C247.715 91.2033 247.84 91.5288 247.752 91.9415C247.156 94.7166 248.938 95.7318 249.516 97.5787C250.244 99.9317 250.151 102.333 249.237 104.782C249.214 104.851 249.17 104.909 249.112 104.949C249.054 104.988 248.984 105.006 248.916 104.998C248.846 104.992 248.781 104.961 248.731 104.911C248.681 104.862 248.648 104.795 248.639 104.724C247.687 98.7003 246.745 94.3878 239.961 93.5562C238.891 93.4209 238.681 92.9117 239.335 92.0285C239.989 91.1389 240.333 89.8883 240.371 88.2768C240.53 80.5413 236.2 70.7463 228.099 69.6827C225.847 69.3862 224.205 69.1315 223.172 68.9188C223.08 68.8997 222.994 68.856 222.923 68.792C222.852 68.7281 222.798 68.6463 222.768 68.5548C222.738 68.4633 222.732 68.3656 222.751 68.2716C222.769 68.1775 222.811 68.0905 222.874 68.0196L224.245 66.4338C224.295 66.3753 224.334 66.3066 224.357 66.2323C224.382 66.1579 224.39 66.0792 224.383 66.0011C224.376 65.9231 224.354 65.8475 224.316 65.7788C224.28 65.7102 224.23 65.6501 224.171 65.6022L223.621 65.1574C223.34 64.9383 223.067 64.9479 222.8 65.1865L221.12 66.7239C220.852 66.9623 220.594 66.9527 220.345 66.6949C219.723 66.0438 218.989 65.8181 218.142 66.018C217.794 66.0954 217.521 66.2888 217.321 66.5982C215.399 69.6053 211.144 65.5829 209.314 70.8623C208.634 72.8156 207.971 73.4344 206.356 74.3336C206.3 74.3659 206.25 74.3626 206.207 74.324C206.126 74.253 206.055 74.1725 205.992 74.0822C205.849 73.8759 205.774 73.9018 205.769 74.1596C205.763 74.5657 205.815 74.9556 205.927 75.3296C207.439 80.1642 208.444 85.1053 208.941 90.1526C209.81 98.9321 204.732 107.074 195.224 102.529C191.03 100.525 186.623 100.444 182 102.287" stroke="#362C36" stroke-width="2"/>
<path d="M182 101L178 99" stroke="#6E3D3C" stroke-width="2"/>
<path d="M178 99C168.711 90.7545 163.385 80.0093 159 68" stroke="#784B45" stroke-width="2"/>
<path d="M159 68.6511L155.91 58.4699C155.877 58.3587 155.816 58.2585 155.733 58.1792C155.651 58.0998 155.549 58.0442 155.438 58.0177C155.327 57.991 155.211 57.9946 155.102 58.0279C154.991 58.0611 154.892 58.1228 154.812 58.207C137.685 76.5991 122.652 89.3611 96.344 89.4925C91.3334 89.5207 77.032 88.2725 73.484 91.3973C70.9054 93.6588 69.799 99.1759 67.7232 100.762C58.6797 107.687 49.0509 114.547 45 125" stroke="#724441" stroke-width="2"/>
<path d="M44.2725 125C42.8734 129.049 42.2082 133.347 42.2768 137.895C42.2831 138.412 42.1613 138.447 41.9114 137.996C39.1382 132.986 32.58 133.707 28.9729 137.053C13.3078 151.547 31.2121 179.296 50.9245 172.372C51.0561 172.33 51.1985 172.332 51.3256 172.382C51.4528 172.431 51.5564 172.523 51.6177 172.641L55 179" stroke="#784B45" stroke-width="2"/>
<path d="M54.8568 179C54.4746 179.149 54.2071 179.417 54.0542 179.802C53.9971 179.95 53.9849 180.111 54.0187 180.266C54.0525 180.422 54.1311 180.564 54.2453 180.678C56.5956 183.055 56.3759 185.619 57.8664 187.987C63.5321 196.993 70.2202 205.849 73.7076 216.104C74.8063 219.321 72.5133 223.432 71.7011 226.564C71.6119 226.907 71.3858 227.075 71.0228 227.068C69.1373 227.025 67.3698 227.336 65.72 228" stroke="#362C36" stroke-width="2"/>
<path d="M253.414 135C253.083 136.101 253.216 137.026 253.813 137.772C253.984 137.984 254.038 138.228 253.973 138.506C253.914 138.738 253.786 138.911 253.592 139.026C253.337 139.176 253.184 139.411 253.131 139.729C252.698 142.359 252.453 144.988 252.394 147.618C252.341 149.983 251.294 151.45 249.67 152.551C249.411 152.728 249.15 152.735 248.89 152.572C246.317 150.982 243.88 150.9 241.58 152.327C240.03 153.279 238.652 153.221 237.445 152.154C237.304 152.031 237.189 152.056 237.099 152.225L236.958 152.5C236.822 152.759 236.709 152.745 236.62 152.459L236 150.462" stroke="#27202A" stroke-width="2"/>
<path d="M236 149C235.406 139.687 228.438 128.687 218.01 135.405C217.737 135.579 217.574 135.508 217.517 135.189C215.281 123.168 204.119 114.754 195.556 107.062C192.067 103.923 186.491 102.827 182 101" stroke="#653636" stroke-width="2"/>
<path d="M235.999 149C236.109 162.449 224.564 176.302 210.473 172.702C210.347 172.671 210.213 172.682 210.091 172.737C209.97 172.791 209.869 172.885 209.801 173.004C198.667 192.997 181.818 205.97 159.255 211.927C154.138 213.284 149.719 213.975 146 214" stroke="#5F3130" stroke-width="2"/>
<path d="M188 182L192.258 163.971C192.349 163.581 192.585 163.365 192.967 163.321C196.581 162.884 200.586 163.711 205.052 163.553C205.361 163.541 205.616 163.417 205.815 163.181C206.464 162.432 206.884 161.484 207.078 160.337C209.475 146.072 207.514 129.679 197.453 118.825C195.719 116.957 191.069 112.254 188.391 114.68" stroke="#A14E41" stroke-width="2"/>
<path d="M188 115C184.071 109.571 179.403 105.57 174 103" stroke="#744240" stroke-width="2"/>
<path d="M159 68.1119C158.842 68.0174 158.68 67.9828 158.516 68.0079C158.444 68.0199 158.377 68.0488 158.317 68.0924C158.259 68.1361 158.21 68.1934 158.176 68.2599C158.142 68.3265 158.122 68.4004 158.119 68.4764C158.117 68.5524 158.13 68.6282 158.159 68.6982C158.195 68.7864 158.219 68.8778 158.232 68.9723C158.25 69.0922 158.228 69.2025 158.168 69.3033C158.015 69.5364 157.86 69.6058 157.702 69.5113C157.494 69.3915 157.303 69.4073 157.125 69.5585C152.234 73.8794 147.012 79.0134 142.248 82.4266C131.83 89.9023 120.299 94.3745 107.656 95.843C100.569 96.6656 92.001 95.9754 84.2192 95.7485C79.9307 95.6161 76.721 96.8075 73.3469 99.9844C63.7273 109.061 52.5165 114.441 46.9751 126.921C46.9569 126.965 46.9264 126.987 46.8837 126.987C46.8045 127 46.7253 127.003 46.6459 126.997C46.4265 126.978 46.3411 126.859 46.3899 126.638C46.8593 124.582 46.3961 124 45 124.889" stroke="#AA5B4A" stroke-width="2"/>
<path d="M115 214C113.786 217.59 111.119 219.592 107 220" stroke="#653636" stroke-width="2"/>
<path d="M107 220.038C105.856 219.882 103.856 220.203 101 221" stroke="#8E582A" stroke-width="2"/>
<path d="M101 221C91.3756 222.639 82.709 226.972 75 234" stroke="#905F31" stroke-width="2"/>
<path d="M178 99L174 103" stroke="#A75545" stroke-width="2"/>
<path d="M174.189 103.098C168.484 100.698 160.49 98.6904 154.955 101.062C149.082 103.593 149.982 112.12 156.119 113.455C158.136 113.894 160.331 113.185 162.405 112.755C172.848 110.598 180.991 115.949 188 123" stroke="#7E5049" stroke-width="2"/>
<path d="M187.9 123C187.873 123.088 187.776 123.161 187.61 123.22C187.43 123.278 187.41 123.366 187.551 123.483L187.89 123.782C188.037 123.91 188.037 124.04 187.89 124.168C186.637 125.304 185.956 126.667 185.85 128.26C185.837 128.541 185.687 128.752 185.4 128.892L181 131" stroke="#AA5B4A" stroke-width="2"/>
<path d="M181 131.154C161.407 114.663 146.747 151.811 166.075 163.514C167.026 164.089 168.906 164.154 171.717 163.708" stroke="#D7B0A6" stroke-width="2"/>
<path d="M171.621 164C170.49 166.169 170.376 167.48 171.276 167.932C171.391 167.988 171.487 168.077 171.557 168.186C171.626 168.297 171.663 168.425 171.666 168.557C171.669 168.688 171.637 168.818 171.573 168.932C171.509 169.046 171.417 169.138 171.305 169.199C164.015 173.261 167.004 180.316 172.722 183.659C176.965 186.124 183.287 184.637 188 183.569" stroke="#AA5B4A" stroke-width="2"/>
<path d="M188 182C184.379 191.124 178.573 198.128 170.58 203.01C163.827 207.139 155.634 210.801 146 214" stroke="#A75545" stroke-width="2"/>
<path d="M146 214C144.767 214.742 142.434 215.071 139 214.987" stroke="#693F39" stroke-width="2"/>
<path d="M139 214.84C131.109 215.213 123.109 214.933 115 214" stroke="#A75545" stroke-width="2"/>
<path d="M115 214C90.6261 211.066 68.6792 200.257 55 179" stroke="#6F433F" stroke-width="2"/>
<path d="M207 221C206.205 221.607 204.558 222.589 202.059 223.943C196.203 227.114 190.551 226.873 185.106 223.218C185.05 223.18 184.985 223.155 184.916 223.142C184.848 223.13 184.777 223.13 184.708 223.144C184.639 223.159 184.576 223.186 184.521 223.225C184.465 223.264 184.42 223.314 184.387 223.37C182.989 225.861 180.859 227.404 178 228" stroke="#787B86" stroke-width="2"/>
<path d="M178 228C169.986 223.331 160.986 220.331 151 219" stroke="#7D471E" stroke-width="2"/>
<path d="M151 218.919C146.553 219.288 143.824 218.396 142.812 216.243C142.741 216.095 142.639 215.972 142.515 215.885C142.393 215.801 142.253 215.755 142.112 215.754C141.013 215.769 139.976 215.518 139 215" stroke="#5F3130" stroke-width="2"/>
<path d="M172 164C175.473 163.537 178.565 162.15 181.278 159.842C190.284 152.157 190.022 139.335 181.801 131" stroke="#D1A9A2" stroke-width="2"/>
<path d="M188.138 115C189.99 117.341 190.944 119.954 191 122.841C191.003 123.044 190.954 123.244 190.856 123.421C190.758 123.598 190.616 123.746 190.442 123.847C190.269 123.95 190.073 124.002 189.874 124C189.674 123.999 189.478 123.942 189.307 123.837L188 123.045" stroke="#784945" stroke-width="2"/>
<path d="M164 252C151.996 255.01 139.663 256.321 127 255.934" stroke="#DFB386" stroke-width="2"/>
<path d="M127.325 256C126.314 255.802 126.801 254.972 128.786 253.511C129.054 253.313 129.071 253.099 128.834 252.871C122.764 246.89 116.612 241.634 109.728 235.013C105.283 230.741 102.374 226.07 101 221" stroke="#F1932B" stroke-width="2"/>
<path d="M151 219C149.685 227.17 144.351 232.17 135 234" stroke="#BB5D2A" stroke-width="2"/>
<path d="M135 233.537C123.929 235.226 110.438 232.642 107 220" stroke="#C66930" stroke-width="2"/>
<path d="M98 253C107.757 254.929 117.424 255.929 127 256" stroke="#E1BB8D" stroke-width="2"/>
<path d="M177.907 228C182.996 231.877 186.328 236.67 187.899 242.377C188.205 243.499 187.817 244.272 186.734 244.699C179.36 247.555 171.782 249.989 164 252" stroke="#D4A780" stroke-width="2"/>
<path d="M164 252C157.357 242.741 148.308 237.252 136.85 235.534C136.53 235.486 136.343 235.306 136.288 234.99C136.167 234.33 135.737 234 135 234" stroke="#E47F1E" stroke-width="2"/>
<path d="M66.0532 123.894C66.2799 123.991 66.5274 124.022 66.7696 123.984C67.0119 123.947 67.2399 123.84 67.4293 123.679C76.0042 116.279 84.0456 110.13 95.9156 112.642C101.307 113.776 108.545 112.202 106.709 104.43C105.38 98.8289 97.9654 98.6334 93.1915 99.2297C82.8879 100.526 74.6312 105.473 68.4216 114.069C67.2608 115.673 63.0669 122.594 66.0532 123.894Z" stroke="#7E5049" stroke-width="2"/>
<path d="M77.7461 159.773C82.1399 163.652 89.289 165.499 94.3968 162.538C105.921 155.858 104.082 130.599 90.6621 127.413C81.3984 125.211 73.1692 132.098 71.4299 141.177C70.008 148.59 72.1134 154.789 77.7461 159.773Z" stroke="#D7B0A6" stroke-width="2"/>
<path d="M35.2496 162.268C37.5774 164.192 44.1065 166.896 45.6773 163.049C47.2197 159.256 42.8291 148.24 41.0311 144.502C38.3722 138.994 33.1962 138.141 30.5183 144.184C27.4525 151.098 29.0295 157.127 35.2496 162.268Z" stroke="#A75545" stroke-width="2"/>
<path d="M131 167.018C130.309 166.925 129.649 167.193 129.018 167.821C128.75 168.085 128.439 168.164 128.083 168.057L126.827 167.661C126.624 167.598 126.41 167.583 126.201 167.619C125.992 167.655 125.794 167.74 125.62 167.867C125.447 167.994 125.303 168.162 125.197 168.356C125.093 168.55 125.032 168.766 125.016 168.989C124.935 170.161 125.164 171.164 125.7 172" stroke="#BF6E4E" stroke-width="2"/>
<path d="M126.344 172.347C125.853 173.033 125.888 173.737 126.446 174.461C126.608 174.675 126.842 174.814 127.099 174.851C132.152 175.556 135.539 173.756 137.259 169.453C139.41 164.083 136.56 160.379 132.807 157.104C132.727 157.034 132.622 156.996 132.517 157C132.41 157.005 132.31 157.05 132.234 157.128C132.16 157.205 132.117 157.31 132.115 157.418C132.111 157.526 132.15 157.632 132.22 157.713C135.026 161.141 134.704 164.544 131.252 167.92" stroke="#AA5B4A" stroke-width="2"/>
<path d="M126 172L131 167" stroke="#B9674A" stroke-width="2"/>
<path d="M65.601 182.852C71.6056 187.513 78.2198 188.246 85.4437 185.05C88.5846 183.667 91.7808 180.275 90.8293 176.476C89.4345 170.896 81.2959 166.69 76.0674 165.477C70.5247 164.189 66.0228 165.509 62.5617 169.437C59.0421 173.445 62.0907 180.133 65.601 182.852Z" stroke="#AA5B4A" stroke-width="2"/>
<path d="M110.259 181C109.201 181.282 108.483 181.794 108.103 182.535C107.959 182.817 107.966 183.097 108.121 183.373C115.877 197.187 144.088 197.567 152.655 184.317C153.411 183.144 152.832 182.508 151.806 181.838" stroke="#623B34" stroke-width="2"/>
<path d="M151 181.712C150.437 180.498 149.505 179.336 148.206 178.222C147.954 178.002 147.678 177.946 147.379 178.052C135.562 182.158 123.435 183.061 111 180.762" stroke="#D7B0A6" stroke-width="2"/>
<path d="M151 181.857C143.41 188.773 134.306 191.283 123.687 189.389C117.948 188.373 113.719 185.577 111 181" stroke="#89898C" stroke-width="2"/>
<path d="M88.4188 163.976C89.9223 164.091 91.439 163.791 92.8824 163.093C94.3259 162.396 95.668 161.315 96.8316 159.911C97.9951 158.509 98.9572 156.812 99.6642 154.917C100.37 153.023 100.807 150.967 100.949 148.869C101.235 144.632 100.304 140.477 98.3604 137.317C96.4162 134.158 93.6178 132.254 90.5814 132.024C89.0778 131.909 87.5611 132.209 86.1177 132.907C84.6743 133.605 83.3324 134.686 82.1689 136.089C81.0054 137.491 80.0429 139.188 79.3362 141.083C78.6297 142.977 78.1929 145.033 78.051 147.131C77.7642 151.368 78.6954 155.524 80.6398 158.683C82.584 161.842 85.3823 163.747 88.4188 163.976Z" stroke="#838385" stroke-width="2"/>
<path d="M170.47 163.98C171.975 163.877 173.439 163.36 174.78 162.462C176.122 161.563 177.314 160.299 178.288 158.742C179.262 157.185 180 155.364 180.457 153.386C180.916 151.408 181.087 149.309 180.959 147.21C180.701 142.973 179.248 138.99 176.917 136.142C174.587 133.293 171.57 131.81 168.531 132.019C167.026 132.123 165.56 132.639 164.219 133.539C162.878 134.438 161.685 135.702 160.712 137.259C159.738 138.816 159.001 140.636 158.542 142.615C158.085 144.593 157.914 146.691 158.041 148.791C158.298 153.028 159.752 157.009 162.083 159.859C164.413 162.708 167.43 164.191 170.47 163.98Z" stroke="#838385" stroke-width="2"/>
<path d="M91.9903 144.249C91.9896 143.917 91.8266 143.599 91.5372 143.365C91.2478 143.13 90.8558 142.999 90.4471 143L88.5377 143.002C88.3354 143.002 88.1352 143.035 87.9484 143.098C87.7616 143.161 87.5921 143.253 87.4492 143.37C87.3064 143.487 87.1933 143.625 87.1162 143.777C87.0391 143.929 86.9996 144.092 87 144.256L87.0096 148.751C87.0103 149.082 87.1734 149.401 87.4628 149.635C87.752 149.869 88.1442 150 88.5528 150L90.4621 149.998C90.6644 149.997 90.8647 149.965 91.0515 149.901C91.2382 149.838 91.4078 149.746 91.5506 149.629C91.6934 149.513 91.8066 149.374 91.8837 149.222C91.9608 149.071 92.0003 148.908 92 148.744L91.9903 144.249Z" stroke="#838385" stroke-width="2"/>
<path d="M172 144.831C172.006 144.352 171.79 143.891 171.398 143.549C171.006 143.207 170.473 143.012 169.914 143.007L169.172 143C168.895 142.998 168.621 143.042 168.364 143.13C168.107 143.219 167.873 143.349 167.675 143.515C167.477 143.682 167.319 143.879 167.21 144.098C167.103 144.316 167.045 144.549 167.042 144.787L167 148.169C166.995 148.648 167.212 149.108 167.603 149.451C167.994 149.793 168.527 149.988 169.088 149.993L169.828 150C170.105 150.002 170.379 149.958 170.637 149.87C170.893 149.781 171.128 149.65 171.325 149.485C171.523 149.318 171.681 149.12 171.79 148.902C171.899 148.684 171.956 148.45 171.959 148.213L172 144.831Z" stroke="#838385" stroke-width="2"/>
<path d="M172 22.7085L165.98 26.7968C165.264 27.3394 164.515 27.6636 163.732 27.7697C163.42 27.8133 163.161 27.9598 162.952 28.2094C162.316 28.9827 161.496 29.3101 160.493 29.1917C160.35 29.1743 160.205 29.1905 160.07 29.2392C159.935 29.2879 159.813 29.3677 159.713 29.4723L157.272 31.9982C157.107 32.1666 156.914 32.3006 156.695 32.4005C154.95 33.1551 153.167 33.7975 151.345 34.3277C148.032 35.3006 145.61 37.2371 142.444 38.5749C140.737 39.2859 139.957 40.6144 138.232 41.4657C134.726 43.187 133.02 44.5903 130.772 47.4717C130.669 47.603 130.531 47.6993 130.373 47.7478C130.215 47.7962 130.047 47.7946 129.891 47.743C128.753 47.3563 127.823 47.5559 127.102 48.3417C126.869 48.5912 126.585 48.716 126.248 48.716C124.712 48.716 123.104 49.3615 121.421 50.6525C119.971 51.7564 116.931 53.2906 112.301 55.2552C112.038 55.3675 111.762 55.4018 111.475 55.3581C110.777 55.2521 110.209 55.461 109.768 55.9849C109.56 56.2282 109.306 56.4028 109.006 56.5088C105.088 57.8279 102.133 60.5503 98.7109 61.9068C96.5148 62.7737 94.3032 63.5875 92.0764 64.3485C88.2163 65.6706 85.5981 66.8557 84.2217 67.9034C82.5884 69.1383 81.0376 69.7122 79.5695 69.6248C79.2635 69.6061 79.0066 69.7152 78.7987 69.9522C74.4401 74.9666 67.5489 75.6308 62.4286 79.5413C61.3 80.402 59.2354 80.7762 58.5471 81.6462C58.3575 81.8895 58.128 82.0796 57.8589 82.2169C53.3933 84.5119 49.3986 87.4558 45.875 91.0482C45.3857 91.5534 44.7831 91.9774 44.0673 92.3205C40.9658 93.836 39.984 96.9139 36.9375 98.2704C36.6867 98.3827 36.5767 98.302 36.6072 98.0272C36.6256 97.8401 39.204 95.5574 39.6445 94.6125C39.7485 94.3817 39.9076 94.2039 40.1217 94.0793L41.7275 93.1718C42.278 92.8599 42.2413 92.6728 41.6174 92.6105C39.9014 92.4421 38.6902 92.2737 37.2404 93.4618C33.203 96.7485 29.1991 100.07 25.2289 103.425C24.3909 104.13 22.4547 104.804 19.4205 105.446C19.1207 105.515 18.8638 105.664 18.6497 105.895L15.5849 109.281C15.4924 109.382 15.3811 109.462 15.258 109.516C15.1348 109.571 15.0025 109.6 14.8691 109.6C11.994 109.624 10.0884 110.988 9.15244 113.688C9.0424 114.006 8.84658 114.255 8.5652 114.436C7.65987 115.029 7.2959 115.88 7.47331 116.99C7.52227 117.302 7.4947 117.608 7.39073 117.907C7.28058 118.206 7.18884 118.459 7.11541 118.665C7.08109 118.759 7.02024 118.841 6.94063 118.901C6.86091 118.961 6.76586 118.994 6.66715 118.999C6.56843 119.005 6.47052 118.98 6.38542 118.929C6.30044 118.878 6.23192 118.802 6.18857 118.711L4.33501 114.81C4.20656 114.543 4.0017 114.365 3.72032 114.277C3.15139 114.096 2.87916 113.635 2.90364 112.893C2.9097 112.58 2.76901 112.472 2.48145 112.565L2.00437 112.715C1.96971 112.725 1.93322 112.726 1.8981 112.718C1.86299 112.71 1.83062 112.694 1.80385 112.67C1.7772 112.647 1.75719 112.618 1.74563 112.584C1.73419 112.551 1.73168 112.516 1.7382 112.481C1.88506 111.508 1.24269 112.182 1.19683 112.799C0.236476 105.483 2.7904 100.465 8.85882 97.7465C9.18915 97.5968 9.29015 97.3504 9.1617 97.0074C8.84052 96.1281 7.88623 95.2019 7.61091 94.4441C4.42983 85.9059 7.17969 80.4175 15.8601 77.979C16.1722 77.8916 16.2548 77.6983 16.1079 77.399C9.15244 63.5533 17.4659 56.6866 29.7435 54.9559C29.8465 54.9409 29.9447 54.901 30.0294 54.8395C30.1142 54.778 30.1829 54.6968 30.2299 54.6029C30.2768 54.509 30.3005 54.4053 30.2989 54.3005C30.2973 54.1958 30.2704 54.0932 30.2207 54.0016C27.422 48.7627 24.5499 43.1777 28.4038 37.6955C34.7721 28.621 51.7293 24.8135 61.8689 25.2625C62.187 25.2749 62.3858 25.1222 62.4653 24.8041C65.5485 12.6985 80.0007 0.115751 90.9294 12.1465C91.2475 12.4958 91.4616 12.4365 91.5717 11.9688C92.9481 6.20598 100.657 1.79033 105.666 0.667708C114.053 -1.20333 121.48 0.857852 127.946 6.85149C128.172 7.0635 128.41 7.08221 128.662 6.90762C143.949 -3.65439 163.934 8.70381 172 22.7085Z" fill="#4B3D44"/>
<path d="M171.659 22L174 26.9842C172.069 29.1326 169.223 29.5637 165.462 28.2776C165.066 28.1364 164.925 27.6681 165.038 26.8727L171.659 22Z" fill="#2D242F"/>
<path d="M244.84 87.9819C244.534 88.0006 244.279 88.069 244.077 88.1872C243.856 88.3115 243.85 88.4453 244.059 88.5884L247.417 90.9484C247.747 91.1785 247.87 91.4925 247.785 91.8905C247.195 94.5677 248.952 95.5472 249.524 97.3289C250.24 99.5985 250.149 101.915 249.247 104.279C249.225 104.344 249.183 104.401 249.124 104.439C249.067 104.477 248.999 104.494 248.931 104.488C248.863 104.481 248.799 104.452 248.749 104.403C248.7 104.355 248.668 104.292 248.659 104.223C247.72 98.411 246.791 94.2506 240.102 93.4484C239.047 93.3178 238.842 92.8264 239.485 91.9745C240.13 91.1163 240.47 89.9098 240.507 88.3551C240.663 80.8925 236.394 71.443 228.409 70.4169C226.188 70.1307 224.569 69.885 223.551 69.6798C223.46 69.6615 223.375 69.6193 223.305 69.5576C223.235 69.4959 223.182 69.4169 223.153 69.3287C223.122 69.2404 223.116 69.1462 223.134 69.0554C223.153 68.9647 223.195 68.8808 223.256 68.8124L224.608 67.2824C224.658 67.2261 224.695 67.1599 224.719 67.0881C224.742 67.0163 224.75 66.9404 224.743 66.8651C224.736 66.7899 224.715 66.7169 224.679 66.6507C224.642 66.5844 224.594 66.5264 224.535 66.4803L223.992 66.0512C223.716 65.8398 223.446 65.849 223.182 66.0792L221.526 67.5624C221.263 67.7925 221.008 67.7831 220.763 67.5344C220.149 66.9063 219.425 66.6886 218.592 66.8813C218.248 66.9561 217.978 67.1426 217.782 67.4411C215.886 70.3422 211.691 66.4617 209.888 71.5549C209.216 73.4392 208.563 74.0362 206.972 74.9038C206.917 74.9348 206.867 74.9317 206.824 74.8944C206.745 74.826 206.673 74.7482 206.613 74.6612C206.472 74.4622 206.398 74.4871 206.391 74.7359C206.386 75.1276 206.437 75.5038 206.548 75.8646C208.038 80.5287 209.029 85.2955 209.52 90.1648C210.375 98.6354 205.371 106.49 195.995 102.106C191.861 100.171 187.515 100.093 182.959 101.872L178.956 99.1111C169.425 90.9577 163.96 80.3328 159.461 68.4579L156.35 58.3367C156.317 58.2262 156.256 58.1266 156.174 58.0478C156.09 57.969 155.988 57.9136 155.877 57.8872C155.765 57.8608 155.648 57.8643 155.537 57.8974C155.427 57.9304 155.326 57.9917 155.246 58.0754C138.014 76.3589 122.888 89.0454 96.4189 89.176C91.377 89.204 76.9875 87.9632 73.4178 91.0696C70.8232 93.3177 69.71 98.8033 67.6215 100.38C58.5222 107.264 48.8342 114.083 44.7584 124.475C43.3845 128.561 42.7312 132.898 42.7987 137.488C42.8049 138.01 42.6852 138.044 42.4399 137.59C39.7166 132.534 33.2763 133.262 29.7341 136.639C14.3509 151.266 31.933 179.269 51.2907 172.282C51.4201 172.238 51.5598 172.241 51.6847 172.29C51.8095 172.34 51.9114 172.433 51.9716 172.553L55.2929 178.971C54.9249 179.12 54.6673 179.387 54.52 179.773C54.4651 179.92 54.4533 180.081 54.4859 180.237C54.5184 180.392 54.5941 180.535 54.7041 180.65C56.9674 183.028 56.7558 185.594 58.191 187.963C63.6469 196.974 70.0872 205.836 73.4454 216.097C74.5034 219.315 72.2953 223.429 71.5133 226.563C71.4274 226.905 71.2097 227.073 70.86 227.067C69.0444 227.023 67.3424 227.334 65.7538 228C57.6667 226.881 49.6806 216.19 46.7089 208.802C46.5801 208.478 46.3623 208.401 46.0556 208.569C35.4384 214.483 25.8975 206.135 28.3724 194.437C28.3864 194.373 28.3852 194.307 28.3685 194.244C28.3519 194.181 28.3206 194.124 28.2771 194.077C28.2337 194.029 28.1795 193.993 28.1192 193.97C28.0589 193.948 27.9942 193.942 27.9308 193.952C16.6879 195.36 10.2108 187.151 13.4401 175.948C13.526 175.637 13.434 175.4 13.1642 175.239C7.08261 171.639 5.66578 164.736 7.89229 158.206C7.99046 157.926 7.90766 157.717 7.64388 157.581C-5.5036 150.725 0.835552 136.751 7.90147 128.019C7.98897 127.91 8.0353 127.773 8.03186 127.634C8.02854 127.492 7.97578 127.358 7.88312 127.255C4.18449 123.081 1.92427 118.371 1.10243 113.122C1.14841 112.507 1.79238 111.835 1.64523 112.805C1.63858 112.839 1.6411 112.875 1.65269 112.908C1.66416 112.94 1.68423 112.971 1.71106 112.994C1.73778 113.017 1.77024 113.034 1.80545 113.042C1.84066 113.049 1.87736 113.048 1.91199 113.038L2.39046 112.889C2.67867 112.796 2.81973 112.904 2.81365 113.215C2.78911 113.955 3.06206 114.415 3.63251 114.596C3.91464 114.682 4.12016 114.86 4.24895 115.128L6.10743 119.018C6.1509 119.107 6.21948 119.183 6.30481 119.233C6.39002 119.285 6.48831 119.309 6.58717 119.305C6.68614 119.3 6.78144 119.265 6.86138 119.205C6.94132 119.147 7.00221 119.064 7.03662 118.971C7.11025 118.766 7.20223 118.514 7.31267 118.215C7.41692 117.917 7.44456 117.611 7.39547 117.301C7.21759 116.194 7.58252 115.345 8.49026 114.755C8.77251 114.574 8.96873 114.326 9.07918 114.008C10.0175 111.315 11.9282 109.956 14.8111 109.932C14.9448 109.932 15.0775 109.904 15.2009 109.849C15.3243 109.794 15.4359 109.714 15.5287 109.615L18.6015 106.238C18.8162 106.007 19.0738 105.858 19.3744 105.79C22.4167 105.149 24.358 104.477 25.1983 103.775C29.179 100.429 33.1935 97.1174 37.2417 93.8402C38.6953 92.6555 39.9097 92.8234 41.6303 92.9913C42.2559 93.0535 42.2927 93.24 41.7407 93.551L40.1306 94.4557C39.9159 94.5801 39.7564 94.7574 39.6521 94.9876C39.2106 95.9297 36.6252 98.2058 36.6068 98.3924C36.5762 98.6657 36.6866 98.7473 36.938 98.6354C39.9925 97.2823 40.977 94.2132 44.0868 92.702C44.8044 92.36 45.4086 91.9372 45.8992 91.4335C49.4322 87.8514 53.4375 84.916 57.9151 82.6276C58.1849 82.4907 58.4149 82.3011 58.605 82.0586C59.2951 81.191 61.3652 80.8179 62.4969 79.9597C67.6307 76.0605 74.5402 75.3982 78.9104 70.3982C79.1189 70.1619 79.3766 70.0531 79.6833 70.0717C81.1554 70.1588 82.7102 69.5866 84.3479 68.3553C85.7279 67.3105 88.3531 66.1289 92.2235 64.8106C94.4561 64.0518 96.6735 63.2403 98.8755 62.3759C102.307 61.0233 105.269 58.3088 109.198 56.9935C109.499 56.8877 109.753 56.7136 109.962 56.4711C110.404 55.9487 110.974 55.7403 111.673 55.8461C111.961 55.8896 112.238 55.8553 112.501 55.7434C117.144 53.7844 120.192 52.2547 121.646 51.154C123.333 49.8667 124.946 49.223 126.486 49.223C126.823 49.223 127.109 49.0986 127.342 48.8499C128.065 48.0663 128.998 47.8673 130.139 48.2529C130.295 48.3043 130.463 48.3059 130.622 48.2576C130.78 48.2093 130.919 48.1133 131.022 47.9823C133.276 45.1092 134.987 43.71 138.502 41.9936C140.231 41.1447 141.013 39.8201 142.725 39.1111C145.899 37.7772 148.328 35.8461 151.649 34.876C153.476 34.3474 155.264 33.7069 157.013 32.9545C157.233 32.8549 157.427 32.7213 157.592 32.5534L160.04 30.0346C160.14 29.9304 160.262 29.8508 160.398 29.8022C160.533 29.7537 160.679 29.7375 160.822 29.7549C161.828 29.873 162.65 29.5465 163.288 28.7754C163.496 28.5266 163.757 28.3805 164.07 28.3369C164.854 28.2312 165.606 27.9079 166.323 27.3668C166.219 28.0322 166.349 28.424 166.71 28.5422C170.139 29.618 172.733 29.2573 174.494 27.4601C188.558 25.4577 199.703 29.9911 207.928 41.0608C208.016 41.1791 208.131 41.2746 208.262 41.3396C208.394 41.4044 208.537 41.4367 208.683 41.4339C216.84 41.3219 223.685 44.024 229.218 49.5402C234.398 54.6987 233.68 61.2845 229.025 66.3964C228.937 66.4909 228.881 66.6102 228.863 66.7383C228.844 66.8664 228.865 66.997 228.922 67.1128C228.98 67.2285 229.07 67.3237 229.182 67.3858C229.294 67.4478 229.423 67.4736 229.549 67.4597C240.736 66.3216 250.342 74.9597 244.306 86.732C243.957 87.416 244.134 87.8326 244.84 87.9819Z" fill="#3F333C"/>
<path d="M159 68.6363C158.842 68.5426 158.68 68.5082 158.516 68.5333C158.444 68.545 158.377 68.5737 158.317 68.6169C158.259 68.6603 158.21 68.717 158.176 68.7829C158.142 68.8489 158.122 68.9223 158.119 68.9975C158.117 69.0728 158.13 69.1479 158.159 69.2173C158.195 69.3048 158.219 69.3954 158.232 69.4891C158.25 69.6078 158.228 69.7171 158.168 69.8171C158.015 70.0482 157.86 70.117 157.702 70.0233C157.494 69.9045 157.303 69.9202 157.125 70.0701C152.234 74.3525 147.012 79.4408 142.248 82.8236C131.83 90.2327 120.299 94.665 107.656 96.1206C100.569 96.9359 92.001 96.2518 84.2192 96.0269C79.9307 95.8957 76.721 97.0764 73.3469 100.224C63.7273 109.22 52.5165 114.552 46.9751 126.921C46.9569 126.966 46.9264 126.987 46.8837 126.987C46.8045 127 46.7253 127.003 46.6459 126.996C46.4265 126.978 46.3411 126.859 46.3899 126.64C46.8593 124.605 46.3961 124.026 45 124.907C49.0509 114.468 58.6797 107.618 67.7232 100.702C69.799 99.1186 70.9054 93.6092 73.484 91.3508C77.032 88.2304 91.3334 89.4768 96.344 89.4487C122.652 89.3175 137.685 76.5733 154.812 58.2067C154.892 58.1226 154.991 58.061 155.102 58.0278C155.211 57.9946 155.327 57.9911 155.438 58.0176C155.549 58.0441 155.651 58.0996 155.733 58.1789C155.816 58.2581 155.877 58.3582 155.91 58.4692L159 68.6363Z" fill="#A45445"/>
<path d="M243.698 87.5741C250.422 91.0547 251.991 100.59 247.569 106.636C247.386 106.884 247.398 107.122 247.607 107.351C252.853 113.006 251.578 120.473 247.55 126.442C247.368 126.709 247.364 126.976 247.541 127.243L253.395 136.159C253.052 137.189 253.189 138.055 253.807 138.753C253.985 138.951 254.04 139.18 253.972 139.44C253.91 139.657 253.78 139.819 253.578 139.926C253.315 140.067 253.156 140.286 253.101 140.584C252.654 143.044 252.4 145.504 252.339 147.965C252.284 150.177 251.202 151.55 249.523 152.58C249.254 152.746 248.986 152.752 248.716 152.599C246.056 151.112 243.536 151.035 241.157 152.37C239.555 153.261 238.13 153.207 236.882 152.208C236.736 152.094 236.617 152.116 236.525 152.275L236.378 152.532C236.237 152.774 236.122 152.761 236.029 152.494L235.388 150.625C234.8 141.147 227.912 129.951 217.601 136.789C217.331 136.967 217.17 136.894 217.114 136.569C214.904 124.335 203.868 115.772 195.402 107.943C191.953 104.748 186.44 103.632 182 101.773C186.544 99.9551 190.877 100.035 194.999 102.011C204.345 106.493 209.336 98.4639 208.482 89.8055C207.994 84.8278 207.006 79.955 205.52 75.187C205.41 74.8182 205.358 74.4337 205.364 74.0332C205.37 73.7789 205.443 73.7534 205.584 73.9569C205.645 74.0459 205.715 74.1253 205.795 74.1953C205.837 74.2334 205.887 74.2367 205.942 74.2048C207.529 73.318 208.18 72.7077 208.849 70.7815C210.648 65.5749 214.831 69.5418 216.72 66.5761C216.916 66.271 217.185 66.0803 217.527 66.004C218.359 65.8068 219.081 66.0294 219.693 66.6715C219.937 66.9257 220.191 66.9353 220.454 66.7001L222.105 65.1839C222.368 64.9486 222.637 64.9392 222.913 65.1553L223.453 65.5939C223.512 65.6411 223.561 65.7004 223.596 65.7681C223.633 65.8358 223.655 65.9104 223.662 65.9873C223.668 66.0643 223.66 66.1419 223.636 66.2153C223.614 66.2886 223.576 66.3563 223.527 66.414L222.179 67.9779C222.117 68.0479 222.076 68.1337 222.057 68.2264C222.039 68.3192 222.045 68.4155 222.074 68.5057C222.104 68.5959 222.157 68.6766 222.227 68.7397C222.296 68.8027 222.381 68.8459 222.471 68.8647C223.487 69.0745 225.101 69.3257 227.315 69.6181C235.278 70.667 239.534 80.3269 239.378 87.9556C239.341 89.5449 239.002 90.7782 238.359 91.6555C237.717 92.5265 237.923 93.0287 238.975 93.1622C245.643 93.9823 246.569 98.2353 247.505 104.176C247.514 104.246 247.546 104.312 247.595 104.361C247.644 104.41 247.708 104.441 247.777 104.446C247.844 104.454 247.913 104.436 247.97 104.398C248.027 104.358 248.071 104.301 248.092 104.233C248.991 101.818 249.083 99.4497 248.367 97.1291C247.799 95.3077 246.047 94.3065 246.633 91.5697C246.719 91.1627 246.597 90.8417 246.266 90.6066L242.918 88.194C242.71 88.0477 242.717 87.9111 242.937 87.7839C243.139 87.6632 243.393 87.5932 243.698 87.5741Z" fill="#2D242F"/>
<path d="M158.86 68.1106C163.368 80.007 168.843 90.651 178.394 98.8188L174.337 102.893C168.733 100.492 160.879 98.4823 155.44 100.856C149.669 103.389 150.554 111.921 156.582 113.257C158.565 113.696 160.721 112.986 162.759 112.556C173.019 110.397 181.021 115.752 187.908 122.808C187.883 122.901 187.794 122.979 187.64 123.041C187.474 123.103 187.456 123.197 187.585 123.322L187.898 123.639C188.034 123.776 188.034 123.914 187.898 124.051C186.743 125.26 186.116 126.71 186.018 128.405C186.006 128.704 185.868 128.929 185.604 129.078L181.547 131.321C161.155 114.715 145.899 152.123 166.013 163.907C167.003 164.487 168.961 164.552 171.885 164.104C170.798 166.135 170.687 167.362 171.554 167.786C171.663 167.838 171.758 167.92 171.823 168.024C171.89 168.127 171.927 168.247 171.93 168.371C171.932 168.494 171.901 168.615 171.84 168.721C171.778 168.828 171.689 168.915 171.582 168.972C164.566 172.776 167.443 179.383 172.946 182.514C177.03 184.822 183.115 183.429 187.649 182.429C184.042 191.407 178.256 198.297 170.29 203.101C163.561 207.162 155.396 210.767 145.797 213.913C144.574 214.629 142.26 214.947 138.856 214.866C131.044 215.178 123.125 214.945 115.099 214.165C90.4759 211.203 68.3051 200.288 54.4864 178.822L51.1584 172.393C51.0981 172.274 50.9961 172.18 50.871 172.131C50.7458 172.081 50.6058 172.077 50.4763 172.122C31.0802 179.121 13.4634 151.067 28.877 136.414C32.4262 133.031 38.8791 132.302 41.6079 137.367C41.8538 137.822 41.9736 137.788 41.9674 137.265C41.8999 132.667 42.5544 128.321 43.9311 124.228C45.3384 123.35 45.8055 123.926 45.3322 125.957C45.2831 126.175 45.3691 126.293 45.5904 126.312C45.6703 126.318 45.7501 126.316 45.8301 126.303C45.8731 126.303 45.9038 126.281 45.9223 126.237C51.5087 113.902 62.8108 108.584 72.5087 99.6131C75.9105 96.473 79.1462 95.2956 83.4697 95.4264C91.3148 95.6507 99.9521 96.3329 107.097 95.5198C119.843 94.0683 131.468 89.6481 141.971 82.2591C146.774 78.8856 152.037 73.8112 156.97 69.5404C157.148 69.3909 157.342 69.3754 157.551 69.4937C157.711 69.5872 157.867 69.5186 158.021 69.2881C158.082 69.1885 158.104 69.0795 158.085 68.961C158.073 68.8676 158.049 68.7773 158.012 68.69C157.982 68.6209 157.968 68.546 157.972 68.4709C157.975 68.3958 157.995 68.3227 158.029 68.2569C158.063 68.1911 158.112 68.1345 158.172 68.0914C158.231 68.0483 158.299 68.0197 158.371 68.0079C158.537 67.983 158.7 68.0172 158.86 68.1106ZM65.5764 123.406C65.7995 123.498 66.0433 123.528 66.2819 123.492C66.5205 123.456 66.7449 123.356 66.9315 123.2C75.3758 116.126 83.2946 110.248 94.9838 112.65C100.293 113.734 107.42 112.229 105.613 104.8C104.304 99.4449 97.0023 99.258 92.3012 99.828C82.1545 101.067 74.0237 105.796 67.9087 114.014C66.7656 115.547 62.6356 122.163 65.5764 123.406ZM77.6159 159.805C82.0409 163.674 89.2406 165.515 94.3846 162.562C105.991 155.899 104.138 130.704 90.6234 127.527C81.2942 125.331 73.0065 132.199 71.255 141.255C69.8231 148.65 71.9433 154.833 77.6159 159.805ZM34.5096 162.618C36.7774 164.599 43.1382 167.384 44.6685 163.421C46.1712 159.515 41.8937 148.17 40.1422 144.32C37.5517 138.648 32.5092 137.769 29.9002 143.993C26.9134 151.114 28.4499 157.323 34.5096 162.618ZM130.457 167.468C129.824 167.387 129.219 167.621 128.641 168.169C128.395 168.399 128.109 168.468 127.784 168.374L126.631 168.029C126.445 167.974 126.25 167.961 126.058 167.992C125.867 168.023 125.685 168.098 125.526 168.208C125.366 168.319 125.234 168.464 125.139 168.634C125.043 168.804 124.986 168.992 124.972 169.187C124.899 170.21 125.108 171.084 125.598 171.813C125.113 172.486 125.147 173.178 125.701 173.888C125.86 174.097 126.091 174.235 126.345 174.271C131.349 174.963 134.701 173.196 136.404 168.972C138.533 163.702 135.712 160.067 131.997 156.852C131.917 156.782 131.814 156.746 131.708 156.75C131.604 156.755 131.504 156.799 131.43 156.875C131.357 156.951 131.314 157.053 131.311 157.159C131.308 157.267 131.346 157.371 131.416 157.45C134.194 160.814 133.874 164.154 130.457 167.468ZM64.7467 182.196C70.7388 186.794 77.3393 187.517 84.5483 184.364C87.6826 182.999 90.8722 179.654 89.9227 175.907C88.5308 170.402 80.4091 166.253 75.1914 165.057C69.6603 163.786 65.1676 165.088 61.7137 168.963C58.2015 172.916 61.2436 179.514 64.7467 182.196ZM110.093 180.458C109.049 180.757 108.338 181.299 107.964 182.084C107.822 182.383 107.828 182.678 107.982 182.971C115.642 197.606 143.511 198.008 151.973 183.971C152.72 182.728 152.149 182.056 151.134 181.345C150.556 180.211 149.601 179.125 148.267 178.084C148.01 177.878 147.727 177.826 147.419 177.925C135.294 181.762 122.852 182.607 110.093 180.458Z" fill="#B0624E"/>
<path d="M178.502 99L182.501 101.764C186.95 103.585 192.474 104.677 195.931 107.805C204.415 115.471 215.473 123.856 217.688 135.836C217.744 136.154 217.906 136.225 218.176 136.051C228.508 129.356 235.41 140.318 235.999 149.6C236.109 162.924 224.564 176.65 210.473 173.083C210.347 173.051 210.213 173.062 210.091 173.117C209.97 173.171 209.869 173.264 209.801 173.382C198.667 193.19 181.818 206.045 159.255 211.946C154.138 213.29 149.719 213.975 146 214C155.572 210.857 163.713 207.255 170.423 203.197C178.365 198.397 184.134 191.512 187.732 182.542L192.042 164.427C192.135 164.035 192.373 163.817 192.76 163.774C196.418 163.335 200.472 164.166 204.995 164.007C205.306 163.994 205.564 163.871 205.767 163.634C206.422 162.881 206.849 161.929 207.044 160.777C209.471 146.444 207.486 129.972 197.3 119.066C195.545 117.189 190.838 112.465 188.127 114.902C184.291 109.548 179.734 105.605 174.459 103.071L178.502 99Z" fill="#9D473C"/>
<path d="M66.0532 123.894C63.0669 122.594 67.2608 115.673 68.4216 114.069C74.6312 105.473 82.8879 100.526 93.1915 99.2297C97.9654 98.6334 105.38 98.8289 106.709 104.43C108.545 112.202 101.307 113.776 95.9156 112.642C84.0456 110.13 76.0042 116.279 67.4293 123.679C67.2399 123.84 67.0119 123.947 66.7696 123.984C66.5274 124.022 66.2799 123.991 66.0532 123.894Z" fill="#4B3D44"/>
<path d="M174.144 103.104C179.52 105.642 184.161 109.593 188.069 114.958C189.967 117.308 190.944 119.935 191 122.835C191.004 123.039 190.953 123.241 190.853 123.419C190.752 123.596 190.606 123.745 190.429 123.847C190.253 123.948 190.051 124.002 189.846 124C189.642 123.998 189.443 123.941 189.267 123.836L187.929 123.041C180.933 115.977 172.805 110.617 162.383 112.778C160.313 113.208 158.122 113.919 156.109 113.479C149.984 112.142 149.085 103.6 154.947 101.064C160.472 98.688 168.45 100.7 174.144 103.104Z" fill="#4B3D44"/>
<path d="M187.453 183.636C182.863 184.654 176.706 186.072 172.573 183.721C167.004 180.533 164.093 173.805 171.192 169.932C171.302 169.873 171.391 169.785 171.454 169.676C171.516 169.568 171.547 169.444 171.545 169.319C171.541 169.193 171.505 169.071 171.438 168.966C171.37 168.861 171.276 168.776 171.165 168.723C170.288 168.292 170.399 167.042 171.501 164.973C174.965 164.505 178.049 163.102 180.755 160.767C189.738 152.992 189.477 140.02 181.277 131.588L185.382 129.304C185.649 129.152 185.789 128.924 185.801 128.619C185.9 126.894 186.535 125.416 187.704 124.184C187.841 124.045 187.841 123.906 187.704 123.766L187.388 123.442C187.256 123.316 187.275 123.221 187.443 123.157C187.599 123.094 187.689 123.014 187.713 122.919L189.048 123.728C189.222 123.835 189.421 123.893 189.625 123.895C189.828 123.896 190.029 123.843 190.205 123.738C190.382 123.635 190.527 123.485 190.627 123.303C190.727 123.122 190.777 122.917 190.774 122.709C190.718 119.759 189.745 117.088 187.854 114.696C190.605 112.212 195.382 117.028 197.164 118.941C207.5 130.056 209.515 146.844 207.052 161.452C206.854 162.626 206.421 163.597 205.756 164.364C205.55 164.606 205.288 164.733 204.972 164.745C200.382 164.907 196.268 164.06 192.555 164.507C192.163 164.552 191.921 164.773 191.827 165.173L187.453 183.636Z" fill="#A45445"/>
<path d="M77.7461 159.773C72.1134 154.789 70.008 148.59 71.4299 141.177C73.1692 132.098 81.3984 125.211 90.6621 127.413C104.082 130.599 105.921 155.858 94.3968 162.538C89.289 165.499 82.1399 163.652 77.7461 159.773ZM88.2817 163.575C89.8224 163.687 91.3767 163.391 92.8559 162.7C94.335 162.009 95.71 160.938 96.9024 159.55C98.0948 158.161 99.0806 156.479 99.8052 154.603C100.53 152.726 100.977 150.692 101.122 148.613C101.416 144.418 100.462 140.303 98.469 137.175C96.4768 134.045 93.6095 132.16 90.4979 131.932C88.9571 131.819 87.4028 132.115 85.9236 132.806C84.4445 133.497 83.0694 134.568 81.877 135.957C80.6847 137.346 79.6983 139.028 78.9743 140.904C78.2503 142.78 77.8026 144.814 77.6572 146.893C77.3633 151.088 78.3176 155.203 80.31 158.332C82.3025 161.461 85.17 163.346 88.2817 163.575Z" fill="#FEFEFE"/>
<path d="M181.907 131.154C189.988 139.376 190.245 152.025 181.393 159.607C178.727 161.883 175.687 163.25 172.274 163.708C169.356 164.154 167.405 164.089 166.418 163.514C146.36 151.811 161.573 114.663 181.907 131.154ZM170.728 163.341C172.295 163.239 173.821 162.729 175.217 161.843C176.615 160.957 177.856 159.71 178.871 158.174C179.886 156.638 180.654 154.842 181.13 152.891C181.608 150.94 181.786 148.87 181.653 146.8C181.385 142.619 179.871 138.693 177.443 135.883C175.016 133.074 171.874 131.611 168.709 131.817C167.141 131.919 165.615 132.429 164.218 133.315C162.821 134.202 161.579 135.449 160.565 136.985C159.551 138.521 158.783 140.316 158.305 142.267C157.829 144.219 157.651 146.289 157.783 148.358C158.051 152.539 159.566 156.465 161.993 159.276C164.421 162.086 167.563 163.547 170.728 163.341Z" fill="#FEFEFE"/>
<path d="M88.4188 163.976C85.3823 163.747 82.584 161.842 80.6398 158.683C78.6954 155.524 77.7642 151.368 78.051 147.131C78.1929 145.033 78.6297 142.977 79.3362 141.083C80.0429 139.188 81.0054 137.491 82.1689 136.089C83.3324 134.686 84.6743 133.605 86.1177 132.907C87.5611 132.209 89.0778 131.909 90.5814 132.024C93.6178 132.254 96.4162 134.158 98.3604 137.317C100.304 140.477 101.235 144.632 100.949 148.869C100.807 150.967 100.37 153.023 99.6642 154.917C98.9572 156.812 97.9951 158.509 96.8316 159.911C95.668 161.315 94.3259 162.396 92.8824 163.093C91.439 163.791 89.9223 164.091 88.4188 163.976ZM91.6934 144.59C91.6929 144.234 91.5587 143.893 91.3204 143.641C91.0821 143.39 90.7593 143.248 90.4229 143.249L88.8507 143.252C88.6841 143.253 88.5192 143.287 88.3654 143.356C88.2117 143.423 88.072 143.523 87.9545 143.647C87.8369 143.772 87.7437 143.92 87.6802 144.083C87.6167 144.246 87.5842 144.421 87.5846 144.598L87.5925 149.423C87.593 149.78 87.7273 150.12 87.9656 150.372C88.2038 150.624 88.5267 150.765 88.8631 150.764L90.4352 150.761C90.6018 150.761 90.7667 150.726 90.9204 150.659C91.0742 150.59 91.2138 150.491 91.3314 150.366C91.449 150.241 91.5422 150.093 91.6057 149.93C91.6691 149.767 91.7017 149.592 91.7014 149.416L91.6934 144.59Z" fill="#07080B"/>
<path d="M170.47 163.98C167.43 164.191 164.413 162.708 162.083 159.859C159.752 157.009 158.298 153.028 158.041 148.791C157.914 146.691 158.085 144.593 158.542 142.615C159.001 140.636 159.738 138.816 160.712 137.259C161.685 135.702 162.878 134.438 164.219 133.539C165.56 132.639 167.026 132.123 168.531 132.019C171.57 131.81 174.587 133.293 176.917 136.142C179.248 138.99 180.701 142.973 180.959 147.21C181.087 149.309 180.916 151.408 180.457 153.386C180 155.364 179.262 157.185 178.288 158.742C177.314 160.299 176.122 161.563 174.78 162.462C173.439 163.36 171.975 163.877 170.47 163.98ZM171.919 145.183C171.923 144.671 171.737 144.178 171.401 143.812C171.066 143.448 170.608 143.24 170.128 143.234L169.493 143.227C169.255 143.224 169.019 143.271 168.798 143.365C168.578 143.461 168.377 143.599 168.208 143.777C168.038 143.955 167.903 144.165 167.809 144.398C167.716 144.632 167.666 144.881 167.664 145.135L167.629 148.748C167.623 149.259 167.809 149.752 168.145 150.117C168.481 150.483 168.939 150.691 169.419 150.697L170.055 150.704C170.292 150.707 170.528 150.66 170.748 150.564C170.969 150.47 171.169 150.33 171.34 150.154C171.509 149.976 171.645 149.765 171.738 149.532C171.831 149.299 171.88 149.048 171.883 148.796L171.919 145.183Z" fill="#07080B"/>
<path d="M253.58 135C257.703 142.573 256.558 148.554 250.145 152.942C249.877 153.124 249.809 153.365 249.944 153.666C252.481 159.204 251.648 168.157 245.381 170.931C245.263 170.986 245.168 171.081 245.114 171.201C245.06 171.321 245.05 171.455 245.088 171.579C247.617 180.39 245.446 187.198 236.486 189.23C236.168 189.305 236.03 189.506 236.073 189.831C238.071 203.918 228.744 209.447 216.477 206.645C216.342 206.614 216.202 206.633 216.079 206.701C215.958 206.768 215.865 206.879 215.818 207.012C214.071 211.927 210.977 216.321 206.537 220.195C205.755 220.872 204.137 221.967 201.681 223.477C195.928 227.013 190.377 226.743 185.027 222.668C184.971 222.627 184.907 222.598 184.839 222.584C184.772 222.57 184.702 222.571 184.636 222.586C184.569 222.602 184.506 222.633 184.451 222.676C184.397 222.72 184.353 222.775 184.321 222.837C182.947 225.615 180.855 227.336 178.046 228C170.178 223.098 161.344 219.948 151.541 218.55C146.893 218.876 144.042 218.086 142.984 216.18C142.91 216.049 142.803 215.94 142.674 215.864C142.546 215.788 142.4 215.748 142.252 215.747C141.104 215.76 140.02 215.538 139 215.08C142.384 215.162 144.683 214.842 145.898 214.121C149.606 214.096 154.009 213.406 159.109 212.052C181.597 206.109 198.389 193.164 209.487 173.216C209.553 173.097 209.655 173.003 209.776 172.949C209.897 172.895 210.029 172.883 210.156 172.915C224.2 176.507 235.707 162.684 235.597 149.265L236.238 151.108C236.329 151.371 236.446 151.384 236.586 151.146L236.732 150.892C236.825 150.735 236.944 150.713 237.09 150.826C238.336 151.811 239.759 151.864 241.36 150.986C243.735 149.669 246.252 149.745 248.908 151.212C249.176 151.362 249.446 151.356 249.714 151.193C251.391 150.177 252.472 148.823 252.527 146.641C252.588 144.215 252.841 141.789 253.288 139.363C253.342 139.069 253.501 138.853 253.764 138.714C253.965 138.609 254.096 138.449 254.158 138.235C254.225 137.979 254.169 137.753 253.992 137.558C253.376 136.869 253.239 136.016 253.58 135Z" fill="#211B24"/>
<path d="M35.2496 162.268C29.0295 157.127 27.4525 151.098 30.5183 144.184C33.1962 138.141 38.3722 138.994 41.0311 144.502C42.8291 148.24 47.2197 159.256 45.6773 163.049C44.1065 166.896 37.5774 164.192 35.2496 162.268Z" fill="#9D473C"/>
<path d="M90.4471 143L88.5378 143.002C87.6871 143.003 86.9985 143.565 87 144.256L87.0097 148.751C87.0112 149.443 87.7021 150.001 88.5529 150L90.4622 149.998C91.313 149.997 92.0015 149.435 92 148.744L91.9904 144.249C91.9889 143.557 91.298 142.999 90.4471 143Z" fill="#FEFEFE"/>
<path d="M169.913 143.007L169.172 143C168.007 142.99 167.053 143.789 167.041 144.787L167 148.169C166.987 149.165 167.922 149.982 169.087 149.993L169.827 150C170.993 150.01 171.947 149.211 171.959 148.213L172 144.831C172.013 143.834 171.078 143.018 169.913 143.007Z" fill="#FEFEFE"/>
<path d="M126.344 172.347L131.252 167.92C134.704 164.544 135.026 161.141 132.22 157.713C132.15 157.632 132.111 157.526 132.115 157.418C132.117 157.31 132.16 157.205 132.234 157.128C132.31 157.05 132.41 157.005 132.517 157C132.622 156.996 132.727 157.034 132.807 157.104C136.56 160.379 139.41 164.083 137.259 169.453C135.539 173.756 132.152 175.556 127.099 174.851C126.842 174.814 126.608 174.675 126.446 174.461C125.888 173.737 125.853 173.033 126.344 172.347Z" fill="#A45445"/>
<path d="M65.601 182.852C62.0907 180.133 59.0421 173.445 62.5617 169.437C66.0228 165.509 70.5247 164.189 76.0674 165.477C81.2959 166.69 89.4345 170.896 90.8293 176.476C91.7808 180.275 88.5846 183.667 85.4437 185.05C78.2198 188.246 71.6056 187.513 65.601 182.852Z" fill="#A45445"/>
<path d="M131 167.018L125.7 172C125.164 171.164 124.935 170.161 125.016 168.989C125.032 168.766 125.093 168.55 125.197 168.356C125.303 168.162 125.447 167.994 125.62 167.867C125.794 167.74 125.992 167.655 126.201 167.619C126.41 167.583 126.624 167.598 126.827 167.661L128.083 168.057C128.439 168.164 128.75 168.085 129.018 167.821C129.649 167.193 130.309 166.925 131 167.018Z" fill="#CD7A4E"/>
<path d="M151 181.497C143.41 188.718 134.306 191.34 123.687 189.362C117.948 188.301 113.719 185.381 111 180.602C123.435 182.768 135.562 181.917 147.379 178.049C147.678 177.949 147.954 178.002 148.206 178.209C149.505 179.258 150.437 180.353 151 181.497Z" fill="#FEFEFE"/>
<path d="M54.8208 179C68.5407 200.633 90.553 211.633 115 214.618C113.682 217.538 110.787 219.165 106.314 219.497C105.283 219.308 103.48 219.694 100.905 220.655C91.2455 222.338 82.5474 226.786 74.8103 234L70.3895 229.432C70.1577 229.187 69.8769 229.046 69.5474 229.009L65.2274 228.5C66.8077 227.829 68.501 227.515 70.3072 227.558C70.6549 227.565 70.8716 227.396 70.957 227.05C71.735 223.885 73.9316 219.732 72.8791 216.483C69.5383 206.123 63.1314 197.176 57.7038 188.079C56.276 185.687 56.4865 183.097 54.235 180.695C54.1256 180.58 54.0503 180.436 54.0179 180.278C53.9855 180.122 53.9972 179.959 54.0519 179.81C54.1984 179.421 54.4546 179.151 54.8208 179Z" fill="#2D242F"/>
<path d="M110.259 181C113.084 185.476 117.475 188.21 123.436 189.204C134.466 191.056 143.924 188.602 151.806 181.838C152.832 182.508 153.411 183.144 152.655 184.317C144.088 197.567 115.877 197.187 108.121 183.373C107.966 183.097 107.959 182.817 108.103 182.535C108.483 181.794 109.201 181.282 110.259 181Z" fill="#141319"/>
<path d="M115.53 214C123.356 214.818 131.078 215.064 138.694 214.737C139.694 215.215 140.759 215.447 141.885 215.434C142.031 215.435 142.173 215.477 142.299 215.555C142.425 215.635 142.53 215.749 142.604 215.886C143.641 217.878 146.44 218.704 151 218.364C149.681 226.611 144.335 231.659 134.964 233.507C123.907 235.305 110.433 232.554 107 219.09C111.392 218.743 114.236 217.047 115.53 214Z" fill="#9D473C"/>
<path d="M151.438 219C161.297 220.378 170.183 223.484 178.096 228.319C183.09 232.145 186.358 236.873 187.9 242.505C188.201 243.612 187.82 244.375 186.758 244.795C179.521 247.614 172.085 250.016 164.449 252C157.703 242.375 148.515 236.669 136.879 234.883C136.554 234.834 136.363 234.646 136.308 234.318C136.185 233.632 135.749 233.289 135 233.289C144.607 231.545 150.087 226.783 151.438 219Z" fill="#D87317"/>
<path d="M106.399 220.045C109.887 232.679 123.577 235.262 134.811 233.574C135.553 233.574 135.986 233.915 136.108 234.598C136.162 234.923 136.351 235.11 136.674 235.16C148.206 236.936 157.315 242.611 164 252.184C151.89 255.054 139.448 256.306 126.673 255.937C125.687 255.74 126.162 254.916 128.098 253.466C128.359 253.268 128.375 253.056 128.144 252.829C122.225 246.89 116.226 241.671 109.512 235.096C105.177 230.853 102.34 226.215 101 221.18C103.569 220.239 105.369 219.861 106.399 220.045Z" fill="#EF8B24"/>
<path d="M101.172 221C102.536 226.07 105.429 230.741 109.847 235.013C116.688 241.634 122.803 246.89 128.834 252.871C129.07 253.099 129.055 253.313 128.788 253.511C126.814 254.972 126.33 255.802 127.335 256C117.494 255.932 107.56 254.969 97.5321 253.112C89.9682 251.23 82.4724 249.091 75.0448 246.695C73.5307 246.205 72.1098 245.592 70.7819 244.856C69.9939 244.411 69.8015 243.783 70.2048 242.971L74.6353 234.159C82.5034 227.045 91.3489 222.659 101.172 221Z" fill="#F29A32"/>
</g>
<defs>
<clipPath id="clip0_2_615">
<rect width="256" height="256" fill="white"/>
</clipPath>
</defs>
</svg>
