<svg width="256" height="256" viewBox="0 0 256 256" fill="none" xmlns="http://www.w3.org/2000/svg">
<g clip-path="url(#clip0_2_615)">
<path d="M35 39C26.473 42.0606 24.4599 47.5839 28.9604 55.5697C29.1034 55.827 29.0243 55.9766 28.7233 56.0183C16.599 57.7191 9.10315 64.7101 15.1202 76" stroke="#898D99" stroke-width="2"/>
<path d="M15.1939 76L11.6506 77.7669C11.3196 77.9271 11.0375 78.1467 10.8043 78.4255C5.50069 84.6985 5.45555 89.9468 3.75163 97.2759C-9.1463 152.478 11.3572 207.816 63.0279 239.285C64.382 240.111 66.0634 240.007 67 241" stroke="#F5F5F2" stroke-width="2"/>
<path d="M67 241C69.6347 242.136 71.3015 243.136 72 244" stroke="#93C0C7" stroke-width="2"/>
<path d="M238 59L236 62" stroke="#F5F5F2" stroke-width="2"/>
<path d="M236 62L232.544 61.1694C232.168 61.0772 232.049 60.8606 232.184 60.5199C235.35 52.1858 232.848 46.1056 224.675 42.2792C224.345 42.1231 224.262 41.8888 224.428 41.5766C227.861 34.9746 225.396 27.9467 217.55 26.1364C214.443 25.423 210.908 26.3599 207.7 27.084C207.241 27.1905 207.106 27.0379 207.295 26.6261C209.02 22.8638 208.589 19.655 206 17" stroke="#818692" stroke-width="2"/>
<path d="M206 17.1845C200.765 13.4271 194.734 15.3535 189.352 17.9043C188.927 18.1089 188.715 17.9854 188.715 17.5338C188.703 15.1841 189.568 13.1837 188.863 11.0456C186.689 4.39866 176.971 2.56757 172.692 8.8335C172.404 9.25687 172.146 9.23928 171.919 8.78058C167.754 0.429543 155.714 -2.07895 149.763 6.09216C149.506 6.44501 149.21 6.47676 148.875 6.18742C141.319 -0.353702 133.206 -2.51291 125.616 5.76404C125.373 6.03222 125.142 6.02508 124.922 5.74288C119.801 -0.724152 110.936 -0.597139 106.271 6.64254C106.021 7.02358 105.774 7.02358 105.531 6.64254C102.489 1.87959 98.173 -0.321947 92.5815 0.0379199C89.1748 0.256619 85.9814 1.45265 83 3.62601" stroke="#898D99" stroke-width="2"/>
<path d="M206 17L205.321 20.7491C205.298 20.8891 205.211 20.9592 205.061 20.9592H204.721C204.554 20.9592 204.457 21.0362 204.427 21.1901C204.253 22.1143 204.008 23.0279 203.691 23.9311C203.608 24.1761 203.502 24.1831 203.375 23.9521C203.336 23.8821 203.302 23.7876 203.273 23.6685C203.205 23.3396 203.058 23.3045 202.831 23.5635C202.273 24.2287 201.635 24.8167 200.919 25.3278C200.331 25.7478 200.164 25.6359 200.421 24.9917L200.761 24.1306C200.819 23.9858 200.823 23.8264 200.769 23.6797C200.717 23.5328 200.611 23.4074 200.469 23.3247C200.329 23.2419 200.161 23.207 199.995 23.2256C199.83 23.2443 199.676 23.3154 199.561 23.427L196.302 26.4935C195.951 26.8252 195.481 27.0301 194.978 27.0712C192.608 27.2602 190.293 27.7187 188.03 28.4469C187.72 28.5448 187.543 28.7443 187.498 29.0453L187.181 31.0827C187.161 31.2184 187.097 31.3453 186.998 31.4467C186.899 31.548 186.769 31.6189 186.626 31.6497C183.356 32.4059 180.855 34.8844 176.77 36.3861C176.43 36.5121 176.102 36.4876 175.785 36.3126C173.318 34.9369 171.112 34.9683 170.014 37.7512C169.878 38.0943 169.621 38.2133 169.244 38.1082C165.381 37.0161 161.462 36.5821 157.487 36.806C148.366 37.3206 141.18 44.3357 132.749 46.7196C123.639 49.303 114.688 45.1653 104.13 41.3322C96.4915 38.5493 91.003 37.9298 84.6654 42.4875C83.647 43.2227 80.7386 43.6216 79.0525 43.4221C67.1703 41.9728 58.9886 48.4523 54.7563 58.2083C54.628 58.5164 54.6016 58.8279 54.677 59.143C55.0165 60.5607 54.066 61.3483 52.5835 61.6318C45.3787 63.0531 41.9724 67.1382 42.3648 73.8872C42.5006 76.1031 43.7454 78.2769 44.4018 80.5348C44.449 80.6994 44.4544 80.872 44.4178 81.0388C44.3811 81.2058 44.3032 81.3625 44.1903 81.4968C44.0773 81.6311 43.9324 81.7393 43.7669 81.8129C43.6014 81.8864 43.4197 81.9235 43.236 81.921C38.8906 81.879 32.678 81.3959 29.0002 82.6141C22.5951 84.7354 20.66 94.7854 19.8339 101.191C19.6189 102.851 20.3658 104.856 17.8875 105.245C17.7441 105.266 17.6687 105.346 17.6612 105.487C17.6612 105.564 17.6649 105.659 17.6725 105.77C17.6769 105.815 17.6661 105.859 17.6417 105.897C17.6172 105.936 17.5803 105.966 17.5363 105.983C17.4923 106 17.4433 106.005 17.3967 105.995C17.35 105.984 17.3078 105.962 17.2763 105.928C16.9897 105.64 16.82 105.304 16.7672 104.919C16.7501 104.774 16.6902 104.636 16.5943 104.522C16.4983 104.406 16.3701 104.318 16.224 104.268L13.7684 103.407C13.4137 103.288 13.1836 103.061 13.0781 102.725C12.565 101.191 11.539 99.9207 10 98.9126" stroke="#0C162D" stroke-width="2"/>
<path d="M10.5881 100C10.5417 97.6504 11.4903 95.5422 13.4342 93.6781C13.4969 93.6161 13.545 93.5436 13.575 93.4644C13.6052 93.3853 13.6167 93.3021 13.609 93.2177C13.6015 93.1346 13.5747 93.0541 13.5306 92.9803C13.4865 92.9064 13.4259 92.843 13.3529 92.7916C12.6636 92.32 11.9473 91.8803 11.2038 91.4721C10.9018 91.3032 10.6888 91.0676 10.5649 90.7651C8.07899 84.7071 14.317 83.4723 19.1611 83.1873C26.0148 82.7757 18.557 77.3193 16.5822 76" stroke="#80858D" stroke-width="2"/>
<path d="M35 39L38.9565 38.7289C39.3193 38.7012 39.5082 38.5204 39.5234 38.1868C39.8483 31.0274 43.9371 28.0837 51.7898 29.3557C52.2508 29.4322 52.504 29.2584 52.5494 28.8344C52.8895 26.0819 53.0595 23.1313 55.2475 21.1398C57.6963 18.9226 60.7799 18.2065 64.4983 18.992C64.7055 19.035 64.9222 19.0079 65.108 18.9158C65.2938 18.8236 65.4356 18.6729 65.5072 18.4916C67.8502 12.5765 72.4114 10.5676 79.1908 12.4652C80.2338 12.7571 80.7363 12.3993 80.6986 11.3913C80.6381 10.0776 81.4053 7.94724 83 5" stroke="#80858D" stroke-width="2"/>
<path d="M23.0417 130C20.3285 139.086 22.9153 146.218 30.8019 151.393C34.453 153.782 38.5191 154.528 43 153.635" stroke="#CC9F8F" stroke-width="2"/>
<path d="M43 154.028L49.1151 153.016C49.5423 152.947 49.8196 153.103 49.9469 153.485C53.2668 163.566 59.2844 172.071 68 179" stroke="#BD998C" stroke-width="2"/>
<path d="M68 179C81.9907 189.282 100.181 194.192 118 196" stroke="#CC9F8F" stroke-width="2"/>
<path d="M118 196L117 200" stroke="#B28E89" stroke-width="2"/>
<path d="M117 200C116.897 202.53 115.896 204.197 114 205" stroke="#BD998C" stroke-width="2"/>
<path d="M114 205L102 207" stroke="#B28E89" stroke-width="2"/>
<path d="M102 207L94 210" stroke="#86A8AF" stroke-width="2"/>
<path d="M94 210C79.5863 215.421 72.0575 228.727 67 241" stroke="#8AB8BB" stroke-width="2"/>
<path d="M235.9 62C244.331 66.3399 244.896 73.2523 240.963 81.1268C240.794 81.4543 240.856 81.7367 241.151 81.9738C246.197 86.0941 246.281 90.2875 241.406 94.5543C241.126 94.8053 241.104 95.0772 241.34 95.37L244.11 98.8105C244.364 99.1256 244.525 99.5007 244.575 99.8981C245.129 104.458 243.024 107.156 238.26 107.992C237.803 108.069 237.703 108.292 237.96 108.661C240.694 112.558 240.32 116.149 236.841 119.433C236.458 119.795 235.844 119.92 235.002 119.809C234.581 119.761 234.335 119.931 234.26 120.322C233.714 122.971 231.627 124.864 228 126" stroke="#787E86" stroke-width="2"/>
<path d="M228 126.261L222.469 123.968C222.396 123.936 222.315 123.924 222.235 123.931C222.155 123.939 222.079 123.967 222.014 124.012C221.95 124.056 221.9 124.116 221.868 124.185C221.838 124.255 221.828 124.331 221.84 124.405C223.168 133.184 213.481 129.973 209.45 133.248C208.594 133.938 207.744 134.71 206.897 135.563C206.702 135.76 206.449 135.9 206.168 135.963C205.889 136.026 205.594 136.008 205.325 135.915C205.056 135.82 204.823 135.654 204.656 135.435C204.488 135.216 204.396 134.956 204.389 134.688L203.966 121.067C203.95 120.639 204.053 120.213 204.263 119.829C206.622 115.488 202.603 115.648 200.954 113.141C197.874 108.448 200.164 106.656 202.179 102.432C202.212 102.366 202.228 102.296 202.224 102.224C202.221 102.152 202.198 102.081 202.159 102.018C202.119 101.956 202.065 101.902 201.999 101.862C201.932 101.824 201.857 101.798 201.779 101.792C195.969 101.244 192.724 98.3848 192.046 93.2154C191.794 91.2629 193.042 89.0869 193.637 87.1455C193.743 86.7971 193.672 86.4807 193.42 86.1962L190.683 83.1134C190.45 82.8618 190.288 82.5573 190.214 82.2281L189.275 78.3667C189.175 77.9756 188.95 77.8973 188.599 78.132C186.225 79.6823 183.358 80.4004 180 80.2867" stroke="#3F1F29" stroke-width="2"/>
<path d="M180 81.0869L177.178 80.5305C176.777 80.4536 176.447 80.2716 176.187 79.9846L173.238 76.856C172.945 76.5482 172.618 76.5131 172.258 76.751C170.173 78.1263 167.915 79.9426 165.727 80.7615C160.047 82.9031 151.396 82.5672 147.698 77.3599C146.453 75.6067 144.472 67.1554 141.845 68.0688C141.627 68.1443 141.431 68.2651 141.272 68.4219C141.114 68.5786 140.999 68.7669 140.935 68.9717L139 75.1868" stroke="#4A2B2C" stroke-width="2"/>
<path d="M139 74.7008C137.508 78.6026 134.85 80.7418 131.024 81.1185C124.166 81.7901 123.126 75.1699 122.052 70.4899C121.995 70.2278 121.849 69.9909 121.637 69.815C121.425 69.6392 121.158 69.5342 120.879 69.5161C120.599 69.4979 120.319 69.5678 120.086 69.7146C119.851 69.8616 119.673 70.0777 119.58 70.33C117.723 75.1379 118.226 80.1804 111.156 81.1078C98.0338 82.8242 101.614 73.9546 97.4297 67.2597C97.3794 67.1795 97.3095 67.1134 97.2242 67.0679C97.1403 67.0223 97.0438 66.999 96.9445 67C96.8466 67.0011 96.7501 67.0265 96.6634 67.074C96.5781 67.1214 96.5068 67.1891 96.4565 67.2704C95.3672 69.0614 94.6666 71.0016 94.3534 73.0911C92.832 83.4745 81.3201 83.837 73.7914 79.626C73.4917 79.4591 73.1601 79.3506 72.8156 79.3069C72.4714 79.2632 72.1211 79.2851 71.7852 79.3714C71.4492 79.4576 71.1343 79.6064 70.8584 79.8094C70.5826 80.0122 70.3513 80.2651 70.1781 80.5535C68.0452 84.1069 64.8196 85.4964 60.5014 84.7218C60.4243 84.7083 60.3446 84.7155 60.2713 84.7427C60.198 84.7697 60.1341 84.8156 60.0866 84.8753C60.039 84.9348 60.0098 85.006 60.0021 85.0805C59.9943 85.155 60.0084 85.2301 60.0428 85.2974C62.0341 89.0784 62.3734 92.6459 61.0608 96" stroke="#5E3935" stroke-width="2"/>
<path d="M61 96C58.4094 99.5624 54.9088 101.02 50.4983 100.372C50.0432 100.302 49.9038 100.47 50.08 100.874C52.0724 105.412 53.8888 110.485 49.2103 114.25C48.9314 114.48 48.8066 114.766 48.8359 115.107C49.2322 119.757 49.2654 124.415 48.9351 129.08C48.9333 129.155 48.9029 129.227 48.8494 129.284C48.7959 129.34 48.7228 129.375 48.6438 129.384C48.5647 129.393 48.485 129.375 48.4191 129.332C48.3533 129.29 48.3059 129.226 48.2855 129.153C44.6748 118.433 30.4525 116.927 24.9925 127.009C24.3466 128.208 23.6825 129.205 23 130" stroke="#59302F" stroke-width="2"/>
<path d="M23 130C16.1727 127.26 16.7976 123.442 20.3351 119.09C20.5709 118.809 20.4924 118.649 20.0993 118.608C15.1704 118.047 12.8946 115.662 13.272 111.454C13.3113 110.988 13.504 110.575 13.8498 110.212L16.043 107.893C16.3104 107.605 16.2435 107.404 15.8425 107.287C11.8256 106.082 9.88 103.654 10.0057 100" stroke="#787E86" stroke-width="2"/>
<path d="M69.746 131.546C68.3854 130.672 67.3121 130.158 66.526 130.005C66.4361 129.992 66.344 130.004 66.2615 130.041C66.179 130.078 66.1101 130.138 66.0637 130.213C66.0172 130.29 65.9952 130.376 66.0009 130.464C66.0065 130.552 66.0394 130.635 66.0951 130.705C68.4913 133.525 70.1845 137.178 71.1747 141.667C71.409 142.752 72.0174 143.175 73 142.935" stroke="#62322D" stroke-width="2"/>
<path d="M73 143C75.408 147.811 85.6718 150.7 91 149.853" stroke="#D6A79B" stroke-width="2"/>
<path d="M91 148C91.8826 148 92.551 148 93 148" stroke="#C29285" stroke-width="2"/>
<path d="M100 161C100.103 169.54 103.77 175.873 111 180" stroke="#6E2A23" stroke-width="2"/>
<path d="M111 179.841C121.033 185.944 138.744 185.33 148 178" stroke="#852E27" stroke-width="2"/>
<path d="M135 196C129.355 196 123.688 196 118 196" stroke="#934032" stroke-width="2"/>
<path d="M68 179C66.9402 176.569 65.0681 174.421 62.384 172.557C62.0591 172.33 61.8656 172.029 61.8038 171.653C61.5175 169.888 60.8213 168.283 59.715 166.837C56.5435 162.69 54.2151 158.547 52.7299 154.408C52.5219 153.836 52.3933 153.239 52.347 152.632C51.7668 145.274 48.7498 135.121 41.4512 130.666C38.1328 128.635 33.0969 131.676 31.31 134.089C27.7477 138.906 31.9714 143.733 37.7267 144.105C38.1212 144.126 38.4654 144.013 38.7592 143.765C40.2832 142.453 41.3586 140.869 41.9851 139.012C42.0455 138.831 42.0317 138.636 41.9463 138.463C41.8607 138.292 41.7096 138.153 41.5209 138.076C39.8268 137.389 38.0012 137.007 36.0442 136.928C35.7589 136.913 35.4887 136.806 35.2816 136.625C35.0746 136.444 34.9442 136.202 34.9134 135.943C34.8828 135.683 34.954 135.421 35.1143 135.204C35.2746 134.988 35.5136 134.83 35.7888 134.759C48.1696 131.782 48.1 142.67 49.2835 149.995C49.3532 150.399 49.183 150.686 48.773 150.856L42.194 153.557" stroke="#9E4C35" stroke-width="2"/>
<path d="M155 253C150.596 247.6 146.242 243.312 141.938 240.136C136.709 236.293 130.703 233.336 123.92 231.265C113.2 227.992 105.629 225.678 99.9681 216.932C98.2246 214.228 96.2352 211.918 94 210" stroke="#257484" stroke-width="2"/>
<path d="M102.279 207C102.063 207.657 101.858 208.067 102.131 208.735C107.208 221.469 121.28 225.713 134.444 223.397C144.28 221.652 148.573 216.847 152.923 208.982C153.06 208.717 153.014 208.487 152.787 208.293C152.226 207.819 151.563 207.547 150.799 207.474" stroke="#29848F" stroke-width="2"/>
<path d="M91 251C90.3532 250.191 89.4378 249.474 88.2564 248.849C87.873 248.65 87.6892 248.33 87.7035 247.891C87.9878 237.911 87.6649 227.96 86.733 218.038C86.6992 217.694 86.7841 217.351 86.9729 217.069C87.2093 216.707 87.192 216.422 86.9207 216.217C86.434 215.841 86.1141 215.954 85.961 216.558C83.4852 226.068 81.6839 235.714 80.5573 245.496C80.5155 245.871 80.314 246.007 79.9522 245.9C78.9369 245.581 77.9528 245.474 77 245.581" stroke="#257484" stroke-width="2"/>
<path d="M150.6 207C151.288 207 151.088 207 150 207" stroke="#4D4A52" stroke-width="2"/>
<path d="M150 207.6C140.679 225.711 117.974 226.344 104.861 211.716C103.385 210.072 102.431 208.5 102 207" stroke="#556969" stroke-width="2"/>
<path d="M113.882 204.76C113.212 206.179 111.474 206.815 108.666 206.665C106.666 206.55 105.791 207.481 106.042 209.459C106.679 214.427 117.866 219.234 122.143 219.983C122.596 220.061 122.834 219.872 122.855 219.416L122.888 218.923C122.895 218.784 122.954 218.652 123.057 218.554C123.159 218.456 123.295 218.401 123.439 218.399L128.892 218.281C129.061 218.277 129.225 218.235 129.375 218.162C129.525 218.087 129.656 217.98 129.76 217.849C129.862 217.717 129.935 217.565 129.972 217.403C130.009 217.241 130.009 217.072 129.972 216.911C128.9 212.221 126.945 207.789 124.108 203.614C121.948 200.445 119.44 199.36 116.581 200.359" stroke="#843B2F" stroke-width="2"/>
<path d="M180 80C184.183 82.2969 187.683 84.9275 190.504 87.8918C190.771 88.1727 190.846 88.4888 190.728 88.8401C189.334 93.1816 194.013 97.7123 190.031 101.105C189.747 101.343 189.672 101.624 189.807 101.948C190.436 103.451 191.362 104.82 192.583 106.057C192.867 106.338 193.075 106.658 193.209 107.016C193.635 108.112 194.556 109.516 195.974 111.231C197.345 112.874 198.316 115.572 198.892 119.323C198.947 119.673 199.176 119.873 199.578 119.923L200.818 120.071C201.487 120.155 201.83 120.503 201.846 121.114L202 131.734C202.007 132.148 201.846 132.504 201.515 132.799C199.491 134.618 197.994 136.731 197.026 139.142C196.998 139.21 196.993 139.286 197.011 139.359C197.03 139.431 197.071 139.499 197.132 139.553L197.498 139.89C197.655 140.023 197.734 140.187 197.734 140.385C197.888 149.183 196.069 155.083 193.942 162.311C192.583 166.958 187.881 171.33 184.454 174.923C184.333 175.051 184.245 175.201 184.199 175.362C184.152 175.523 184.146 175.689 184.183 175.851L184.702 178" stroke="#843B2F" stroke-width="2"/>
<path d="M137 196H135" stroke="#843B2F" stroke-width="2"/>
<path d="M135 196C135.118 195.543 135.318 195.18 135.6 194.912C135.859 194.666 135.941 194.373 135.845 194.035C133.666 186.639 142.182 186.037 146.573 182.878C146.724 182.77 146.848 182.63 146.933 182.469C147.018 182.308 147.062 182.13 147.062 181.949C147.062 180.512 147.665 179.417 148.874 178.663C149.03 178.572 149.041 178.466 148.908 178.346C148.819 178.261 148.726 178.17 148.63 178.071C148.548 177.98 148.459 177.976 148.363 178.061L147.807 178.6C147.718 178.684 147.632 178.681 147.551 178.589C147.485 178.519 147.474 178.424 147.518 178.304" stroke="#9E4C35" stroke-width="2"/>
<path d="M148 178C153.152 173.735 155.461 168.503 154.924 162.303C154.886 161.952 154.7 161.685 154.365 161.502C153.253 160.9 152.224 160.839 151.277 161.32" stroke="#5F251F" stroke-width="2"/>
<path d="M151 161C136.108 163.468 121.683 163.652 107.725 161.552C107.013 161.448 106.437 161.492 106 161.687" stroke="#C7A298" stroke-width="2"/>
<path d="M106 162L105 161" stroke="#5F251F" stroke-width="2"/>
<path d="M119 161.506C128.593 162.526 138.056 161.967 147.385 159.831C147.731 159.75 147.967 159.541 148.093 159.206C148.69 157.652 149.973 156.331 151.942 155.244C155.673 153.183 157.341 150.768 156.942 148" stroke="#9E4C35" stroke-width="2"/>
<path d="M157 148L163 150" stroke="#B38C82" stroke-width="2"/>
<path d="M163 150C169.068 149.351 174.068 149.932 178 144" stroke="#C7A298" stroke-width="2"/>
<path d="M178 144C179.454 142.35 180.396 140.213 180.829 137.586C180.894 137.205 181.094 136.935 181.428 136.778C182.567 136.233 183.644 135.564 184.659 134.773C185.431 134.167 185.333 133.893 184.364 133.955L181.644 134.139C181.423 134.153 181.203 134.093 181.016 133.967C180.831 133.842 180.687 133.658 180.609 133.443C180.53 133.227 180.519 132.99 180.578 132.768C180.637 132.545 180.762 132.349 180.937 132.205C182.404 131.033 184.027 130.167 185.808 129.607C185.857 129.592 185.901 129.561 185.935 129.519C185.969 129.478 185.99 129.428 185.997 129.374C186.005 129.321 185.997 129.267 185.975 129.217C185.954 129.168 185.92 129.126 185.877 129.096C185.588 128.919 185.245 128.987 184.846 129.3" stroke="#532D29" stroke-width="2"/>
<path d="M185 129C190.154 122.529 190.327 118.195 185.519 116" stroke="#9E4C35" stroke-width="2"/>
<path d="M185 116C184.776 106.909 173.359 100.621 165 99" stroke="#532D29" stroke-width="2"/>
<path d="M165.605 99C165.903 98.1865 165.373 97.6204 164.015 97.3045C163.49 97.1781 163.454 96.978 163.909 96.7042C169.089 93.5237 167.041 89.1536 163.014 85.5519C162.888 85.439 162.736 85.35 162.571 85.2902C162.405 85.2306 162.227 85.2013 162.049 85.2044C149.946 85.6046 149.087 84.8674 143 76" stroke="#9E4C35" stroke-width="2"/>
<path d="M139 75.201C140.764 74.7681 142.096 75.0344 143 76" stroke="#A4543A" stroke-width="2"/>
<path d="M143 76C139.777 80.2942 135.745 84.8084 129.641 84.18C129.633 84.1812 129.625 84.1847 129.618 84.1899C129.612 84.1953 129.608 84.2022 129.605 84.21C129.602 84.2177 129.602 84.2259 129.605 84.2335C129.608 84.2412 129.612 84.2481 129.619 84.2533L129.996 84.4418C130.321 84.6025 130.472 84.8574 130.45 85.2064C130.262 87.7725 129.985 89.6368 130.339 92.4748C130.705 95.376 129.453 98.0154 129.386 100.581C129.283 104.653 129.294 108.723 129.42 112.794C129.553 116.973 128.81 121.508 128.954 125.928C129.11 131.165 128.279 134.904 127.16 139.648C127.087 139.97 127.131 140.277 127.293 140.57C127.814 141.492 125.654 142.466 125 143" stroke="#B35A3E" stroke-width="2"/>
<path d="M125 143.395C121.754 140.97 123.281 150.429 123.936 152" stroke="#DB9171" stroke-width="2"/>
<path d="M124 152C120.206 153.666 120.011 154.666 123.413 155" stroke="#A4543A" stroke-width="2"/>
<path d="M123.447 155L123.991 159.763C124.045 160.201 123.848 160.404 123.401 160.374C121.3 160.227 119.834 160.769 119 162" stroke="#B35A3E" stroke-width="2"/>
<path d="M119 162L106.945 160.022C106.577 159.962 106.221 160.027 105.877 160.216L105 160.696" stroke="#A4543A" stroke-width="2"/>
<path d="M105 161C103.703 161 102.036 161 100 161" stroke="#743328" stroke-width="2"/>
<path d="M99.9621 161C100.147 158.317 99.6582 156.088 98.4973 154.313C97.3191 152.522 95.4509 152.16 93.6252 151.162C93.3214 150.995 93.137 150.734 93.0733 150.38C92.9459 149.714 92.9844 148.921 93.19 148" stroke="#B35A3E" stroke-width="2"/>
<path d="M93 148C96.7356 147.562 99.162 145.517 100.277 141.867C101.285 138.552 101.24 135.93 100.138 134" stroke="#C89A8B" stroke-width="2"/>
<path d="M101 134C99.58 126.162 94.0373 121.324 85.8836 122.077C79.4477 122.67 74.1531 126.23 70 132.756" stroke="#673B32" stroke-width="2"/>
<path d="M70.8786 133C70.4139 131.958 70.4139 130.454 70.8786 128.486C71.2944 126.71 70.6421 125.669 68.922 125.363C68.5364 125.292 68.1793 125.142 67.8826 124.924C62.1596 120.902 62.0617 118.11 60.1052 112.334C59.7547 111.3 60.2803 110.18 61.6827 108.975C61.9761 108.733 62.0862 108.436 62.0128 108.087L61.4381 105.049C61.3647 104.686 61.4951 104.386 61.8294 104.151C62.8321 103.445 63.0156 102.668 62.3797 101.819C62.2634 101.659 62.1842 101.482 62.1464 101.296C62.1087 101.11 62.1131 100.922 62.1596 100.739C62.3633 99.9538 62.1758 99.2906 61.5971 98.7491C61.3525 98.5137 61.2913 98.2503 61.4136 97.9575C61.6174 97.4374 61.6663 96.7849 61.5604 96" stroke="#B35A3E" stroke-width="2"/>
<path d="M185 241C178.259 224.12 170.377 210.804 151 207" stroke="#86A8AF" stroke-width="2"/>
<path d="M151 207L139.188 204.858C138.701 204.768 138.261 204.543 137.937 204.217C137.612 203.892 137.422 203.484 137.396 203.056L137 196" stroke="#B28E89" stroke-width="2"/>
<path d="M137 196C154.526 193.751 171.027 188.85 185 178" stroke="#BD998C" stroke-width="2"/>
<path d="M185 178C193.639 171.263 199.54 162.789 202.701 152.578C202.813 152.224 203.06 152.103 203.441 152.214C215.855 155.729 224.535 152.294 229.483 141.909C232.023 136.575 231.373 131.272 227.532 126" stroke="#B28E89" stroke-width="2"/>
<path d="M106 161.921C107.469 170.926 131.132 170.524 137.855 169.444C144.48 168.394 148.863 165.579 151 161" stroke="#978086" stroke-width="2"/>
<path d="M148 178.054C138.547 175.677 128.485 174.995 119.145 178.004C116.64 178.806 113.924 179.471 111 180" stroke="#460712" stroke-width="2"/>
<path d="M90.1174 148C89.8105 148 90.1055 148 91 148" stroke="#EBE8E8" stroke-width="2"/>
<path d="M100.983 134C101.282 141.145 97.6195 145.811 90 148" stroke="#77737A" stroke-width="2"/>
<path d="M90 147.861C79.066 149.535 72.7967 135.667 80.7907 128.588C80.9597 128.437 81.1628 128.325 81.3845 128.26C81.6062 128.196 81.8407 128.181 82.0699 128.217C82.299 128.254 82.5169 128.339 82.707 128.468C82.8969 128.598 83.0541 128.767 83.1661 128.962L83.8169 130.105C84.1279 130.654 84.3809 130.633 84.5761 130.043C86.2465 124.96 79.1204 127.506 77.3524 128.733C72.1821 132.338 70.7576 136.922 73.0788 142.487" stroke="#8A8890" stroke-width="2"/>
<path d="M72 244C73.7393 244.264 75.406 244.93 77 246" stroke="#80ABB1" stroke-width="2"/>
<path d="M77 246C81.3883 248.07 86.0549 249.736 91 251" stroke="#7C9BA5" stroke-width="2"/>
<path d="M91 251C111.651 256.944 132.984 257.588 155 252.933" stroke="#80ABB1" stroke-width="2"/>
<path d="M155 253C164.96 250.331 174.961 246.331 185 241" stroke="#7C9BA5" stroke-width="2"/>
<path d="M185 241C222.598 218.817 245.415 187.929 253.448 148.339C258.547 123.223 255.75 100.194 247.325 75.4139C244.436 66.0598 236.667 56.1078 235.228 54" stroke="#E1DFDC" stroke-width="2"/>
<path d="M177.67 144C181.144 135.871 177.774 129.296 168 127" stroke="#8A8890" stroke-width="2"/>
<path d="M168 126.634C167.492 126.164 166.934 125.956 166.323 126.008C165.902 126.039 165.892 126.145 166.296 126.326L167.817 127" stroke="#245B64" stroke-width="2"/>
<path d="M168.137 127C171.309 128.547 173.16 130.819 173.687 133.813C175.132 142.052 171.57 147.446 163 150" stroke="#8A8890" stroke-width="2"/>
<path d="M163 150C156.429 149.397 152.096 145.73 150 139" stroke="#77737A" stroke-width="2"/>
<path d="M164.228 97.6157C159.89 96.7271 156.223 96.8001 153.225 97.8362C149.773 99.0375 147.508 102.432 150.161 105.618C150.368 105.875 150.641 106.018 150.983 106.047C152.151 106.144 152.966 106.125 153.425 105.992C164.761 102.73 175.197 108.637 185 116" stroke="#62322D" stroke-width="2"/>
<path d="M185 128.709L179.981 130.121C179.592 130.232 179.267 130.132 179.007 129.821C168.219 116.751 149.388 120.23 150.015 139" stroke="#62322D" stroke-width="2"/>
<path d="M150.116 139C149.438 143.59 151.733 146.591 157 148" stroke="#C29285" stroke-width="2"/>
<path d="M123 154.892C131.071 156.123 132.521 146.453 125.468 143" stroke="#9E4C35" stroke-width="2"/>
<path d="M126 143.925C125.927 144.158 125.593 143.848 125 143" stroke="#D5886B" stroke-width="2"/>
<path d="M125.724 143C126.403 147.184 125.829 150.183 124 152" stroke="#C68368" stroke-width="2"/>
<path d="M50.482 33.0169L47.0595 33.6187C46.7322 33.678 46.4382 33.8874 46.2422 34.2011C46.0463 34.5148 45.9643 34.907 46.0144 35.2916L46.0246 35.4241C46.1103 36.0891 46.269 36.7344 46.4916 37.3231C46.7142 37.9118 46.9964 38.4324 47.3219 38.855C47.6473 39.2776 48.0099 39.594 48.3886 39.7859C48.7673 39.9778 49.1549 40.0416 49.529 39.9736L49.734 39.9377C50.488 39.8021 51.1425 39.1404 51.5536 38.0978C51.9647 37.0552 52.0989 35.717 51.9268 34.377L51.9063 34.2444C51.8558 33.8599 51.6774 33.5147 51.4104 33.2845C51.1433 33.0543 50.8094 32.9581 50.482 33.0169Z" stroke="#252338" stroke-width="2"/>
<path d="M38.2309 41.0609C31.3953 40.2497 31.5912 47.7903 36.8906 48.9671C37.303 49.0585 37.6741 48.9595 38.0041 48.67L41.5198 45.6767C41.7099 45.5137 41.8529 45.293 41.9317 45.0414C42.0104 44.7899 42.0214 44.5183 41.9631 44.2599C41.5301 42.3709 40.2861 41.3047 38.2309 41.0609Z" stroke="#252338" stroke-width="2"/>
<path d="M21.525 69.6106C21.6298 69.7752 21.8042 69.9003 22.0126 69.9606C22.2211 70.0208 22.4479 70.0118 22.647 69.9351C26.9996 68.2649 32.939 65.44 33.9818 61.1359C34.0065 61.0305 34.0061 60.9221 33.9805 60.817C33.955 60.7118 33.905 60.6119 33.8333 60.5232C33.7616 60.4344 33.6697 60.3584 33.5629 60.2998C33.456 60.2411 33.3366 60.2009 33.2112 60.1815C30.4455 59.7425 27.4418 58.6641 24.8687 59.1031C18.8386 60.1529 19.292 66.0508 21.525 69.6106Z" stroke="#252338" stroke-width="2"/>
<path d="M65.9713 113.918C75.5826 108.629 85.0041 101.348 96.804 107.151C97.4207 107.45 98.1352 107.506 98.7938 107.305C99.451 107.106 99.9994 106.665 100.32 106.08C103.345 100.556 95.5426 97.0334 91.256 97.0013C80.8291 96.9049 67.1211 102.14 65.0113 113.265C64.9882 113.381 65.0007 113.501 65.0471 113.611C65.0935 113.722 65.1719 113.817 65.2729 113.886C65.3741 113.955 65.4935 113.994 65.6174 113.999C65.7412 114.005 65.864 113.977 65.9713 113.918Z" stroke="#673B32" stroke-width="2"/>
<path d="M69.9496 145.138C69.9483 144.987 69.9093 144.838 69.8348 144.7C69.7603 144.561 69.6516 144.435 69.5153 144.33C69.3789 144.225 69.2173 144.14 69.0398 144.084C68.8626 144.028 68.6726 143.999 68.481 144L63.4482 144.028C63.2568 144.03 63.0674 144.059 62.891 144.118C62.7146 144.177 62.5544 144.263 62.42 144.369C62.2855 144.476 62.1793 144.604 62.1071 144.742C62.0351 144.881 61.9988 145.03 62 145.182L62.0504 150.862C62.0519 151.013 62.091 151.162 62.1655 151.3C62.2399 151.439 62.3485 151.565 62.4849 151.67C62.6213 151.775 62.7827 151.858 62.9601 151.916C63.1376 151.972 63.3276 152 63.519 152L68.5517 151.972C68.7433 151.971 68.9328 151.94 69.1092 151.882C69.2856 151.823 69.4456 151.738 69.5801 151.631C69.7145 151.524 69.8209 151.396 69.8929 151.258C69.9651 151.119 70.0014 150.97 70 150.818L69.9496 145.138Z" stroke="#D5886B" stroke-width="2"/>
<path d="M66.1972 159.801C66.3861 159.937 66.6003 160.007 66.8172 160C67.034 159.994 67.2457 159.913 67.4297 159.765C67.6139 159.618 67.7638 159.409 67.8637 159.162C67.9637 158.915 68.0102 158.637 67.9981 158.359L67.8304 154.589C67.8127 154.112 67.6479 153.752 67.336 153.51C64.4404 151.296 62.1186 156.826 66.1972 159.801Z" stroke="#BF6548" stroke-width="2"/>
<path d="M94.4063 135L82.5278 135.229C82.323 135.234 82.121 135.277 81.9334 135.358C81.7457 135.438 81.5762 135.554 81.4343 135.698C81.2925 135.843 81.1811 136.014 81.1066 136.2C81.0322 136.387 80.9961 136.586 81.0003 136.785V136.984C81.0489 139.414 81.8831 141.728 83.3195 143.419C84.7558 145.11 86.6765 146.038 88.6596 145.999H88.7023C90.6838 145.962 92.5664 144.962 93.9337 143.219C95.3023 141.474 96.0447 139.131 95.9979 136.703V136.505C95.9953 136.302 95.9512 136.104 95.8697 135.92C95.7883 135.734 95.6695 135.567 95.5212 135.427C95.3744 135.288 95.1995 135.178 95.0072 135.105C94.8163 135.032 94.612 134.995 94.4063 135Z" stroke="#261E2F" stroke-width="2"/>
<path d="M162.028 145.846C165.311 144.916 168.373 144.461 168.916 141.127C170.225 133.232 155.771 131.234 155.017 138.515C154.74 141.255 157.901 147.013 162.028 145.846Z" stroke="#261E2F" stroke-width="2"/>
<path d="M206 17.0422L205.323 20.7895C205.3 20.9295 205.214 20.9994 205.063 20.9994H204.725C204.56 20.9994 204.461 21.0764 204.432 21.2304C204.258 22.1541 204.014 23.0673 203.698 23.97C203.615 24.2148 203.511 24.2219 203.382 23.991C203.344 23.921 203.31 23.8264 203.281 23.7076C203.213 23.3786 203.066 23.3437 202.841 23.6026C202.284 24.2674 201.649 24.8552 200.934 25.366C200.347 25.7859 200.182 25.674 200.437 25.0301L200.776 24.1694C200.835 24.0246 200.838 23.8654 200.786 23.7186C200.732 23.5718 200.626 23.4465 200.487 23.3638C200.346 23.2811 200.178 23.2461 200.013 23.2647C199.848 23.2834 199.695 23.3545 199.58 23.4661L196.33 26.5312C195.98 26.8627 195.512 27.0675 195.01 27.1085C192.647 27.2974 190.339 27.7557 188.082 28.4835C187.773 28.5816 187.597 28.7809 187.552 29.0819L187.236 31.1182C187.216 31.2537 187.152 31.3808 187.054 31.482C186.955 31.5833 186.825 31.6542 186.683 31.685C183.422 32.4408 180.928 34.918 176.855 36.419C176.516 36.545 176.189 36.5204 175.873 36.3455C173.414 34.9705 171.213 35.002 170.119 37.7836C169.983 38.1264 169.728 38.2454 169.351 38.1405C165.5 37.0488 161.593 36.6149 157.628 36.8389C148.534 37.3532 141.369 44.365 132.963 46.7477C123.879 49.3299 114.954 45.1942 104.427 41.3629C96.8105 38.5813 91.338 37.962 85.0192 42.5176C84.0037 43.2523 81.1038 43.6512 79.4226 43.4518C67.575 42.0032 59.4171 48.4797 55.1972 58.2311C55.0694 58.539 55.043 58.8504 55.1182 59.1653C55.4567 60.5823 54.5089 61.3696 53.0307 61.653C45.847 63.0736 42.4507 67.1568 42.8418 73.9026C42.9772 76.1174 44.2184 78.2902 44.8728 80.5469C44.9199 80.7115 44.9254 80.8839 44.8888 81.0508C44.8522 81.2176 44.7745 81.3743 44.662 81.5086C44.5494 81.6428 44.405 81.7509 44.2398 81.8244C44.0748 81.898 43.8936 81.935 43.7106 81.9325C39.3778 81.8905 33.1832 81.4077 29.5161 82.6253C23.1297 84.7456 21.2003 94.7913 20.3766 101.194C20.1622 102.853 20.9069 104.858 18.4358 105.246C18.2929 105.267 18.2176 105.347 18.2101 105.487C18.2101 105.563 18.214 105.658 18.2214 105.771C18.2259 105.814 18.2152 105.859 18.1908 105.897C18.1664 105.936 18.1295 105.965 18.0856 105.983C18.0417 106 17.9931 106.004 17.9464 105.995C17.8999 105.985 17.8578 105.961 17.8265 105.928C17.5406 105.641 17.3714 105.305 17.3188 104.921C17.3018 104.775 17.242 104.637 17.1464 104.522C17.0508 104.408 16.9229 104.32 16.7772 104.27L14.3287 103.409C13.9751 103.29 13.7457 103.063 13.6404 102.727C13.1288 101.194 12.1058 99.9242 10.5713 98.9165C10.5262 96.5784 11.4476 94.483 13.3357 92.629C13.3966 92.5673 13.4433 92.4952 13.4725 92.4164C13.5019 92.3377 13.513 92.2551 13.5055 92.1711C13.4982 92.0884 13.4722 92.0084 13.4294 91.9349C13.3865 91.8614 13.3277 91.7971 13.2567 91.7473C12.5872 91.2781 11.8914 90.8406 11.1693 90.4348C10.8759 90.2669 10.669 90.0324 10.5487 89.7315C8.13407 83.7064 14.1933 82.4783 18.8984 82.1949C25.5556 81.7856 18.3117 76.3588 16.3935 75.0467C10.3795 63.6893 17.8716 56.6566 29.99 54.9456C30.2909 54.9036 30.3699 54.7531 30.227 54.4943C25.7287 46.4608 27.7408 40.9046 36.2636 37.8256L40.2015 37.5527C40.5626 37.5246 40.7506 37.3427 40.7657 37.0068C41.0891 29.7992 45.1587 26.8356 52.9743 28.1162C53.4331 28.1932 53.6852 28.0181 53.7303 27.5913C54.0688 24.8202 54.2381 21.8497 56.4158 19.8448C58.853 17.6124 61.9221 16.8917 65.623 17.6825C65.8292 17.7257 66.045 17.6984 66.2298 17.6056C66.4147 17.5128 66.556 17.3612 66.6272 17.1786C68.9591 11.2235 73.4988 9.20118 80.2463 11.1116C81.2844 11.4055 81.7847 11.0451 81.747 10.0304C81.6868 8.70784 82.4504 6.56299 84.0375 3.59597C86.9938 1.44062 90.1603 0.254493 93.5383 0.0376058C99.0827 -0.319281 103.362 1.86402 106.379 6.58752C106.62 6.9654 106.864 6.9654 107.112 6.58752C111.738 -0.592193 120.528 -0.718153 125.606 5.6953C125.824 5.97517 126.053 5.98225 126.294 5.7163C133.82 -2.49209 141.865 -0.350772 149.357 6.13616C149.689 6.42311 149.982 6.39163 150.237 6.04169C156.139 -2.06173 168.076 0.425985 172.206 8.70785C172.432 9.16274 172.687 9.18019 172.973 8.76033C177.216 2.5463 186.852 4.36223 189.007 10.9541C189.707 13.0745 188.849 15.0583 188.86 17.3886C188.86 17.8364 189.071 17.9589 189.492 17.756C194.829 15.2263 200.81 13.3159 206 17.0422ZM51.2592 32.6717L47.4906 33.1965C47.1301 33.2482 46.8064 33.431 46.5906 33.7046C46.3748 33.9781 46.2845 34.3201 46.3397 34.6556L46.351 34.771C46.4453 35.351 46.6201 35.9137 46.8652 36.4273C47.1103 36.9407 47.4211 37.3947 47.7794 37.7632C48.1378 38.1318 48.5371 38.4076 48.9542 38.575C49.3711 38.7424 49.7979 38.7981 50.2099 38.7388L50.4355 38.7073C51.2659 38.5891 51.9866 38.012 52.4392 37.1029C52.8919 36.1936 53.0398 35.0265 52.8502 33.8578L52.8276 33.7424C52.7721 33.407 52.5756 33.1059 52.2815 32.9051C51.9874 32.7044 51.6198 32.6204 51.2592 32.6717ZM39.1521 40.9221C31.6712 40.1768 31.8856 47.1046 37.6853 48.1858C38.1366 48.2697 38.5428 48.1787 38.9039 47.9129L42.7516 45.1627C42.9596 45.013 43.1162 44.8103 43.2023 44.5791C43.2885 44.3479 43.3005 44.0985 43.2367 43.8611C42.7628 42.1257 41.4013 41.1461 39.1521 40.9221ZM22.3737 69.7774C22.4781 69.9583 22.6517 70.096 22.8592 70.1623C23.0667 70.2286 23.2925 70.2186 23.4908 70.1343C27.8236 68.2974 33.7361 65.1903 34.7742 60.4564C34.7987 60.3405 34.7982 60.2212 34.7728 60.1056C34.7474 59.9899 34.6976 59.8801 34.6262 59.7825C34.5549 59.6847 34.4633 59.6013 34.357 59.5368C34.2508 59.4723 34.1317 59.4281 34.0069 59.4067C31.2538 58.9238 28.2637 57.7377 25.7023 58.2206C19.6996 59.3752 20.1509 65.8621 22.3737 69.7774Z" fill="#141D33"/>
<path d="M205.624 17C208.222 19.6353 208.654 22.8203 206.923 26.5547C206.734 26.9634 206.869 27.1148 207.33 27.0091C210.549 26.2904 214.095 25.3605 217.212 26.0686C225.084 27.8654 227.558 34.8411 224.113 41.3941C223.947 41.7041 224.03 41.9366 224.362 42.0915C232.561 45.8895 235.071 51.9246 231.895 60.1968C231.759 60.535 231.879 60.75 232.256 60.8415L235.724 61.6659C244.319 66.0522 244.895 73.0385 240.885 80.9972C240.712 81.3284 240.775 81.6138 241.077 81.8533C246.219 86.0176 246.307 90.256 241.337 94.5682C241.05 94.8218 241.028 95.0967 241.269 95.3926L244.093 98.8699C244.351 99.1883 244.515 99.5675 244.567 99.9691C245.132 104.577 242.986 107.304 238.129 108.15C237.662 108.228 237.56 108.452 237.824 108.826C240.61 112.765 240.23 116.394 236.684 119.713C236.291 120.079 235.667 120.205 234.809 120.093C234.38 120.044 234.127 120.216 234.052 120.611C233.495 123.289 231.367 125.202 227.671 126.35L222.216 124.078C222.144 124.046 222.063 124.034 221.984 124.042C221.905 124.05 221.83 124.076 221.767 124.121C221.703 124.166 221.654 124.226 221.623 124.294C221.593 124.363 221.583 124.437 221.594 124.511C222.905 133.21 213.35 130.028 209.374 133.273C208.53 133.956 207.691 134.721 206.855 135.567C206.663 135.763 206.413 135.901 206.137 135.963C205.861 136.025 205.571 136.009 205.305 135.915C205.038 135.823 204.808 135.656 204.644 135.44C204.479 135.223 204.388 134.965 204.382 134.7L203.964 121.203C203.948 120.78 204.05 120.357 204.258 119.977C206.584 115.675 202.62 115.834 200.994 113.35C197.955 108.699 200.214 106.924 202.202 102.738C202.235 102.674 202.25 102.604 202.246 102.532C202.243 102.461 202.22 102.391 202.182 102.329C202.143 102.267 202.089 102.214 202.024 102.175C201.958 102.136 201.883 102.112 201.807 102.104C196.076 101.561 192.876 98.7285 192.207 93.6064C191.958 91.6722 193.189 89.5161 193.777 87.5924C193.881 87.2472 193.81 86.9337 193.562 86.6519L190.863 83.5972C190.632 83.3479 190.473 83.0462 190.399 82.72L189.473 78.8939C189.375 78.5064 189.153 78.429 188.807 78.6615C186.465 80.1975 183.637 80.9092 180.325 80.7964L177.558 80.2363C177.165 80.1588 176.842 79.9755 176.586 79.6866L173.695 76.5371C173.409 76.227 173.088 76.1917 172.735 76.4312C170.691 77.8158 168.477 79.6443 166.331 80.4687C160.763 82.6249 152.281 82.2866 148.656 77.0443C147.436 75.2792 145.493 66.771 142.918 67.6906C142.703 67.7664 142.511 67.8881 142.356 68.046C142.201 68.2038 142.088 68.3933 142.026 68.5994L140.128 74.8564C138.622 78.7248 135.938 80.8458 132.075 81.2191C125.152 81.885 124.102 75.3215 123.017 70.6815C122.959 70.4218 122.813 70.1868 122.598 70.0125C122.385 69.8381 122.117 69.7341 121.833 69.7162C121.551 69.6982 121.27 69.7673 121.032 69.913C120.795 70.0587 120.616 70.2729 120.521 70.5231C118.646 75.2899 119.155 80.289 112.017 81.2086C98.7684 82.9102 102.383 74.1166 98.1585 67.479C98.1077 67.3996 98.0371 67.334 97.951 67.2889C97.8663 67.2437 97.7688 67.2205 97.6686 67.2215C97.5698 67.2226 97.4724 67.248 97.3848 67.2949C97.2987 67.3419 97.2267 67.4092 97.1759 67.4897C96.0761 69.2654 95.3688 71.1889 95.0525 73.2605C93.5165 83.555 81.8942 83.9143 74.2931 79.7394C73.9904 79.574 73.6555 79.4665 73.3079 79.4232C72.9602 79.3798 72.6066 79.4015 72.2675 79.487C71.9283 79.5724 71.6103 79.7202 71.3319 79.9212C71.0533 80.1225 70.8198 80.3731 70.6449 80.659C68.4915 84.1821 65.235 85.5597 60.8754 84.7916C60.7973 84.7784 60.7169 84.7855 60.6429 84.8123C60.5689 84.8393 60.5044 84.8847 60.4564 84.9438C60.4085 85.003 60.3789 85.0734 60.3711 85.1472C60.3633 85.2212 60.3776 85.2956 60.4122 85.3623C62.4226 89.111 62.7652 92.6485 61.4401 95.9739C58.7821 99.5741 55.1905 101.047 50.6652 100.392C50.1984 100.322 50.0553 100.491 50.236 100.899C52.2803 105.486 54.1438 110.612 49.3437 114.417C49.0577 114.65 48.9296 114.939 48.9597 115.284C49.3663 119.983 49.4002 124.691 49.0614 129.405C49.0597 129.481 49.0285 129.554 48.9735 129.611C48.9186 129.668 48.8437 129.703 48.7626 129.712C48.6814 129.722 48.5996 129.703 48.5321 129.66C48.4646 129.617 48.4159 129.553 48.395 129.479C44.6904 118.645 30.0981 117.123 24.4961 127.312C23.8336 128.523 23.1521 129.531 22.4519 130.335C15.9124 127.513 16.511 123.581 19.8993 119.1C20.1252 118.81 20.05 118.645 19.6735 118.603C14.9524 118.025 12.7726 115.569 13.134 111.236C13.1717 110.756 13.3562 110.331 13.6874 109.957L15.7882 107.568C16.0443 107.273 15.9802 107.065 15.5962 106.945C11.7486 105.704 9.88506 103.203 10.0055 99.4406C11.5415 100.455 12.5656 101.734 13.0777 103.277C13.183 103.616 13.4127 103.844 13.7665 103.964L16.2174 104.831C16.3632 104.881 16.4913 104.97 16.587 105.086C16.6828 105.201 16.7426 105.34 16.7596 105.486C16.8123 105.873 16.9817 106.212 17.2678 106.501C17.2992 106.535 17.3413 106.558 17.3879 106.568C17.4345 106.579 17.4832 106.574 17.5272 106.556C17.5711 106.539 17.608 106.509 17.6324 106.471C17.6568 106.432 17.6676 106.387 17.6632 106.342C17.6556 106.23 17.6518 106.135 17.6518 106.057C17.6594 105.916 17.7346 105.835 17.8778 105.814C20.3513 105.423 19.6057 103.404 19.8203 101.734C20.6448 95.2869 22.5762 85.1721 28.9688 83.0371C32.6395 81.811 38.84 82.2972 43.177 82.3395C43.3603 82.342 43.5415 82.3048 43.7069 82.2308C43.872 82.1566 44.0166 82.0478 44.1293 81.9126C44.2421 81.7775 44.3197 81.6197 44.3564 81.4517C44.393 81.2837 44.3875 81.11 44.3405 80.9443C43.6854 78.6719 42.443 76.4841 42.3075 74.254C41.9159 67.4615 45.3155 63.35 52.5061 61.9196C53.9857 61.6342 54.9346 60.8415 54.5957 59.4146C54.5203 59.0976 54.5467 58.7841 54.6748 58.474C58.8989 48.6551 67.0646 42.1338 78.9236 43.5924C80.6065 43.7932 83.5093 43.3917 84.5258 42.6519C90.851 38.0648 96.3288 38.6882 103.952 41.4891C114.49 45.3469 123.424 49.5112 132.516 46.9112C140.93 44.5119 148.102 37.4516 157.205 36.9337C161.173 36.7083 165.085 37.1451 168.94 38.2443C169.316 38.35 169.573 38.2303 169.708 37.885C170.804 35.0841 173.006 35.0525 175.468 36.4371C175.785 36.6132 176.112 36.6379 176.451 36.5111C180.528 34.9997 183.024 32.5052 186.288 31.7442C186.431 31.7131 186.561 31.6418 186.66 31.5398C186.758 31.4378 186.822 31.3101 186.842 31.1734L187.158 29.123C187.203 28.8201 187.38 28.6192 187.689 28.5207C189.948 27.7878 192.259 27.3264 194.624 27.1361C195.126 27.0948 195.595 26.8885 195.945 26.5547L199.198 23.4684C199.312 23.3561 199.466 23.2845 199.631 23.2658C199.796 23.247 199.964 23.2821 200.104 23.3655C200.245 23.4487 200.351 23.5749 200.403 23.7227C200.457 23.8705 200.453 24.0308 200.395 24.1766L200.056 25.0432C199.799 25.6915 199.966 25.8042 200.553 25.3815C201.267 24.8671 201.904 24.2753 202.462 23.6058C202.688 23.3452 202.835 23.3804 202.902 23.7115C202.932 23.8313 202.966 23.9265 203.004 23.9969C203.131 24.2294 203.237 24.2224 203.32 23.9757C203.636 23.0668 203.881 22.1473 204.054 21.2172C204.084 21.0622 204.181 20.9848 204.348 20.9848H204.687C204.837 20.9848 204.924 20.9142 204.947 20.7732L205.624 17Z" fill="#040F26"/>
<path d="M50.482 33.0169C50.8094 32.9581 51.1433 33.0543 51.4104 33.2845C51.6774 33.5147 51.8558 33.8599 51.9063 34.2444L51.9268 34.377C52.0989 35.717 51.9647 37.0552 51.5536 38.0978C51.1425 39.1404 50.488 39.8021 49.734 39.9377L49.529 39.9736C49.1549 40.0416 48.7673 39.9778 48.3886 39.7859C48.0099 39.594 47.6473 39.2776 47.3219 38.855C46.9964 38.4324 46.7142 37.9118 46.4916 37.3231C46.269 36.7344 46.1103 36.0891 46.0246 35.4241L46.0144 35.2916C45.9643 34.907 46.0463 34.5148 46.2422 34.2011C46.4382 33.8874 46.7322 33.678 47.0595 33.6187L50.482 33.0169Z" fill="#35293C"/>
<path d="M38.2309 41.0609C40.2861 41.3047 41.5301 42.3709 41.9631 44.2599C42.0214 44.5183 42.0104 44.7899 41.9317 45.0414C41.8529 45.293 41.7099 45.5137 41.5198 45.6767L38.0041 48.67C37.6741 48.9595 37.303 49.0585 36.8906 48.9671C31.5912 47.7903 31.3953 40.2497 38.2309 41.0609Z" fill="#35293C"/>
<path d="M21.525 69.6106C19.292 66.0508 18.8386 60.1529 24.8687 59.1031C27.4418 58.6641 30.4455 59.7425 33.2112 60.1815C33.3366 60.2009 33.456 60.2411 33.5629 60.2998C33.6697 60.3584 33.7616 60.4344 33.8333 60.5232C33.905 60.6119 33.955 60.7118 33.9805 60.817C34.0061 60.9221 34.0065 61.0305 33.9818 61.1359C32.939 65.44 26.9996 68.2649 22.647 69.9351C22.4479 70.0118 22.2211 70.0208 22.0126 69.9606C21.8042 69.9003 21.6298 69.7752 21.525 69.6106Z" fill="#35293C"/>
<path d="M234.917 53C238.896 57.7178 247.433 75.4568 247.433 75.4568C255.753 100.231 258.516 123.254 253.48 148.363C245.546 187.943 223.011 218.822 185.879 241C178.9 224.068 170.738 210.712 150.675 206.895L139.137 204.652C138.661 204.558 138.232 204.322 137.915 203.981C137.598 203.64 137.412 203.213 137.386 202.765L137 195.373C154.494 193.214 170.965 188.506 184.913 178.085C193.673 171.305 199.656 162.779 202.862 152.504C202.975 152.148 203.225 152.025 203.612 152.137C216.198 155.673 225.001 152.217 230.018 141.769C232.594 136.401 231.935 131.064 228.04 125.76C231.76 124.619 233.901 122.722 234.463 120.067C234.538 119.675 234.792 119.503 235.224 119.553C236.088 119.664 236.716 119.539 237.111 119.176C240.68 115.884 241.063 112.284 238.259 108.377C237.993 108.006 238.096 107.782 238.566 107.706C243.454 106.867 245.614 104.162 245.045 99.5914C244.993 99.193 244.828 98.8169 244.568 98.5011L241.726 95.0518C241.483 94.7583 241.506 94.4857 241.794 94.2341C246.796 89.9562 246.708 85.7521 241.533 81.6214C241.229 81.3838 241.165 81.1007 241.34 80.7722C245.375 72.8777 246.284 65.0566 233.212 60.3388L234.917 53Z" fill="#EBECE6"/>
<path d="M140.131 74.6256C141.396 74.1681 142.352 74.4495 143 75.4701C139.713 79.7982 135.602 84.348 129.379 83.7146C129.369 83.7158 129.362 83.7192 129.355 83.7246C129.349 83.7299 129.343 83.7369 129.342 83.7447C129.339 83.7525 129.339 83.7608 129.342 83.7686C129.343 83.7763 129.349 83.7832 129.356 83.7885L129.74 83.9785C130.071 84.1403 130.226 84.3972 130.203 84.7491C130.011 87.3354 129.729 89.2145 130.09 92.0759C130.463 95 129.187 97.6589 129.119 100.245C129.013 104.349 129.024 108.451 129.153 112.554C129.288 116.766 128.532 121.338 128.678 125.793C128.837 131.071 127.989 134.838 126.849 139.621C126.772 139.945 126.818 140.254 126.984 140.549C127.515 141.478 125.313 142.46 124.646 142.999C119.891 140.571 122.128 150.04 123.088 151.613C120.752 153.823 120.632 155.149 122.726 155.592L123.257 159.952C123.309 160.353 123.117 160.541 122.681 160.512C120.632 160.378 119.202 160.874 118.389 162L106.281 160.607C105.911 160.564 105.554 160.611 105.208 160.744L104.327 161.083C103.273 160.695 101.917 160.67 100.261 161.008C100.456 158.51 99.9365 156.434 98.7026 154.779C97.4489 153.112 95.4611 152.775 93.5184 151.846C93.1937 151.69 92.9988 151.448 92.9311 151.116C92.7955 150.498 92.8365 149.759 93.0553 148.9C97.0155 148.414 99.5864 146.148 100.77 142.101C101.838 138.428 101.789 135.522 100.623 133.383C99.2222 126.131 93.7556 121.655 85.7133 122.352C79.3657 122.901 74.1438 126.193 70.0477 132.231C69.6185 131.204 69.6185 129.72 70.0477 127.778C70.4317 126.025 69.8292 124.997 68.2405 124.694C67.8843 124.625 67.5545 124.476 67.2805 124.262C61.9946 120.293 61.9043 117.537 60.0971 111.836C59.7734 110.816 60.2589 109.712 61.5541 108.521C61.8252 108.283 61.9269 107.991 61.8591 107.647L61.3282 104.647C61.2605 104.288 61.3809 103.994 61.6897 103.762C62.6158 103.065 62.7852 102.297 62.1979 101.459C62.0905 101.302 62.0173 101.127 61.9825 100.945C61.9476 100.761 61.9517 100.574 61.9946 100.394C62.1828 99.6198 62.0096 98.9653 61.4751 98.4295C61.2492 98.1973 61.1927 97.9373 61.3056 97.6484C61.4938 97.135 61.539 96.4911 61.4412 95.7165C62.7665 92.3952 62.4238 88.8625 60.4134 85.1186C60.3786 85.052 60.3644 84.9775 60.3722 84.9038C60.3799 84.83 60.4096 84.7595 60.4576 84.7006C60.5054 84.6414 60.5701 84.5961 60.6439 84.5693C60.7179 84.5424 60.7984 84.5352 60.8764 84.5486C65.2362 85.3156 68.4927 83.9397 70.6463 80.421C70.8212 80.1355 71.0546 79.885 71.3331 79.6842C71.6115 79.4832 71.9296 79.3358 72.2687 79.2504C72.608 79.1651 72.9615 79.1433 73.3093 79.1866C73.6568 79.2299 73.9917 79.3373 74.2944 79.5026C81.8957 83.6724 93.5184 83.3135 95.0545 73.0316C95.3707 70.9625 96.078 69.0412 97.1778 67.2678C97.2287 67.1873 97.3007 67.1202 97.3868 67.0733C97.4743 67.0263 97.5717 67.0011 97.6706 67C97.7708 66.999 97.8668 67.0221 97.9529 67.0672C98.0391 67.1123 98.1096 67.1778 98.1605 67.2572C102.385 73.8866 98.7704 82.6695 112.019 80.9699C119.157 80.0515 118.649 75.0584 120.524 70.2974C120.618 70.0477 120.798 69.8336 121.035 69.6881C121.271 69.5427 121.553 69.4735 121.835 69.4915C122.118 69.5094 122.387 69.6134 122.601 69.7874C122.815 69.9616 122.962 70.1962 123.02 70.4558C124.104 75.09 125.155 81.6455 132.078 80.9805C135.941 80.6075 138.625 78.4892 140.131 74.6256ZM66.0607 113.958C75.7853 108.743 85.3179 101.565 97.2569 107.286C97.8809 107.582 98.6038 107.637 99.2702 107.439C99.9351 107.241 100.49 106.809 100.815 106.231C103.876 100.784 95.9806 97.3105 91.6435 97.2802C81.0938 97.1852 67.224 102.347 65.0893 113.315C65.066 113.43 65.0786 113.549 65.1255 113.657C65.1723 113.767 65.2517 113.86 65.354 113.928C65.4563 113.996 65.5773 114.034 65.7025 114.04C65.8277 114.045 65.9521 114.017 66.0607 113.958Z" fill="#B86243"/>
<path d="M180.976 81.0513C184.973 83.3337 188.318 85.9476 191.014 88.8932C191.269 89.1724 191.341 89.4866 191.228 89.8355C189.896 94.149 194.367 98.651 190.562 102.022C190.291 102.259 190.219 102.539 190.348 102.86C190.949 104.353 191.834 105.714 193.001 106.943C193.272 107.222 193.471 107.54 193.599 107.896C194.006 108.985 194.887 110.381 196.241 112.084C197.551 113.717 198.48 116.397 199.03 120.125C199.082 120.474 199.301 120.673 199.685 120.722L200.871 120.868C201.51 120.952 201.837 121.297 201.853 121.905L202 132.458C202.007 132.871 201.853 133.223 201.537 133.516C199.602 135.323 198.172 137.425 197.246 139.819C197.22 139.888 197.215 139.963 197.232 140.035C197.251 140.108 197.29 140.173 197.348 140.227L197.698 140.562C197.848 140.694 197.924 140.859 197.924 141.054C198.071 149.796 196.332 155.66 194.299 162.842C193.001 167.459 188.507 171.804 185.233 175.374C185.117 175.503 185.032 175.65 184.989 175.81C184.944 175.97 184.938 176.136 184.973 176.296L185.47 178.432C171.616 188.839 155.256 193.54 137.879 195.696L135.768 196C135.888 195.546 136.091 195.187 136.377 194.922C136.64 194.677 136.723 194.388 136.626 194.053C134.413 186.724 143.061 186.127 147.521 182.996C147.675 182.889 147.801 182.75 147.887 182.591C147.973 182.43 148.018 182.254 148.018 182.075C148.018 180.651 148.631 179.566 149.859 178.819C150.017 178.729 150.028 178.624 149.892 178.505C149.802 178.421 149.708 178.331 149.61 178.233C149.527 178.142 149.437 178.138 149.339 178.222L148.775 178.756C148.684 178.84 148.597 178.836 148.515 178.746C148.447 178.676 148.436 178.582 148.481 178.463C148.459 178.365 148.436 178.264 148.413 178.159C153.614 173.755 155.944 168.353 155.402 161.952C155.364 161.589 155.177 161.313 154.838 161.125C153.716 160.503 152.677 160.44 151.722 160.936C136.614 164.209 121.981 164.454 107.823 161.669C107.1 161.529 106.516 161.589 106.073 161.847L105 160.915L105.881 160.58C106.226 160.448 106.584 160.402 106.953 160.444L119.057 161.826C128.849 162.783 138.507 162.259 148.029 160.256C148.382 160.179 148.624 159.984 148.752 159.669C149.362 158.21 150.672 156.972 152.681 155.953C156.489 154.02 158.191 151.754 157.785 149.158L164.266 149.995C169.911 149.399 174.563 149.933 178.221 144.478C179.892 142.788 180.976 140.6 181.473 137.913C181.548 137.522 181.778 137.247 182.162 137.086C183.471 136.527 184.709 135.844 185.876 135.034C186.764 134.412 186.651 134.133 185.538 134.196L182.41 134.385C182.156 134.399 181.903 134.338 181.689 134.209C181.476 134.081 181.311 133.893 181.22 133.671C181.13 133.452 181.117 133.209 181.185 132.982C181.253 132.754 181.397 132.553 181.597 132.406C183.282 131.206 185.15 130.318 187.197 129.747C187.254 129.73 187.305 129.698 187.343 129.656C187.381 129.614 187.406 129.563 187.415 129.508C187.422 129.453 187.413 129.397 187.389 129.347C187.365 129.296 187.326 129.253 187.276 129.223C186.945 129.041 186.55 129.112 186.091 129.432C189.794 122.914 189.919 118.548 186.464 116.335C186.226 106.996 174.168 100.536 165.338 98.8709C165.623 98.0608 165.115 97.4993 163.814 97.1852C163.309 97.0596 163.275 96.8607 163.712 96.5884C168.68 93.4265 166.716 89.0817 162.854 85.501C162.733 85.3887 162.588 85.3002 162.43 85.2408C162.27 85.1815 162.099 85.1525 161.929 85.1555C150.322 85.5533 149.497 84.8204 143.66 76.0048C143.012 74.9927 142.057 74.7135 140.792 75.1672L142.689 68.969C142.751 68.7649 142.864 68.5771 143.019 68.4208C143.174 68.2644 143.366 68.1439 143.581 68.0686C146.155 67.1577 148.097 75.586 149.317 77.3345C152.941 82.5275 161.42 82.8626 166.987 80.7267C169.132 79.9101 171.345 78.0988 173.389 76.7272C173.742 76.4899 174.062 76.5249 174.348 76.8319L177.239 79.9519C177.494 80.2381 177.818 80.4197 178.21 80.4964L180.976 81.0513Z" fill="#8F4631"/>
<path d="M15.4098 76C17.3554 77.3069 24.7029 82.7121 17.9505 83.1198C13.1781 83.4021 7.03234 84.6253 9.48149 90.6265C9.60367 90.9261 9.81339 91.1595 10.111 91.3268C10.8434 91.7312 11.5491 92.1667 12.2282 92.6339C12.3002 92.6849 12.3598 92.7476 12.4033 92.8208C12.4468 92.894 12.4731 92.9737 12.4807 93.0561C12.4881 93.1397 12.4769 93.222 12.4471 93.3004C12.4175 93.3789 12.3701 93.4507 12.3083 93.5122C10.3932 95.3588 9.45861 97.4471 9.50439 99.7747C9.38236 103.497 11.2707 105.971 15.1695 107.198C15.5586 107.317 15.6234 107.522 15.3641 107.815L13.2353 110.177C12.8996 110.547 12.7128 110.968 12.6746 111.442C12.3083 115.729 14.5171 118.158 19.301 118.729C19.6825 118.771 19.7588 118.935 19.5299 119.221C16.0965 123.654 15.4899 127.543 22.1164 130.334C19.2476 139.403 21.9829 146.519 30.3222 151.683C34.1829 154.067 38.4822 154.813 43.2203 153.921L49.4462 152.907C49.8811 152.837 50.1634 152.994 50.2931 153.377C53.6732 163.477 59.7998 171.997 68.6733 178.939C82.4755 189.227 100.421 194.141 118 195.95L117.737 200.926C117.637 203.101 116.684 204.533 114.876 205.223L103.58 207.471C103.159 207.904 102.992 207.941 103.076 207.586L94.836 209.97C80.4841 215.396 72.9879 228.715 67.9522 241C67.0023 240.007 65.2971 240.111 63.9237 239.285C11.5186 207.816 -9.27629 152.478 3.80495 97.2759C5.53309 89.9468 5.57887 84.6985 10.9579 78.4255C11.1943 78.1467 11.4804 77.9271 11.8162 77.7669L15.4098 76Z" fill="#EBECE6"/>
<path d="M143.635 76C149.48 84.7865 150.306 85.517 161.928 85.1205C162.099 85.1175 162.27 85.1464 162.43 85.2055C162.588 85.2647 162.734 85.3529 162.855 85.4648C166.722 89.0337 168.689 93.364 163.714 96.5154C163.276 96.7867 163.31 96.985 163.816 97.1102C165.119 97.4233 165.628 97.9842 165.342 98.7903C160.925 97.949 157.191 98.0181 154.138 98.999C150.622 100.136 148.316 103.351 151.018 106.366C151.228 106.61 151.507 106.746 151.855 106.773C153.044 106.865 153.874 106.846 154.342 106.721C165.885 103.632 176.512 109.226 186.495 116.196C189.955 118.402 189.831 122.754 186.122 129.251L181.057 130.576C180.664 130.681 180.337 130.587 180.074 130.294C169.186 118.023 150.181 121.289 150.814 138.914C150.128 144.014 152.449 147.346 157.779 148.911C158.186 151.499 156.481 153.757 152.669 155.684C150.656 156.7 149.345 157.935 148.734 159.388C148.606 159.701 148.364 159.897 148.011 159.972C138.476 161.97 128.805 162.491 119 161.538C119.814 160.425 121.246 159.935 123.296 160.066C123.733 160.095 123.925 159.91 123.873 159.513L123.341 155.204C132.657 156.435 134.331 146.761 126.19 143.307C126.123 143.447 125.813 143.263 125.263 142.754C125.93 142.222 128.135 141.252 127.604 140.333C127.437 140.041 127.392 139.736 127.468 139.415C128.61 134.688 129.458 130.962 129.3 125.745C129.153 121.341 129.91 116.823 129.774 112.659C129.646 108.603 129.634 104.548 129.74 100.491C129.808 97.9346 131.086 95.3049 130.713 92.4143C130.351 89.5868 130.634 87.7293 130.826 85.1726C130.848 84.8249 130.693 84.5709 130.362 84.4109L129.978 84.223C129.971 84.2178 129.967 84.211 129.964 84.2033C129.961 84.1958 129.961 84.1875 129.964 84.1798C129.965 84.1722 129.971 84.1652 129.976 84.1599C129.984 84.1547 129.992 84.1511 130.001 84.15C136.23 84.7761 140.345 80.2785 143.635 76Z" fill="#AD5138"/>
<path d="M227.495 125.548C231.377 130.866 232.034 136.215 229.467 141.596C224.466 152.07 215.692 155.534 203.147 151.99C202.762 151.877 202.513 152 202.399 152.357C199.204 162.656 193.24 171.203 184.509 178L184.011 175.856C183.975 175.696 183.981 175.529 184.026 175.369C184.07 175.208 184.155 175.059 184.271 174.931C187.557 171.348 192.066 166.986 193.369 162.352C195.409 155.142 197.154 149.257 197.006 140.482C197.006 140.285 196.93 140.121 196.78 139.988L196.428 139.652C196.37 139.598 196.331 139.531 196.312 139.459C196.295 139.386 196.3 139.31 196.326 139.242C197.256 136.838 198.69 134.729 200.632 132.915C200.949 132.621 201.103 132.266 201.096 131.854L200.949 121.26C200.934 120.651 200.605 120.304 199.963 120.22L198.774 120.073C198.389 120.023 198.169 119.823 198.117 119.474C197.564 115.733 196.632 113.042 195.318 111.403C193.959 109.692 193.075 108.292 192.667 107.199C192.538 106.842 192.338 106.523 192.066 106.243C190.895 105.009 190.007 103.643 189.404 102.144C189.275 101.821 189.347 101.541 189.619 101.303C193.437 97.9194 188.951 93.4004 190.288 89.0702C190.401 88.72 190.329 88.4046 190.072 88.1244C187.367 85.1677 184.011 82.5439 180 80.2529C183.323 80.365 186.159 79.6574 188.509 78.13C188.856 77.8988 189.078 77.976 189.177 78.3612L190.106 82.1656C190.18 82.4899 190.34 82.79 190.571 83.0379L193.279 86.0751C193.528 86.3554 193.599 86.6671 193.494 87.0104C192.905 88.9231 191.67 91.0669 191.919 92.9905C192.59 98.0836 195.801 100.9 201.55 101.44C201.628 101.447 201.701 101.472 201.768 101.51C201.833 101.549 201.887 101.602 201.926 101.663C201.965 101.725 201.987 101.795 201.99 101.866C201.994 101.937 201.979 102.006 201.946 102.071C199.952 106.232 197.686 107.998 200.734 112.622C202.365 115.092 206.342 114.934 204.008 119.211C203.8 119.589 203.698 120.009 203.714 120.43L204.133 133.851C204.14 134.115 204.231 134.371 204.396 134.586C204.562 134.802 204.793 134.966 205.059 135.059C205.325 135.151 205.617 135.168 205.893 135.106C206.171 135.045 206.421 134.907 206.614 134.712C207.453 133.872 208.294 133.111 209.141 132.432C213.129 129.205 222.714 132.369 221.4 123.72C221.388 123.646 221.398 123.571 221.428 123.503C221.459 123.435 221.509 123.375 221.573 123.332C221.636 123.287 221.711 123.26 221.791 123.252C221.87 123.245 221.951 123.257 222.023 123.289L227.495 125.548Z" fill="#792F2C"/>
<path d="M61.7745 96C61.8716 96.7653 61.8267 97.4016 61.64 97.9088C61.5279 98.1943 61.5838 98.4512 61.808 98.6806C62.3386 99.2087 62.5105 99.8554 62.3238 100.621C62.2812 100.799 62.2771 100.983 62.3117 101.164C62.3463 101.346 62.4189 101.518 62.5255 101.674C63.1084 102.502 62.9401 103.26 62.0209 103.948C61.7146 104.177 61.595 104.47 61.6622 104.824L62.1892 107.786C62.2565 108.127 62.1556 108.416 61.8866 108.652C60.6011 109.827 60.1191 110.919 60.4405 111.927C62.2341 117.56 62.3237 120.282 67.5699 124.204C67.8418 124.417 68.1691 124.563 68.5225 124.632C70.0994 124.93 70.6973 125.946 70.3162 127.677C69.8903 129.597 69.8903 131.063 70.3162 132.079C68.9711 131.245 67.9098 130.754 67.1325 130.608C67.0437 130.595 66.9526 130.607 66.8711 130.642C66.7895 130.677 66.7214 130.735 66.6755 130.806C66.6295 130.879 66.6079 130.962 66.6134 131.046C66.619 131.13 66.6515 131.209 66.7066 131.276C69.0756 133.967 70.7496 137.455 71.7286 141.738C71.9602 142.774 72.5618 143.177 73.5334 142.948C76.0107 147.099 86.5702 149.592 92.0517 148.862C92.5379 148.868 92.9036 148.764 93.1502 148.549C92.933 149.397 92.8924 150.128 93.0269 150.739C93.0942 151.066 93.2889 151.306 93.6098 151.459C95.5379 152.377 97.5108 152.71 98.755 154.358C99.9811 155.992 100.497 158.044 100.302 160.512C100.399 169.176 103.855 175.601 110.671 179.788C120.659 185.493 138.291 184.92 147.506 178.067C147.461 178.186 147.472 178.279 147.539 178.349C147.622 178.439 147.707 178.442 147.797 178.359L148.358 177.827C148.454 177.744 148.544 177.748 148.627 177.837C148.723 177.935 148.817 178.025 148.907 178.109C149.041 178.227 149.03 178.332 148.873 178.422C147.656 179.166 147.046 180.247 147.046 181.665C147.046 181.843 147.001 182.019 146.916 182.178C146.83 182.338 146.706 182.476 146.553 182.583C142.125 185.702 133.538 186.297 135.736 193.598C135.832 193.932 135.751 194.22 135.489 194.464C135.205 194.728 135.003 195.086 134.884 195.538C128.943 196.206 122.979 196.149 116.993 195.371C99.7751 193.567 82.1983 188.664 68.6796 178.401C67.6557 176.016 65.8472 173.909 63.2542 172.08C62.9403 171.857 62.7534 171.562 62.6937 171.193C62.4171 169.462 61.7445 167.887 60.6758 166.468C57.6119 162.4 55.3626 158.336 53.9277 154.275C53.7268 153.714 53.6025 153.129 53.5578 152.533C52.9973 145.315 50.0827 135.354 43.0318 130.984C39.8259 128.992 34.9611 131.975 33.2348 134.342C29.7934 139.067 33.8737 143.803 39.4337 144.168C39.8148 144.189 40.1473 144.078 40.4312 143.834C41.9035 142.547 42.9423 140.993 43.5476 139.172C43.6059 138.994 43.5926 138.803 43.5101 138.633C43.4274 138.465 43.2814 138.329 43.0991 138.254C41.4625 137.58 39.6989 137.204 37.8083 137.127C37.5327 137.113 37.2716 137.007 37.0716 136.83C36.8716 136.653 36.7456 136.415 36.7159 136.16C36.6864 135.906 36.7552 135.649 36.91 135.435C37.0648 135.222 37.2957 135.069 37.5616 135C49.5222 132.079 49.455 142.76 50.5983 149.946C50.6656 150.343 50.5012 150.624 50.1051 150.791L43.7494 153.441C39.1086 154.331 34.8974 153.587 31.116 151.208C22.948 146.056 20.2689 138.957 23.0789 129.909C23.7739 129.117 24.4501 128.122 25.1078 126.926C30.6678 116.871 45.1505 118.373 48.8272 129.065C48.848 129.138 48.8963 129.201 48.9633 129.243C49.0303 129.286 49.1115 129.304 49.1921 129.295C49.2725 129.286 49.3469 129.251 49.4014 129.195C49.4559 129.139 49.4869 129.067 49.4887 128.992C49.825 124.34 49.7913 119.694 49.3877 115.056C49.3579 114.716 49.485 114.431 49.769 114.201C54.5331 110.446 52.6833 105.387 50.6544 100.861C50.475 100.458 50.6171 100.291 51.0804 100.36C55.5718 101.007 59.1364 99.5529 61.7745 96ZM69.2202 144.908C69.2191 144.769 69.1885 144.631 69.1301 144.503C69.0717 144.374 68.9866 144.257 68.8797 144.159C68.7728 144.061 68.6461 143.983 68.507 143.931C68.3678 143.878 68.219 143.851 68.0688 143.852L64.1232 143.878C63.973 143.88 63.8246 143.907 63.6863 143.962C63.548 144.017 63.4224 144.095 63.3169 144.195C63.2116 144.294 63.1282 144.412 63.0717 144.542C63.0152 144.671 62.9867 144.809 62.9878 144.949L63.0273 150.227C63.0284 150.366 63.059 150.504 63.1174 150.634C63.1758 150.763 63.2609 150.879 63.3678 150.978C63.4747 151.076 63.6014 151.152 63.7405 151.206C63.8796 151.258 64.0285 151.284 64.1787 151.284L68.1243 151.258C68.2745 151.257 68.423 151.228 68.5613 151.175C68.6996 151.12 68.825 151.04 68.9306 150.941C69.0359 150.842 69.1193 150.723 69.1758 150.594C69.2322 150.465 69.2608 150.326 69.2597 150.186L69.2202 144.908ZM66.5274 159.157C66.7672 159.282 67.0392 159.346 67.3146 159.34C67.5899 159.334 67.8585 159.26 68.0924 159.124C68.3262 158.988 68.5165 158.798 68.6435 158.57C68.7704 158.343 68.8294 158.087 68.814 157.832L68.601 154.369C68.5786 153.931 68.3694 153.601 67.9733 153.378C64.2965 151.344 61.3485 156.424 66.5274 159.157Z" fill="#AD5138"/>
<path d="M96.804 107.151C85.0041 101.348 75.5826 108.629 65.9713 113.918C65.864 113.977 65.7412 114.005 65.6174 113.999C65.4935 113.994 65.3741 113.955 65.2729 113.886C65.1719 113.817 65.0935 113.722 65.0471 113.611C65.0007 113.501 64.9882 113.381 65.0113 113.265C67.1211 102.14 80.8291 96.9049 91.256 97.0013C95.5426 97.0334 103.345 100.556 100.32 106.08C99.9994 106.665 99.451 107.106 98.7938 107.305C98.1352 107.506 97.4207 107.45 96.804 107.151Z" fill="#161321"/>
<path d="M164.228 97.6157C172.91 99.3682 184.767 106.169 185 116C175.197 108.637 164.761 102.73 153.425 105.992C152.966 106.125 152.151 106.144 150.983 106.047C150.641 106.018 150.368 105.875 150.161 105.618C147.508 102.432 149.773 99.0375 153.225 97.8362C156.223 96.8001 159.89 96.7271 164.228 97.6157Z" fill="#161321"/>
<path d="M100.985 132.872C101.254 140.522 97.9512 145.519 91.0793 147.862C79.4691 149.526 72.8116 135.736 81.3004 128.696C81.48 128.546 81.6957 128.435 81.9311 128.37C82.1665 128.307 82.4154 128.292 82.6589 128.328C82.9022 128.364 83.1335 128.449 83.3354 128.577C83.5371 128.706 83.704 128.874 83.8229 129.068L84.514 130.205C84.8441 130.751 85.1129 130.73 85.3202 130.143C87.094 125.088 79.5267 127.621 77.6492 128.841C72.159 132.425 70.6463 136.984 73.1111 142.517C72.1129 142.745 71.4948 142.346 71.2569 141.318C70.2509 137.073 68.5308 133.617 66.0966 130.95C66.04 130.885 66.0066 130.805 66.0009 130.722C65.9951 130.64 66.0174 130.557 66.0647 130.486C66.1119 130.415 66.1819 130.358 66.2657 130.322C66.3495 130.287 66.443 130.275 66.5343 130.288C67.3329 130.433 68.4233 130.919 69.8054 131.746C73.9828 125.833 79.3078 122.607 85.781 122.07C93.9818 121.387 99.5565 125.77 100.985 132.872ZM95.2718 135.002L82.4638 135.229C82.2429 135.235 82.0251 135.277 81.8228 135.356C81.6205 135.436 81.4377 135.551 81.2848 135.693C81.1319 135.837 81.0118 136.006 80.9314 136.191C80.8511 136.376 80.8122 136.572 80.8167 136.77V136.966C80.8691 139.371 81.7687 141.661 83.3174 143.334C84.8661 145.007 86.9372 145.926 89.0751 145.887H89.1212C91.2592 145.851 93.2879 144.861 94.7636 143.136C96.2379 141.41 97.0384 139.09 96.988 136.687V136.491C96.9851 136.292 96.9376 136.095 96.8498 135.913C96.762 135.729 96.6353 135.564 96.4755 135.426C96.3157 135.288 96.1271 135.179 95.9212 135.107C95.7138 135.034 95.4936 134.998 95.2718 135.002Z" fill="#161321"/>
<path d="M184.696 128.693C185.147 128.352 185.536 128.278 185.862 128.471C185.911 128.503 185.95 128.549 185.973 128.601C185.997 128.655 186.005 128.714 185.997 128.772C185.99 128.83 185.965 128.884 185.927 128.93C185.89 128.974 185.84 129.007 185.784 129.025C183.77 129.631 181.934 130.569 180.276 131.841C180.079 131.995 179.938 132.21 179.871 132.451C179.804 132.691 179.816 132.947 179.906 133.181C179.995 133.415 180.156 133.614 180.367 133.749C180.578 133.885 180.825 133.95 181.076 133.936L184.152 133.737C185.247 133.67 185.358 133.966 184.485 134.624C183.337 135.48 182.12 136.205 180.832 136.797C180.454 136.966 180.228 137.258 180.154 137.672C179.666 140.517 178.6 142.834 176.956 144.623C180.287 135.755 177.056 128.582 167.683 126.076C166.853 125.536 165.94 125.296 164.94 125.356C164.252 125.392 164.237 125.514 164.896 125.722L167.383 126.498C170.537 128.079 172.377 130.4 172.903 133.46C174.338 141.877 170.795 147.391 162.275 150C156.079 149.393 151.992 145.712 150.015 138.958C149.393 120.234 168.061 116.764 178.755 129.801C179.013 130.112 179.335 130.212 179.721 130.101L184.696 128.693ZM161.753 146.397C165.04 145.355 168.105 144.845 168.649 141.109C169.96 132.262 155.49 130.023 154.735 138.182C154.457 141.253 157.622 147.705 161.753 146.397Z" fill="#161321"/>
<path d="M168 126.634C167.878 126.775 167.817 126.896 167.817 127L166.296 126.326C165.892 126.145 165.902 126.039 166.323 126.008C166.934 125.956 167.492 126.164 168 126.634Z" fill="#31A3A6"/>
<path d="M168.423 127C177.821 129.363 181.062 136.127 177.721 144.49C174.113 149.937 169.525 149.404 163.958 150C163.632 149.924 163.312 149.778 163 149.561C171.545 147.101 175.097 141.902 173.657 133.963C173.131 131.077 171.285 128.89 168.122 127.397C168.122 127.286 168.223 127.154 168.423 127Z" fill="#FEFDFE"/>
<path d="M90.002 149.309C89.6549 149.607 89.9871 149.792 91 149.865C85.695 150.643 75.4763 147.986 73.0789 143.562C70.7575 137.611 72.1821 132.708 77.353 128.853C79.1212 127.542 86.2481 124.818 84.5775 130.254C84.3823 130.885 84.1292 130.907 83.8182 130.321L83.1673 129.098C83.0553 128.89 82.8981 128.709 82.7082 128.57C82.5181 128.432 82.3002 128.341 82.071 128.302C81.8418 128.263 81.6073 128.28 81.3856 128.348C81.1639 128.417 80.9607 128.537 80.7916 128.698C72.7968 136.269 79.0668 151.099 90.002 149.309Z" fill="#FEFDFE"/>
<path d="M68 179C59.0034 171.94 52.7917 163.275 49.3649 153.004C49.2334 152.615 48.9472 152.455 48.5063 152.526L42.194 153.557L48.773 150.856C49.183 150.686 49.3532 150.399 49.2835 149.995C48.1 142.67 48.1696 131.782 35.7888 134.759C35.5136 134.83 35.2746 134.988 35.1143 135.204C34.954 135.421 34.8828 135.683 34.9134 135.943C34.9442 136.204 35.0746 136.446 35.2816 136.625C35.4887 136.806 35.7589 136.913 36.0442 136.928C38.0012 137.007 39.8268 137.389 41.5209 138.076C41.7096 138.153 41.8607 138.292 41.9463 138.464C42.0317 138.636 42.0455 138.831 41.9851 139.012C41.3586 140.87 40.2832 142.454 38.7592 143.765C38.4654 144.013 38.1212 144.126 37.7267 144.105C31.9714 143.733 27.7477 138.906 31.31 134.089C33.0969 131.676 38.1328 128.635 41.4514 130.666C48.7498 135.121 51.7668 145.274 52.347 152.632C52.3933 153.239 52.5219 153.836 52.7299 154.408C54.2151 158.548 56.5435 162.69 59.715 166.837C60.8213 168.283 61.5175 169.888 61.8038 171.653C61.8656 172.029 62.0591 172.331 62.384 172.557C65.0681 174.421 66.9402 176.569 68 179Z" fill="#8F4631"/>
<path d="M100.066 134C101.259 135.891 101.309 138.461 100.216 141.709C99.0086 145.286 96.3817 147.29 92.3339 147.72C92.0801 147.912 91.7036 148.006 91.203 148C90.1269 147.937 89.772 147.782 90.1413 147.533C97.028 145.417 100.336 140.907 100.066 134Z" fill="#D7D2D2"/>
<path d="M162.028 145.846C157.901 147.013 154.74 141.255 155.017 138.515C155.771 131.234 170.225 133.232 168.916 141.127C168.373 144.461 165.311 144.916 162.028 145.846Z" fill="#35293C"/>
<path d="M94.4063 135C94.612 134.995 94.8163 135.032 95.0072 135.105C95.1995 135.178 95.3744 135.288 95.5212 135.427C95.6695 135.567 95.7883 135.734 95.8697 135.92C95.9512 136.104 95.9953 136.302 95.9979 136.505V136.703C96.0447 139.131 95.3023 141.474 93.9337 143.219C92.5664 144.962 90.6838 145.962 88.7023 145.999H88.6596C86.6765 146.038 84.7558 145.11 83.3195 143.419C81.8831 141.728 81.0489 139.414 81.0003 136.984V136.785C80.9961 136.586 81.0322 136.387 81.1066 136.2C81.1811 136.014 81.2925 135.843 81.4343 135.698C81.5762 135.554 81.7457 135.438 81.9334 135.358C82.121 135.277 82.323 135.234 82.5278 135.229L94.4063 135Z" fill="#35293C"/>
<path d="M150.112 139C152.04 145.458 156.025 148.976 162.069 149.555C162.372 149.773 162.683 149.922 163 150L156.784 149.152C151.68 147.563 149.456 144.178 150.112 139Z" fill="#D7D2D2"/>
<path d="M125.066 143.395C125.454 143.908 125.672 144.095 125.72 143.954C126.41 147.694 125.826 150.376 123.967 152C123.29 150.429 121.713 140.97 125.066 143.395Z" fill="#FDBF9E"/>
<path d="M125.079 143C132.737 146.453 131.163 156.123 122.398 154.892C120.427 154.454 120.54 153.144 122.739 150.96C125.22 149.353 126 146.701 125.079 143Z" fill="#8F4631"/>
<path d="M68.4808 144L63.4482 144.028C62.6429 144.032 61.9945 144.549 62 145.181L62.0506 150.863C62.0561 151.496 62.7137 152.006 63.5192 152L68.5518 151.973C69.3573 151.969 70.0055 151.453 70 150.819L69.9494 145.137C69.9439 144.504 69.2863 143.996 68.4808 144Z" fill="#FDBF9E"/>
<path d="M66.1972 159.801C62.1186 156.826 64.4404 151.296 67.336 153.51C67.6479 153.752 67.8127 154.112 67.8304 154.589L67.9981 158.359C68.0102 158.637 67.9637 158.915 67.8637 159.162C67.7638 159.409 67.6139 159.618 67.4297 159.765C67.2457 159.913 67.034 159.994 66.8172 160C66.6003 160.007 66.3861 159.937 66.1972 159.801Z" fill="#D17857"/>
<path d="M104.099 161.3L105.18 162.204C106.683 170.848 130.888 170.462 137.765 169.426C144.544 168.417 149.025 165.715 151.211 161.32C152.175 160.839 153.222 160.9 154.353 161.503C154.695 161.686 154.884 161.954 154.923 162.306C155.469 168.516 153.119 173.757 147.875 178.029C138.334 175.622 128.179 174.931 118.752 177.979C116.224 178.791 113.484 179.465 110.531 180C103.609 175.923 100.098 169.666 100 161.229C101.669 160.904 103.036 160.928 104.099 161.3Z" fill="#2F030D"/>
<path d="M151 161C148.863 165.579 144.48 168.394 137.855 169.444C131.132 170.524 107.469 170.926 106 161.921C106.437 161.66 107.013 161.601 107.725 161.741C121.683 164.555 136.108 164.309 151 161Z" fill="#FEFDFE"/>
<path d="M147.932 178.123C147.955 178.227 147.977 178.327 148 178.424C138.744 185.236 121.033 185.807 111 180.135C113.919 179.588 116.63 178.901 119.13 178.072C128.453 174.961 138.497 175.666 147.932 178.123Z" fill="#5C0B16"/>
<path d="M137.018 196L137.409 203.364C137.437 203.811 137.625 204.236 137.945 204.576C138.265 204.915 138.7 205.15 139.182 205.244L150.862 207.48C151.099 207.57 151.03 207.817 150.655 208.222C141.207 225.551 118.191 226.157 104.9 212.16C103.404 210.585 102.437 209.081 102 207.647L113.358 205.401C112.645 206.787 110.792 207.407 107.8 207.261C105.667 207.148 104.735 208.057 105.004 209.987C105.683 214.834 117.605 219.524 122.162 220.255C122.645 220.331 122.898 220.147 122.921 219.701L122.956 219.221C122.961 219.084 123.026 218.956 123.134 218.861C123.243 218.765 123.39 218.71 123.543 218.709L129.354 218.594C129.532 218.59 129.708 218.55 129.868 218.477C130.027 218.405 130.168 218.3 130.278 218.172C130.388 218.044 130.466 217.896 130.505 217.738C130.544 217.58 130.544 217.415 130.505 217.257C129.361 212.682 127.278 208.357 124.256 204.283C121.955 201.192 119.28 200.133 116.235 201.108L116.5 196.136C122.645 196.915 128.767 196.971 134.866 196.303L137.018 196Z" fill="#792F2C"/>
<path d="M113.882 204.76C115.588 204.053 116.488 202.586 116.581 200.359C119.44 199.36 121.948 200.445 124.108 203.614C126.945 207.789 128.9 212.221 129.972 216.911C130.009 217.072 130.009 217.241 129.972 217.403C129.935 217.565 129.862 217.717 129.76 217.849C129.656 217.98 129.525 218.087 129.375 218.162C129.225 218.235 129.061 218.277 128.892 218.281L123.439 218.399C123.295 218.401 123.159 218.456 123.057 218.554C122.954 218.652 122.895 218.784 122.888 218.923L122.855 219.416C122.834 219.872 122.596 220.061 122.143 219.983C117.866 219.234 106.679 214.427 106.042 209.459C105.791 207.481 106.666 206.55 108.666 206.665C111.474 206.815 113.212 206.179 113.882 204.76Z" fill="#8F4631"/>
<path d="M150.237 207C170.048 210.823 178.108 224.203 185 241.164C174.703 246.422 164.447 250.367 154.233 253C149.884 247.56 145.585 243.239 141.335 240.04C136.172 236.167 130.241 233.189 123.544 231.103C112.959 227.805 105.483 225.474 99.8931 216.662C98.1714 213.938 96.2071 211.61 94 209.678L102.082 207.284C101.869 207.924 101.667 208.323 101.936 208.974C106.953 221.388 120.861 225.526 133.871 223.268C143.591 221.567 147.834 216.883 152.134 209.216C152.268 208.956 152.223 208.733 151.999 208.544C151.445 208.082 150.791 207.815 150.035 207.746C150.401 207.339 150.468 207.091 150.237 207Z" fill="#216477"/>
<path d="M102.778 207C103.21 208.47 104.164 210.01 105.641 211.622C118.759 225.958 141.475 225.338 150.799 207.588C151.563 207.659 152.226 207.931 152.787 208.402C153.014 208.594 153.06 208.823 152.923 209.086C148.573 216.896 144.28 221.668 134.444 223.401C121.28 225.701 107.208 221.486 102.131 208.84C101.858 208.177 102.063 207.77 102.279 207.118C102.195 207.481 102.361 207.443 102.778 207Z" fill="#31A3A6"/>
<path d="M93.7934 210C96.0362 211.915 98.0323 214.221 99.7818 216.921C105.462 225.652 113.059 227.962 123.815 231.23C130.62 233.297 136.647 236.249 141.894 240.086C146.213 243.256 150.581 247.538 155 252.928C133.282 257.591 112.238 256.945 91.8657 250.993C91.1586 250.202 90.1591 249.501 88.8659 248.891C88.4481 248.695 88.2456 248.383 88.2613 247.954C88.5736 238.199 88.2197 228.472 87.2007 218.773C87.1636 218.437 87.2566 218.102 87.463 217.826C87.7215 217.472 87.7026 217.194 87.406 216.993C86.8737 216.625 86.524 216.736 86.3566 217.326C83.6496 226.622 81.68 236.051 80.4481 245.612C80.4025 245.979 80.1819 246.112 79.7865 246.008C78.6763 245.696 77.6004 245.592 76.5585 245.696C74.726 244.682 72.8097 244.051 70.8097 243.802C70.2775 242.961 69.0075 241.991 67 240.888C72.0188 228.66 79.49 215.401 93.7934 210Z" fill="#288390"/>
<path d="M91 251C86.0549 249.629 81.3883 247.823 77 245.581C77.9528 245.474 78.9369 245.581 79.9522 245.9C80.314 246.007 80.5155 245.871 80.5573 245.496C81.6839 235.714 83.4852 226.068 85.961 216.558C86.1141 215.954 86.434 215.841 86.9207 216.217C87.192 216.422 87.2093 216.707 86.9729 217.069C86.7841 217.351 86.6992 217.694 86.733 218.038C87.6649 227.96 87.9878 237.911 87.7035 247.891C87.6892 248.33 87.873 248.65 88.2564 248.849C89.4378 249.474 90.3532 250.191 91 251Z" fill="#216477"/>
</g>
<defs>
<clipPath id="clip0_2_615">
<rect width="256" height="256" fill="white"/>
</clipPath>
</defs>
</svg>
